<?xml version="1.0" encoding="utf-8"?>
<!-- Generator: Adobe Illustrator 22.0.1, SVG Export Plug-In . SVG Version: 6.00 Build 0)  -->
<svg version="1.1" id="Layer_1" xmlns="http://www.w3.org/2000/svg" xmlns:xlink="http://www.w3.org/1999/xlink" x="0px" y="0px"
	 viewBox="0 0 300 300" style="enable-background:new 0 0 300 300;" xml:space="preserve">
<style type="text/css">
	.st0{fill:#F9DC3E;}
</style>
<g>
	<path d="M189.4,115l0-0.5l-0.8,0.1l0,0.5C188.7,115,189.4,115,189.4,115z M194.5,127.2l0,0.3l0.5,0c0-0.2,0-0.4,0.2-0.7l0-0.5
		C194.9,126.2,194.7,126.5,194.5,127.2L194.5,127.2z M174.7,142.5c0-0.4-1.4-2.1-4-5.1c0-0.5,0.9-1.4,2.7-2.4l5.4-4.7
		c1.2-1.5,1.9-4,2.1-7.4l-0.1-0.8c-0.2-2.4-1.9-4.3-5.2-5.8c-1.9-1.3-5.4-2-10.4-2.2c-4.1,0.4-9.6,1.8-16.2,4.4
		c-1.8,1.3-3.9,2.6-6.3,4l0,0.4c0.1,0,0.4-0.1,0.6-0.3c0.3,0,0.4,0.1,0.4,0.4l0.4-0.2l0.2,0l0,0.2c0,0.2-1.4,1.3-4.4,3.4l0.2,0.4
		l-0.2,0l-0.5-0.2c0,0.1-0.2,0.2-0.6,0.3l0,0.2l0.5,0.6c-0.1,0-0.4,0-0.7-0.2c-0.7,0.1-1.3,0.4-2,1.1l0.3-1.2c1-4.2,1.7-8,2-11.2
		l0-0.2c-0.7-0.4-1.3-1-1.9-1.8c0-0.5,0-0.8,0-0.9l0-0.2l-0.2,0c-2.1,3.2-6.2,8.6-12.3,16.3c-4.6,5.5-7,8.5-7.1,9.1
		c-1.9,1.9-2.8,3.1-2.7,3.5c-0.5,0.3-0.7,0.6-0.6,1c-0.1,0-0.2,0-0.3-0.2c-0.8,1.3-2,2.1-3.6,2.5l-1.7,0.4c-0.2,0-0.3,0.2-0.3,0.5
		l0,0.2l0.6-0.1l0,0.2l-1.4,0.5l-2.5,0.6l-1.3,0.1c-0.2,0.2,1,0,0.6,0.1l-1.6,0.4c-1,0.2-1.5,0.1-1.6-0.3l-0.2,0c0,0.2,0,0.3,0,0.4
		l-0.1-0.4l-1.3,0.3c-0.1-0.6-1.9-2.8-5.3-6.6c-0.1-0.7,1.2-1.8,3.6-3.2l7-6.2c1.6-2,2.5-5.3,2.8-9.7l-0.1-1
		c-0.3-3.1-2.6-5.7-6.8-7.6c-2.5-1.7-7.1-2.6-13.7-2.8c-5.5,0.5-12.6,2.4-21.4,5.8c-2.4,1.8-5.2,3.5-8.2,5.2l0,0.5
		c0.2,0,0.5-0.1,0.8-0.3c0.4,0,0.5,0.1,0.6,0.4l0.5-0.3l0.3,0l0,0.3c0,0.3-1.9,1.8-5.8,4.5l0.3,0.5l-0.3,0l-0.6-0.2
		c0,0.2-0.3,0.3-0.8,0.3l0,0.3l0.6,0.7c-0.2,0-0.5,0-0.9-0.2c-1.3,0.1-2.5,1-3.7,2.7l0.3,0.5c1-1,1.7-1.4,1.8-1.5l0.1,0.8
		c-0.2,0-0.4,0.1-0.8,0.3l0.7,1c1.2-1.3,2.7-2.5,4.2-3.5c0.8,0.2,1.2,0.4,1.2,0.7l0.6,0c4.1-3.1,8.2-5.3,12.3-6.7l0,0.5
		c-0.8,1.1-1.3,1.7-1.5,1.7c0,0.4,0.2,0.7,0.4,1c0.1,0.7-1.8,5.3-5.5,14c-8.5,20-15.6,34.8-21.4,44.4c0,0.2,0.1,0.4,0.3,0.8
		c1.4-0.3,2.3-0.7,2.7-1l0.3,0l0,0.5l0.5,0l0.5-0.3c0,0.2,0.2,0.2,0.6,0.2l0,0.5c0,0.5-0.3,1.3-0.9,2.4c-0.6,0.7-1.2,2-1.9,4.1
		l0,0.3l0.5,0c2.3-2.6,4.1-5.1,5.3-7.6c6.7-2,11.9-3.9,15.5-5.8c3.6-0.3,6.3-1.3,8.2-2.8l0-0.3l-1.3,0.4l-0.3,0l0-0.3
		c2.6-0.4,4.4-1,5.5-1.8c5.1-4,9-6.7,11.6-8.4c5.4-4,8.9-7.8,10.5-11.5c0.3-0.1,0.6-0.1,0.9-0.2c0.8,0,1.2,0,1.3-0.1
		c0-0.1,0-0.2,0.2-0.3c1.2-0.1,0.6,0.1,1.4-0.1l2-0.5c-0.1,0-0.2,0.1-0.1,0.2l0.3-0.2c-0.1,0-0.1,0-0.2,0l0.3-0.1l-0.2,0.1
		c0.2,0,0.5,0,0.7,0l0.1,0.6l-9.2,14.6l-2,2.6l-1,3.3l0.2,0l1-0.4l-0.3,1.3l0.1,0.4l0.3,0.3c-0.1,0-0.2,0.1-0.1,0.3l0,0.2l0.4-0.1
		c0.6-0.5,0.9-1,0.8-1.4c0.7,0.1,1.1,0.2,1.3,0.1l0,0.2c-0.4,0.1-0.6,0.4-0.6,1l0,0.2l0.2,0c3.3-3.6,11.5-16.1,18.1-24.6
		c-0.2-0.9,3.2-2.2,10.3-3.8l0.2,0c0.3,1.1-0.3,3.8-1.6,8c-0.9,2.6-1.3,4-1.2,4.2c-1.1,3.4-1.7,5.3-1.6,5.6l-2.5,8.2
		c-1.6,4.2-2.9,8.6-3.7,13.3c0.1,0,0.4,0,0.7,0.1l0.4-0.3c0,0.1,0.1,0.2,0.3,0.2l-0.1-0.6l1.1,0c0.3-0.1,0.6-0.5,0.8-1.2
		c0-1.1,0.2-1.7,0.7-1.8c0.7-2.6,1.1-4,1.2-4c0.6-2.6,1.1-4.1,1.4-4.5c0.9-3.4,1.6-5.2,2.1-5.3l0.1,0.4l-0.7,1.8
		c-1.2,5.3-2.4,9.6-3.7,12.7l0.4,1.5l0.2,0c3-6.4,7.3-19.1,12.9-38.2c0.2-1.7,1-3,2.4-3.9l-0.3-0.3l0-0.2c0.6-0.1,1.1-0.4,1.3-0.8
		c0-0.1-0.6-0.4-1.7-0.6l2.8-12c0.6-0.5,1-0.8,1.1-0.8l0,0.6c-0.1,0-0.4,0.1-0.6,0.3l0.5,0.8c1-1,2-1.9,3.1-2.7
		c0.6,0.2,0.9,0.4,0.9,0.5l0.4,0c3.2-2.3,6.3-4,9.4-5l0,0.4c-0.6,0.9-0.9,1.3-1.2,1.3c0,0.3,0.1,0.5,0.3,0.8c0,0.5-1.3,4.1-4.2,10.6
		c-6.5,15.2-11.9,26.4-16.3,33.7c0,0.1,0.1,0.3,0.3,0.6c1.1-0.3,1.8-0.5,2-0.8l0.2,0l0,0.4l0.4,0l0.4-0.2c0,0.1,0.2,0.2,0.4,0.1
		l0,0.4c0,0.4-0.2,1-0.7,1.8c-0.5,0.5-0.9,1.5-1.5,3.1l0,0.2l0.4,0c1.8-2,3.1-3.9,4-5.8c5.1-1.5,9-3,11.7-4.4
		c2.7-0.2,4.8-0.9,6.2-2.1l0-0.2l-1,0.3l-0.2,0l0-0.2c2-0.3,3.4-0.7,4.1-1.3c3.9-3,6.8-5.1,8.8-6.4C172.1,151,175,146.7,174.7,142.5
		L174.7,142.5z M173.6,142.8l0.1,1.6c-0.2,0.4-0.4,0.6-0.6,0.6l-0.2-2.8C173.4,142.5,173.6,142.6,173.6,142.8L173.6,142.8z
		 M52,129.7l-0.3,0l0-0.5l1.1-0.1l0,0.3C52.6,129.4,52.3,129.5,52,129.7L52,129.7z M46.6,183.9c-0.6-0.3-1.2-0.4-1.7-0.4l-0.1-0.8
		c0-0.3,0.1-0.5,0.5-0.6c0.4,0,0.6,0.2,0.6,0.7c0.9-1.1,1.4-1.7,1.5-1.7l0.6,0.2C47.9,183,47.4,183.8,46.6,183.9z M104.4,123.4
		c-0.3,0-0.8-0.8-1.6-2.5l0-0.5c0.5,0,1,0.8,1.6,2.5L104.4,123.4z M103.7,117.4l-0.2,0.5l-7.9-3.3
		C100.8,114.8,103.5,115.7,103.7,117.4z M70.5,145.9l-1.1,0.1l0-0.5l1.1-0.1L70.5,145.9z M69.6,128.8l0.3,0l0.1,0.8
		c-0.3,0-0.6,0.4-1,1.1l0-0.5C69.4,129.5,69.6,129.1,69.6,128.8L69.6,128.8z M67.3,134.3l0.1,1l-0.3,0l-0.1-1L67.3,134.3z M66,136.2
		l0.5,0c0,0.9-0.3,1.3-0.7,1.4l-0.3,0C65.9,137,66.1,136.5,66,136.2z M65.1,138.9l0.3,0l0,0.3l-0.5,0.8l-0.5,0l0-0.3
		C64.9,139.8,65.2,139.5,65.1,138.9L65.1,138.9z M64.2,141.4l-0.2,1.3l-0.3,0l-0.1-1.3L64.2,141.4z M55.2,167
		c-0.4,1.8-0.7,2.7-1.1,2.7l0-0.3C54,168.6,54.3,167.8,55.2,167L55.2,167z M53.6,170.6l0,0.3c0,0.4-0.1,0.6-0.5,0.6l0-0.3
		C53,170.9,53.2,170.7,53.6,170.6z M53.1,178l0.8-0.1l0,0.3c-0.2,0-0.5,0.1-0.8,0.3l-0.5,0C52.6,178.4,52.7,178.1,53.1,178L53.1,178
		L53.1,178z M76.8,170.7c-4.7,2.3-7.5,3.9-8.3,4.7c-5.1,1.8-7.6,2.9-7.6,3.3c-4.5,1.8-7.5,3.1-8.9,3.9c-0.3,0-0.8-0.1-1.5-0.4
		c-0.1-0.9,0.3-1.7,1.2-2.2c0.8-0.1,1.5,0,2.3,0.4c0.8-0.4,2.3-0.9,4.4-1.4l0-0.5l-1.7,0.1c0.2-0.3,1.8-1,4.8-2.3l0.8-0.1l0,0.3
		c-1.4,0.1-2.2,0.5-2.4,1.3c0,0.3,0.2,0.5,0.6,0.4c1.1-0.7,1.6-1.1,1.6-1.2c2-0.4,7.7-3.3,16.9-8.9l0,0.5
		C79.2,168.9,78.4,169.5,76.8,170.7L76.8,170.7z M62.7,175.4c1.3-0.1,2.5-0.7,3.5-1.6c0.4,0,0.6,0.1,0.6,0.4
		c-0.7,0.1-1.9,0.6-3.8,1.7l-0.3,0L62.7,175.4L62.7,175.4z M85.5,157.8l-7.1,5.6c-5.3,3.5-8.1,5.2-8.5,5.2c-8.4,4.6-13.6,7-15.6,7.2
		l-0.3,0c0.3-0.9,4-8.6,11.2-22.9c3.2-0.3,8.2-1.8,15-4.4l1.7-0.1c3.5-0.3,6,0.4,7.7,2l0.1,1C88.5,155,87.1,157.2,85.5,157.8
		L85.5,157.8z M71.7,150l1.1-0.1l0,0.3l-1.1,0.1L71.7,150z M87.7,147.3l0.8-0.1c0.8,0.4,1.2,0.7,1.2,1l0,0.3
		C89,148.5,88.3,148.1,87.7,147.3z M90,134.4c-0.7,0.9-2.8,2.4-6.1,4.5c-1.1,0.1-5.2,1.7-12.2,4.8c-0.4-0.2-0.7-0.2-1.1-0.2l0-0.5
		c-0.1-1,0.4-2.3,1.4-3.8c0.5-2.9,1.1-4.5,1.8-4.9l5.9-13.2c-0.1-0.8,1.2-1.4,3.8-1.9l0.8-0.1l0.1,0.8c2.5-0.4,4.1-0.6,4.7-0.7
		c4.7-0.4,7.1,0.5,7.3,2.8l0.5,0l-0.1-1.3l0.6,0c1.4,0.8,2.1,1.7,2.2,2.7c0.1,0.7-0.3,1.7-1.2,2.7c-0.4,0-0.6-0.2-0.6-0.7l-0.6,0
		l-0.1,1.6c-2.4,3.5-4.1,5.3-5.1,5.4C90.8,133.7,90.2,134.4,90,134.4z M93.6,143.6c-0.5-0.3-0.9-0.5-1.2-0.4l-0.1-0.8l0.5,0L94,143
		C94.1,143.4,93.9,143.6,93.6,143.6L93.6,143.6z M97.3,148.1c0.5,0.2,0.8,0.4,0.9,0.6l-0.3,0.1l0,0c0,0-0.1,0-0.2,0l-0.4,0.3
		L97.3,148.1z M97.6,150.3l0-0.2l0.7-0.2l0,0.2L97.6,150.3z M99.3,152.1c0.7-0.1,1-0.2,2.3-0.4l0,0.2l-2.4,0.6
		C99.2,152.3,99.3,152.2,99.3,152.1z M101.6,153.1c-1,0.1-0.8,0-2.4,0.3l0-0.2l2-0.7l1-0.2l0.1,0.4
		C101.8,152.8,102.2,152.8,101.6,153.1z M103.8,152.6c-0.2,0.1-0.4,0-0.5-0.3l0.6-0.1c0.3-0.1,0.4,0,0.5,0.3L103.8,152.6
		L103.8,152.6z M109.7,146.3l0-0.2l1-0.2l0.1,0.4L109.7,146.3z M116,184.8c0.1-0.3,0.1-0.5,0-0.6l0.2,0c0.3-0.1,0.4,0,0.5,0.3l0,0.2
		L116,184.8L116,184.8z M120.4,147.9l-0.4-0.1c-0.7,0.3-1.3,0.5-1.8,0.6l-0.4,0.1c-0.2,0.1-0.4,0-0.5-0.3l2.9-0.7l1-0.4l0.3,0.4
		C120.9,147.6,120.6,147.7,120.4,147.9L120.4,147.9z M122.6,147.2l0-0.2c0.1,0,0.3-0.1,0.5-0.4l2.1-0.5l0,0.2
		C124.2,146.6,123.3,146.9,122.6,147.2L122.6,147.2z M123,143c-0.1,0-0.3,0.2-0.6,0.4c0-0.1-0.3-0.1-0.9,0c-0.1-0.4,1.4-1,4.6-1.7
		l0.4-0.1l0.1,0.4C124.5,142.5,123.2,142.9,123,143L123,143z M128.6,136.9c-0.2,2.6-1.1,4-2.7,4.4l0-0.2l-1.4,0.5l-0.6,0.1
		c-0.3,0.1-0.6,0.1-0.9,0l-0.1-0.6c0-0.2,2-3,6.1-8.5l0.5,0.1C129.6,133.5,129.3,134.9,128.6,136.9L128.6,136.9z M138.5,128.4
		l-0.2,0l0-0.4l0.8-0.1l0,0.2C139,128.2,138.8,128.2,138.5,128.4L138.5,128.4z M134.4,169.5c-0.5-0.2-0.9-0.3-1.3-0.3l0-0.6
		c0-0.2,0.1-0.4,0.4-0.4c0.3,0,0.4,0.2,0.5,0.6c0.7-0.9,1.1-1.3,1.2-1.3l0.4,0.2C135.4,168.8,135,169.5,134.4,169.5L134.4,169.5z
		 M178.3,123.6c-0.2,0-0.6-0.6-1.2-1.9l0-0.4c0.4,0,0.8,0.6,1.2,1.9L178.3,123.6L178.3,123.6z M177.8,119l-0.2,0.4l-5.9-2.5
		C175.6,117,177.7,117.7,177.8,119z M152.6,140.6l-0.8,0.1l0-0.4l0.8-0.1L152.6,140.6L152.6,140.6z M151.9,127.6l0.2,0l0,0.6
		c-0.2,0-0.5,0.3-0.8,0.9l0-0.4C151.7,128.2,151.9,127.9,151.9,127.6L151.9,127.6z M150.1,131.8l0.1,0.8l-0.2,0l-0.1-0.8
		L150.1,131.8z M149.2,133.3l0.4,0c0,0.7-0.2,1-0.5,1.1l-0.2,0C149.1,133.9,149.2,133.5,149.2,133.3L149.2,133.3z M148.5,135.4
		l0.2,0l0,0.2l-0.4,0.6l-0.4,0l0-0.2C148.3,136,148.5,135.8,148.5,135.4L148.5,135.4z M147.8,137.2l-0.1,1l-0.2,0l-0.1-1
		L147.8,137.2L147.8,137.2z M141,156.7c-0.3,1.3-0.6,2-0.9,2.1l0-0.2C140,157.9,140.3,157.3,141,156.7z M139.7,159.4l0,0.2
		c0,0.3-0.1,0.4-0.4,0.5l0-0.2C139.3,159.6,139.4,159.5,139.7,159.4L139.7,159.4z M139.3,165.1l0.6,0l0,0.2c-0.1,0-0.4,0.1-0.6,0.2
		l-0.4,0C138.9,165.3,139.1,165.1,139.3,165.1L139.3,165.1z M157.4,159.5c-3.5,1.8-5.6,2.9-6.3,3.6c-3.9,1.3-5.8,2.2-5.7,2.5
		c-3.4,1.4-5.7,2.3-6.7,3c-0.3,0-0.6-0.1-1.1-0.3c-0.1-0.7,0.3-1.3,0.9-1.7c0.6,0,1.2,0,1.7,0.3c0.6-0.3,1.8-0.7,3.3-1.1l0-0.4
		l-1.3,0.1c0.2-0.2,1.4-0.8,3.7-1.7l0.6,0l0,0.2c-1.1,0.1-1.7,0.4-1.8,1c0,0.3,0.2,0.4,0.4,0.4c0.8-0.5,1.2-0.8,1.2-0.9
		c1.5-0.3,5.8-2.5,12.8-6.7l0,0.4C159.2,158.1,158.6,158.6,157.4,159.5L157.4,159.5z M146.6,163c1-0.1,1.9-0.5,2.7-1.2
		c0.3,0,0.4,0.1,0.4,0.4c-0.5,0-1.4,0.4-2.9,1.2l-0.2,0L146.6,163L146.6,163z M164,149.7l-5.3,4.3c-4,2.6-6.2,3.9-6.5,4
		c-6.4,3.5-10.3,5.3-11.9,5.4l-0.2,0c0.2-0.7,3-6.5,8.5-17.4c2.4-0.2,6.2-1.3,11.4-3.4l1.3-0.1c2.6-0.2,4.6,0.3,5.9,1.5l0.1,0.8
		C166.2,147.6,165.2,149.2,164,149.7L164,149.7z M153.5,143.8l0.8-0.1l0,0.2l-0.8,0.1L153.5,143.8z M165.7,141.7l0.6,0
		c0.6,0.3,0.9,0.5,0.9,0.8l0,0.2C166.7,142.6,166.1,142.3,165.7,141.7z M167.3,131.9c-0.6,0.7-2.1,1.8-4.6,3.4
		c-0.8,0.1-3.9,1.3-9.3,3.6c-0.3-0.1-0.5-0.1-0.9-0.1l0-0.4c-0.1-0.8,0.3-1.7,1-2.9c0.4-2.2,0.9-3.5,1.4-3.7l4.5-10
		c0-0.6,0.9-1.1,2.8-1.4l0.6,0l0,0.6c1.9-0.3,3.1-0.5,3.6-0.5c3.5-0.3,5.4,0.4,5.5,2.1l0.4,0l-0.1-1l0.4,0c1,0.6,1.6,1.2,1.6,2
		c0,0.6-0.2,1.3-0.9,2.1c-0.3,0-0.4-0.2-0.5-0.6l-0.4,0l-0.1,1.2c-1.8,2.7-3.1,4.1-3.9,4.2C168,131.4,167.6,131.9,167.3,131.9
		L167.3,131.9z M169.2,138.6l0-0.6l0.4,0l0.9,0.5c0,0.3-0.1,0.4-0.4,0.4C169.7,138.7,169.4,138.6,169.2,138.6L169.2,138.6z
		 M94.4,177.6l-0.4,0.1l-0.4,0.3c0.1,0.3,0.2,0.4,0.5,0.3s0.4-0.2,0.3-0.5L94.4,177.6z M92.9,174.4l0,0.2c0.3-0.1,0.4-0.2,0.3-0.5
		l0-0.2C92.9,174,92.8,174.2,92.9,174.4L92.9,174.4z M104.2,147.5l0.5-0.1l-0.1-0.4l-0.5,0.1L104.2,147.5L104.2,147.5z M249.9,159.8
		c-4.9,1.1-5.5,0.9-6.5,1l0,0.4l0.4,0l0.2,0l-0.1,0l0.5-0.2c4.8-0.5,5.4-0.3,5.3-0.9L249.9,159.8z M223.6,163.3l0,0.4h0.1
		L223.6,163.3L223.6,163.3L223.6,163.3z M220.6,152.7l-0.4-0.1c-0.4,0.9-0.5,1.5-0.5,1.7l0,0.2C220,154.4,220.3,153.8,220.6,152.7z
		 M250.9,159.7l0,0.4l0.7,0.1l0-0.4L250.9,159.7L250.9,159.7z M217.7,163.8l-1.1-0.1l-0.2,0.4l0,0.2l6.5-0.5l0-0.4L217.7,163.8
		L217.7,163.8z M214.7,149.5l0-0.2l-0.2,0l-0.4,0.3l0.2,0.4C214.6,149.9,214.8,149.8,214.7,149.5L214.7,149.5z M254,156.7l0.3,0
		c0.2,0,0.3-0.2,0.2-0.4l-0.2-0.4c-1.1,0.1-1.6,0.1-2.5,0.6l0-0.2l-1.3,0.1c0-0.4-0.1-0.6-0.3-0.6l-0.7,0.1c-0.8,0.1-1.2,0-1.6,0.3
		c0-0.1-0.1-0.2-0.1-0.2l-0.8,0.1l-0.4,0.3c0-0.1-0.1-0.2-0.1-0.2l-0.3,0.2l0-0.2l-1.1-0.1l-0.3,0l0,0.4l0.5,0.1l0.5,0
		c0.2,0.1,0.4,0.1,0.6,0.1l0.4-0.2l0,0.2c-2.5,0.6-2.5,0.5-4.2,0.8c-0.2-0.1-0.3-0.2-0.4-0.2l0,0c-0.2,0-0.3-0.1-0.3-0.4l0.9-0.1
		c0.1,0,0.1,0.1,0.6,0.2c0.7-0.4,0.8-0.5,1.1-0.5l0-0.4c-2.5,0.5-1.5,0.2-4.6,0.4l-0.1,0l0-0.4c4-0.5,2.7-0.2,4-0.6
		c0,0.1,0.1,0.2,0.1,0.2c0.1-0.1,0.3-0.2,0.5-0.3l0.3,0c1.4-0.1,1.9,0.2,4.6-0.6l0,0.2l0.4-0.2l0.4,0c0-0.4,0.6-0.5,0.8-0.5l0-0.4
		c-4.9,1-6.1,0.7-7.5,1.1l0-0.2c-1.3,0.2-1.3,0.1-1.6,0.1c-0.1,0-0.2,0.1-0.4,0.3c0-0.1-0.1-0.2-0.2-0.2c0,0-0.1,0-0.1,0l-4.1,0.7
		c0-0.1-0.1-0.2-0.2-0.2c-2.1,0.4-1.6,0.5-4.4,0.8c-0.1,0-0.3,0.1-0.5,0.2c0-0.1-0.1-0.2-0.2-0.2l-1.8,0.1l-1.2,0.3
		c0-0.1-0.1-0.2-0.2-0.2c-0.7,0.2-1.2,0.3-1.7,0.3h0c-0.3,0,0.1-0.1-0.1-0.2l-0.4,0.2c-0.5,0-0.2,0-2,0c-3.1,0.4-2.8,0.4-3.1,0.4
		l-1.2-0.1c0,0.1,0,0.2-0.2,0.2c-1.3-0.2-2-0.4-2-0.6c0.2-1.3,0.5-1.9,0.9-1.9l0.2,0l-0.2,0.4l0.2,0c0.4-0.2,0.6-0.4,0.6-0.6l0-0.4
		l-0.4,0l0-0.4c0-0.3,0-0.6,0.1-0.8l0.9-1.5l0,0.4l0.4,0l0-0.4l-0.3-0.4c0.3-0.3,0.6-0.4,0.8-0.5l0-0.2l-0.6,0l0-0.6
		c1.2-2.5,1.8-4,1.8-4.4l0.4,0.2c0.3,0,0.4-0.2,0.4-0.5l-0.4,0l0-0.2c0-0.3,0-0.6,0.2-0.9c0.7-0.7,1-1.4,0.9-2.1
		c0.1,0,0.2,0,0.2,0.2c0.6-0.3,1-1.2,1.3-2.6c1-1.8,2.4-5.4,4.3-10.8c3.5-9.5,3.4-10.5,3.9-12.8l-0.4,0c0,0.3,0,0.6-0.2,0.8
		c-0.3-0.1-0.5-0.2-0.7-0.2l0-0.2c-0.1-0.8,0.3-1.8,1-3l0.2,0l0.4,1.4l0.4,0c0-0.1,0.1-0.6,0.3-1.7c0-0.2-0.2-0.3-0.5-0.4l-0.4,0.3
		c0-0.3,0-1,0-2.2l-0.2,0c-0.4-0.4-0.5-0.6-0.5-0.9l-2.3,0.2c0-0.2-0.1-0.4-0.3-0.7c0-0.2,0.5-0.4,1.6-0.6l0.5,0.2l0.4-0.3
		c0,0.1,0.1,0.2,0.3,0.2l0.4-0.3c0,0.1,0.1,0.2,0.3,0.2l0.2,0l0-0.5c-0.3,0-1.2,0-2.5,0l-0.4,0.3l0-0.3c-10.8,0.9-16.9,1.4-18.4,1.5
		c-0.2,0-0.9,0-2.3,0c0,0.2-0.1,0.3-0.5,0.3l-0.5-0.2l-1.6,0.4c-0.4,0-1,0-1.9-0.1c-0.2,0.2-0.5,0.3-0.9,0.3c-0.2,0,2.3-0.1,4.6-0.3
		c-0.2,0.2-0.6,0.3-1.1,0.4c-0.4,0-0.7,0-0.9-0.2c-0.4,0.2-1.5,0.4-3.4,0.8l-0.5-0.2l-7.5,1.2c-0.3-0.1-0.6-0.2-1-0.2
		c-0.4,0-1.1,0.2-2,0.4l-3.6,1.5l0.3,0.4c0.2,0,0.4-0.1,0.7-0.3l1.3,0.1l-0.2,1.2c-1.2,0.5-1.9,1.3-2.1,2.3
		c-1.8,0.8-2.7,1.3-2.7,1.7l0,0.2l0.3,0l0.5-0.3l0.6,0.7l0.1,0.9c0,0.3-3,6.6-9,18.9c-5.2,11.9-7.9,18.4-8.2,19.6
		c-1.8,0.5-2.8,1.2-3.1,2.2c0,0.3,0.6,0.5,1.6,0.6l0,0.5l-0.5,0.8l0.1,0.9c0,0.5,1.3,0.9,3.9,1.1c0-0.2,0.1-0.3,0.2-0.3
		c0,0.6-0.1,1.7-0.5,3.4l0.3,0c1.1-1.4,1.6-2.4,1.5-3l0.2,0c0.3,0,0.5,0.3,0.9,0.9c-0.3,0.1-1.4,2.7-3.4,7.7l0.3,0.4l0.3,0
		c2.4-6,3.8-9.3,4.4-9.9c3.1-0.3,8.5-0.8,16.1-1.6l0.5-0.3c0,0.2,0.1,0.2,0.3,0.2l0.5,0l0.5-0.3c0,0.2,0.1,0.2,0.3,0.2l5.8-0.5
		c1.5-0.1,2.2-0.6,2.2-1.4c0-0.2,0.9-0.4,2.7-0.7c0.2,0,0.4,0,0.8,0.1c0-0.1,0.9-0.3,2.7-0.4c0-1,0.4-1.5,0.9-1.5l0-0.5
		c-0.5,0-1.1,0.2-1.8,0.4c-1.2-0.1-2-0.2-2.3-0.3c-0.3,0.2-0.6,0.3-0.7,0.3l-4,0.1l-0.5,0.3c0-0.1-0.1-0.2-0.3-0.2l-0.2,0l-0.5,0.3
		c0-0.1-0.4-0.3-1.3-0.4l-0.5,0.3l-1,0.1l0-0.3c5.2-0.6,7.7-1.3,7.7-2.1c0.3,0,0.5,0.1,0.5,0.5l1.5-0.4l0-0.5l-12.4,0.3
		c0,0.2-0.1,0.3-0.2,0.3l-1.5-0.1c-0.4,0-0.7,0.1-1,0.3l-0.6-0.2c-1.6,0.1-2.7,0.3-3.5,0.6c-1.1-0.1-2.2-0.1-3.5,0l-2.8,0.2
		l-1.3-0.1c-0.1-0.8,1.5-4.9,4.8-12.1c0.9-2.4,1.8-4,2.7-4.5c0.2,0,0.4,0,0.8,0.2l2-0.7l1,0.2c1.7-0.1,3.7-0.6,5.9-1.5
		c0.6,0,1,0,1.3,0.1l1.5-0.4l4.5-0.4c1.9-0.2,4-0.6,6.2-1.3l0-0.5c-0.8,0.1-1.3-0.1-1.3-0.4c0-0.6-0.7-0.9-1.8-0.8l0-0.5l1.2-0.4
		l3.2-0.3l0-0.5c-0.1,0-0.8,0-2,0l0-0.5l1.3-0.1c0.3,0,0.5-0.2,0.4-0.5c-1.7,0-2.5,0-2.6-0.3c-11.8,0.6-17.7,0.7-17.7,0.3
		c-0.2,0-0.4,0.1-0.7,0.3l-0.3-0.5c3.1-6.6,4.9-10,5.5-10c0,0.3-0.1,0.7-0.4,1.2l0,0.2l0.5,0c1.2-3,2.3-4.5,3.1-4.5
		c3.7-0.3-0.5-0.6,7.4-1.8c0.3,0.1,0.5,0.2,0.7,0.2c3.1-0.6,7.4-1.3,13-2l0-0.5l-3,0.3l0-0.5c0.4,0,0.6-0.1,0.9-0.3l0,0.3
		c0.2,0,0.4-0.1,0.7-0.3c0.5,0,0.9,0,1.2,0.1c1-0.3,1.9-0.4,2.5-0.5l1.8-0.2c0.4-0.3,0.7-0.5,0.6-0.8l0-0.2c-0.5,0-1,0-1.6-0.1
		c0-0.3,0.1-0.4,0.4-0.5l3.4-0.3l1.6-0.4c0,0.2,0.1,0.2,0.2,0.2c0.2,0,0.4-0.1,0.7-0.3c0.1,0,0.2,0,0.3,0c-0.2,0.4-0.4,1.1-0.7,1.9
		l-0.4,0c0-0.3-0.1-0.6-0.3-0.8l-0.2,0c-4.2,11.6-6,17-9.9,26c-0.7,2.3-1.3,3.6-1.8,3.8c0,0.3,0.2,0.4,0.4,0.4
		c0.1,1.1-0.2,2.2-0.8,3.3c-1.8,5.1-3,8-3.6,8.5l0.4,2.4c0,0.3-0.1,0.4-0.4,0.4l-0.4,0c-0.1-0.7-0.3-1-0.7-0.9l-0.2,0
		c-0.5,0.9-1,1.8-1.2,3l0.4,0c0.6-0.4,0.8-0.8,0.8-1.3l0.8-0.1l0.5,0.2c-0.4,0.6-0.6,1.1-0.5,1.5l0.2,0.4l-0.5,1.3l0,0.2
		c0.5,0,1,0.1,1.6,0.4c0.4,0,0.8-0.2,1.3-0.5c0.5,0,2.3-0.1,5.4-0.1l1.6-0.5c1.9,0,2.2,0,3.8-0.1l0.7-0.1l0.4-0.2l0,0.2
		c1.7-0.1,1.8,0,3.2,0.1l0,0.2l-0.9,0.1l0,0.4c0.3,0,0.5-0.1,0.8-0.3c0.2,0,0.4,0.1,0.4,0.4c-0.4,0-0.8,0.1-1.3,0.3l-0.4-0.1
		c-0.7,0.2-0.5,0.2-1,0.3l-0.7-0.1c0,0.1,0,0.2-0.2,0.2c0,0.3,0.2,0.4,0.4,0.4l0.7-0.1l3.5-0.3l1.3-0.3c0,0.1,0.1,0.2,0.2,0.2
		l0.6-0.2l1.2-0.1c0.9-0.1,0.9-0.1,2.9-0.5c0-0.1,0-0.2,0.1-0.2l0,0.2c3.3-0.6,3.5-0.6,4-0.8l0,0.1c0.8-0.2,0.4-0.1,0.6-0.3
		c0,0.1,0.1,0.2,0.1,0.2l0.6,0l0-0.4l-1.2,0l0,0c0,0-0.1,0-0.1,0h-0.2v0c-0.8,0.2-0.8,0-1.3,0.1l-2.9,0.2l0-0.2l1.6-0.2l0.6,0
		l0.3-0.2l0,0.2c2.3-0.2,3.1,0.4,13.8-1.9c0.6,0,0.5-0.5,0.9-1.5c-0.2,0-0.4,0-0.6-0.1c-0.9,0.3-1.3,0.2-3.1,0.4
		c-0.1,0-0.3-0.1-0.3-0.4l0-0.2l1.6,0c0.3,0,0.9-0.1,1.8-0.6C254.1,156.7,253.8,156.8,254,156.7L254,156.7z M174.9,158l-0.8,0.1
		c0-0.3,0.4-1.5,1.2-3.4l0.5,0C175.9,155.1,175.6,156.2,174.9,158z M175.8,154.4l0-0.2c0-0.3,0.1-0.4,0.5-0.5l0,0.2
		C176.3,154.1,176.2,154.3,175.8,154.4z M185.9,162.1l0,0.2l-1.3,0.1l0-0.2L185.9,162.1L185.9,162.1z M184.4,162
		c0,0.3-0.4,0.5-1.2,0.8l-1.5-0.1l-0.5,0l0-0.5L184.4,162L184.4,162z M194.5,115.3l-0.8,0.1l0-0.3c0-0.3,0.1-0.4,0.4-0.5l0.3,0
		l0.5,0.2C195,115,194.8,115.2,194.5,115.3z M206,113l0.2,0l0,0.5l-0.7,0.1C205.6,113.3,205.7,113.1,206,113z M203.1,114l-1.1-0.1
		l0-0.2c1.5-0.1,2-0.3,2.9-0.5c0,0.2,0.2,0.2,0.5,0.2l0,0.5l-0.4,0c-0.4,0-0.7,0-0.9-0.2C203.7,113.9,203.4,114,203.1,114L203.1,114
		z M204.5,118.2l0-0.2l1.8-0.2l0,0.2L204.5,118.2z M206.5,116.6l0-0.3l0.9-0.1l0,0.3L206.5,116.6z M206.7,113.4l-0.2,0l0.2-0.5
		l2.1-0.2l0,0.3C208.2,113.1,207.5,113.2,206.7,113.4z M207.8,117.9l0-0.5l0.9-0.1c0.3,0,0.5,0.1,0.5,0.4L207.8,117.9L207.8,117.9z
		 M213.2,110.4l-1.2,0.3l-0.2,0c-0.5,0-1.3,0-2.1,0C211.2,110.6,212.7,110.5,213.2,110.4L213.2,110.4z M212,115.6l0,0.2l-1.6,0.1
		l0-0.2C210.4,115.7,212,115.6,212,115.6z M214.6,116.8c0-0.2-0.3-0.3-0.9-0.4l-1.6,0.4l-1.2,0c-0.3-0.2-0.4-0.3-0.4-0.4l1.4,0.1
		l3.2-0.5l1.6,0.1l0,0.3C215.8,116.5,215.1,116.6,214.6,116.8z M230.9,112.6c0.2,0,0.3,0,0.4,0c0.6-0.5,1.2-1,1.9-1.3
		c-0.6,2.5-1.5,4.4-2.7,5.6l-0.9-0.5C230.4,114.5,230.8,113.2,230.9,112.6L230.9,112.6z M228.2,117.3l0.2,0
		c-0.3,0.6-0.6,0.9-0.8,0.9l0-0.6C227.7,117.6,227.9,117.5,228.2,117.3z M226.4,121.6c0.4-1.7,0.9-2.7,1.2-3l0,0.2
		c-0.2,1.6-0.6,2.5-1,2.5l0.1,1c-0.4,0.5-0.6,1-0.5,1.3l-0.2,0l-0.1-1.4C226,122.2,226.2,122,226.4,121.6L226.4,121.6z M225.7,123.9
		c0,0.2-0.1,0.8-0.5,1.7l-0.2,0l0-0.6C225.3,124.3,225.5,123.9,225.7,123.9L225.7,123.9z M212.7,161.5l0-0.2l0.4,0l0,0.6
		C213,161.9,212.8,161.8,212.7,161.5z M231.3,162c0-0.1-0.1-0.2-0.2-0.2l-1,0.1l0-0.2h0.1l2.5-0.2l0,0.2
		C231.8,161.7,231.4,161.8,231.3,162z M230,161.5c0.1,0,0,0.1,0,0.1C230,161.6,229.9,161.5,230,161.5z M230.2,158.6l-1.4,0.1l0-0.2
		l1.3-0.1l1.1-0.3c0,0.1,0.1,0.2,0.2,0.2c1.3-0.2,1.2-0.3,1.8-0.3c0.2,0,0.3,0.1,0.4,0.4L230.2,158.6L230.2,158.6z M235,158.2
		c-0.8-0.1-0.8-0.1-1.4-0.1l0-0.2l1.2-0.1l0,0.2C234.7,158,235.2,158,235,158.2L235,158.2z M235.1,158l0-0.2l0.7-0.1l0,0.2
		L235.1,158z M236.6,157.8l0-0.2c0.1,0,0.3-0.1,0.5-0.3c0.3,0,0.5,0.2,0.5,0.4L236.6,157.8L236.6,157.8z M238.5,157.6l0-0.2l0.8-0.1
		l0,0.2L238.5,157.6z M239.6,157.5c0-0.2,0.1-0.4,0.3-0.4l0.3,0.4c0-0.1,0-0.2,0.1-0.2l0.2,0.4L239.6,157.5L239.6,157.5z
		 M227.5,162.7l0-0.4l-0.1,0l0,0.4L227.5,162.7z M255.7,155.4c0.1-0.1,0.2-0.2-0.1-0.2c-0.1,0.2,0.2,0.2-0.2,0.2l0,0.1
		C255.5,155.5,255.6,155.5,255.7,155.4l-0.3,0.2v0l-0.3,0.4l0.7-0.2h0.1l0-0.4L255.7,155.4z M256.9,156.3l-0.1,0l0,0.4l0.9-0.1
		C257.7,156.4,257.1,156.3,256.9,156.3L256.9,156.3z M255.4,155.6L255.4,155.6L255.4,155.6C255.5,155.6,255.4,155.6,255.4,155.6
		L255.4,155.6z"/>
	<path class="st0" d="M193.8,125.9l0,0.3l0.5,0c0-0.2,0-0.4,0.2-0.7l0-0.5C194.2,124.9,194,125.2,193.8,125.9L193.8,125.9z
		 M188.7,113.7l0-0.5l-0.8,0.1l0,0.5L188.7,113.7z M174,141.3c0-0.4-1.4-2.1-4-5.1c0-0.5,0.9-1.4,2.7-2.4l5.4-4.7
		c1.2-1.5,1.9-4,2.1-7.4l-0.1-0.8c-0.2-2.4-1.9-4.3-5.2-5.8c-1.9-1.3-5.4-2-10.4-2.2c-4.1,0.4-9.6,1.8-16.2,4.4
		c-1.8,1.3-3.9,2.6-6.3,4l0,0.4c0.1,0,0.4-0.1,0.6-0.3c0.3,0,0.4,0.1,0.4,0.4l0.4-0.2l0.2,0l0,0.2c0,0.2-1.4,1.3-4.4,3.4l0.2,0.4
		l-0.2,0l-0.5-0.2c0,0.1-0.2,0.2-0.6,0.3l0,0.2l0.5,0.6c-0.1,0-0.4,0-0.7-0.2c-0.7,0.1-1.3,0.4-2,1.1l0.3-1.2c1-4.2,1.7-8,2-11.2
		l0-0.2c-0.7-0.4-1.3-1-1.9-1.8c0-0.5,0-0.8,0-0.9l0-0.2l-0.2,0c-2.1,3.2-6.2,8.6-12.3,16.3c-4.6,5.5-7,8.5-7.1,9.1
		c-1.9,1.9-2.8,3.1-2.7,3.5c-0.5,0.3-0.7,0.6-0.6,1c-0.1,0-0.2,0-0.3-0.2c-0.8,1.3-2,2.1-3.6,2.5l-1.7,0.4c-0.2,0-0.3,0.2-0.3,0.5
		l0,0.2l0.6-0.1l0,0.2l-1.4,0.5l-2.5,0.6l-1.3,0.1c-0.2,0.2,1,0,0.6,0.1L102,147c-1,0.2-1.5,0.1-1.6-0.3l-0.2,0c0,0.2,0,0.3,0,0.4
		l-0.1-0.4l-1.3,0.3c-0.1-0.6-1.9-2.8-5.3-6.7c-0.1-0.7,1.2-1.8,3.6-3.2l7-6.2c1.6-2,2.5-5.3,2.8-9.7l-0.1-1
		c-0.3-3.1-2.6-5.7-6.8-7.6c-2.5-1.7-7.1-2.6-13.7-2.8c-5.5,0.5-12.6,2.4-21.4,5.8c-2.4,1.8-5.2,3.5-8.2,5.2l0,0.5
		c0.2,0,0.5-0.1,0.8-0.3c0.4,0,0.5,0.1,0.6,0.4l0.5-0.3l0.3,0l0,0.3c0,0.3-1.9,1.8-5.8,4.5l0.3,0.5l-0.3,0l-0.6-0.2
		c0,0.2-0.3,0.3-0.8,0.3l0,0.3l0.6,0.7c-0.2,0-0.5,0-0.9-0.2c-1.3,0.1-2.5,1-3.7,2.7l0.3,0.5c1-1,1.7-1.4,1.8-1.5l0.1,0.8
		c-0.2,0-0.4,0.1-0.8,0.3l0.7,1c1.2-1.3,2.7-2.5,4.2-3.5c0.8,0.2,1.2,0.4,1.2,0.7l0.6,0c4.1-3.1,8.2-5.3,12.3-6.7l0,0.5
		c-0.8,1.1-1.3,1.7-1.5,1.7c0,0.4,0.2,0.7,0.4,1c0.1,0.7-1.8,5.3-5.5,14c-8.5,20-15.6,34.8-21.4,44.4c0,0.2,0.1,0.4,0.3,0.8
		c1.4-0.3,2.3-0.7,2.7-1l0.3,0l0,0.5l0.5,0l0.5-0.3c0,0.2,0.2,0.2,0.6,0.2l0,0.5c0,0.5-0.3,1.3-0.9,2.4c-0.6,0.7-1.2,2-1.9,4.1
		l0,0.3l0.5,0c2.3-2.6,4.1-5.1,5.3-7.6c6.7-2,11.9-3.9,15.5-5.8c3.6-0.3,6.3-1.3,8.2-2.8l0-0.3l-1.3,0.4l-0.3,0l0-0.3
		c2.6-0.4,4.4-1,5.5-1.8c5.1-4,9-6.7,11.6-8.4c5.4-4,8.9-7.8,10.5-11.5c0.3-0.1,0.6-0.1,0.9-0.2c0.8,0,1.2,0,1.3-0.1
		c0-0.1,0-0.2,0.2-0.3c1.2-0.1,0.6,0.1,1.4-0.1l2-0.5l0.3-0.1l-0.2,0.1c0.2,0,0.5,0,0.7,0l0.1,0.6l-9.2,14.6l-2,2.6l-1,3.3l0.2,0
		l1-0.4l-0.3,1.3l0.1,0.4l0.3,0.3c-0.1,0-0.2,0.1-0.1,0.3l0,0.2l0.4-0.1c0.6-0.5,0.9-1,0.8-1.4c0.7,0.1,1.1,0.2,1.3,0.1l0,0.2
		c-0.4,0.1-0.6,0.4-0.6,1l0,0.2l0.2,0c3.3-3.6,11.5-16.1,18.1-24.6c-0.2-0.9,3.2-2.2,10.3-3.8l0.2,0c0.3,1.1-0.3,3.8-1.6,8
		c-0.9,2.6-1.3,4-1.2,4.2c-1.1,3.4-1.7,5.3-1.6,5.6l-2.5,8.2c-1.6,4.2-2.9,8.6-3.7,13.3c0.1,0,0.4,0,0.7,0.1l0.4-0.3
		c0,0.1,0.1,0.2,0.3,0.2l-0.1-0.6l1.1,0c0.3-0.1,0.6-0.5,0.8-1.2c0-1.1,0.2-1.7,0.7-1.8c0.7-2.6,1.1-4,1.2-4
		c0.6-2.6,1.1-4.1,1.4-4.5c0.9-3.4,1.6-5.2,2.1-5.3l0.1,0.4l-0.7,1.8c-1.2,5.3-2.4,9.6-3.7,12.7l0.4,1.5l0.2,0
		c3-6.4,7.3-19.1,12.9-38.2c0.2-1.7,1-3,2.4-3.9l-0.3-0.3l0-0.2c0.6-0.1,1.1-0.4,1.3-0.8c0-0.1-0.6-0.4-1.7-0.6l2.8-12
		c0.6-0.5,1-0.8,1.1-0.8l0,0.6c-0.1,0-0.4,0.1-0.6,0.3l0.5,0.8c1-1,2-1.9,3.1-2.7c0.6,0.2,0.9,0.4,0.9,0.5l0.4,0
		c3.2-2.3,6.3-4,9.4-5l0,0.4c-0.6,0.9-0.9,1.3-1.2,1.3c0,0.3,0.1,0.5,0.3,0.8c0,0.5-1.3,4.1-4.2,10.6c-6.5,15.2-11.9,26.4-16.3,33.7
		c0,0.1,0.1,0.3,0.3,0.6c1.1-0.3,1.8-0.5,2-0.8l0.2,0l0,0.4l0.4,0l0.4-0.2c0,0.1,0.2,0.2,0.4,0.1l0,0.4c0,0.4-0.2,1-0.7,1.8
		c-0.5,0.5-0.9,1.5-1.5,3.1l0,0.2l0.4,0c1.8-2,3.1-3.9,4-5.8c5.1-1.5,9-3,11.7-4.4c2.7-0.2,4.8-0.9,6.2-2.1l0-0.2l-1,0.3l-0.2,0
		l0-0.2c2-0.3,3.4-0.7,4.1-1.3c3.9-3,6.8-5.1,8.8-6.4C171.4,149.8,174.3,145.4,174,141.3L174,141.3z M172.9,141.5l0.1,1.6
		c-0.2,0.4-0.4,0.6-0.6,0.6l-0.2-2.8C172.7,141.2,172.9,141.3,172.9,141.5L172.9,141.5z M51.3,128.5l-0.3,0l0-0.5l1.1-0.1l0,0.3
		C51.9,128.2,51.6,128.2,51.3,128.5L51.3,128.5z M45.9,182.6c-0.6-0.3-1.2-0.4-1.7-0.4l-0.1-0.8c0-0.3,0.1-0.5,0.5-0.6
		c0.4,0,0.6,0.2,0.6,0.7c0.9-1.1,1.4-1.7,1.5-1.7l0.6,0.2C47.1,181.7,46.6,182.5,45.9,182.6z M103.7,122.1c-0.3,0-0.8-0.8-1.6-2.5
		l0-0.5c0.5,0,1,0.8,1.6,2.5L103.7,122.1z M102.9,116.1l-0.2,0.5l-7.9-3.3C100.1,113.5,102.8,114.5,102.9,116.1z M69.8,144.6
		l-1.1,0.1l0-0.5l1.1-0.1L69.8,144.6z M68.9,127.5l0.3,0l0.1,0.8c-0.3,0-0.6,0.4-1,1.1l0-0.5C68.6,128.2,68.9,127.8,68.9,127.5
		L68.9,127.5z M66.5,133l0.1,1l-0.3,0l-0.1-1L66.5,133z M65.3,134.9l0.5,0c0,0.9-0.3,1.3-0.7,1.4l-0.3,0
		C65.2,135.7,65.3,135.2,65.3,134.9z M64.4,137.7l0.3,0l0,0.3l-0.5,0.8l-0.5,0l0-0.3C64.2,138.5,64.4,138.2,64.4,137.7L64.4,137.7z
		 M63.5,140.1l-0.2,1.3l-0.3,0l-0.1-1.3L63.5,140.1z M54.5,165.7c-0.4,1.8-0.7,2.7-1.1,2.7l0-0.3C53.2,167.3,53.6,166.5,54.5,165.7
		L54.5,165.7z M52.8,169.3l0,0.3c0,0.4-0.1,0.6-0.5,0.6l0-0.3C52.3,169.6,52.5,169.4,52.8,169.3z M52.3,176.8l0.8-0.1l0,0.3
		c-0.2,0-0.5,0.1-0.8,0.3l-0.5,0C51.8,177.1,52,176.9,52.3,176.8L52.3,176.8z M76.1,169.4c-4.7,2.3-7.5,3.9-8.3,4.7
		c-5.1,1.8-7.6,2.9-7.5,3.3c-4.5,1.8-7.5,3.1-8.9,3.9c-0.3,0-0.8-0.1-1.5-0.4c-0.1-0.9,0.3-1.7,1.2-2.2c0.8-0.1,1.5,0,2.3,0.4
		c0.8-0.4,2.3-0.9,4.4-1.4l0-0.5l-1.7,0.1c0.2-0.3,1.8-1,4.8-2.3l0.8-0.1l0,0.3c-1.4,0.1-2.2,0.5-2.4,1.3c0,0.3,0.2,0.5,0.6,0.4
		c1.1-0.7,1.6-1.1,1.6-1.2c2-0.4,7.7-3.3,16.9-8.9l0,0.5C78.5,167.6,77.7,168.3,76.1,169.4z M62,174.1c1.3-0.1,2.5-0.7,3.5-1.6
		c0.4,0,0.6,0.1,0.6,0.4c-0.7,0.1-1.9,0.6-3.8,1.7l-0.3,0L62,174.1L62,174.1z M84.8,156.5l-7.1,5.6c-5.3,3.5-8.1,5.2-8.5,5.2
		c-8.4,4.6-13.6,7-15.6,7.2l-0.3,0c0.3-0.9,4-8.6,11.2-22.9c3.2-0.3,8.2-1.8,15-4.4l1.7-0.1c3.5-0.3,6,0.4,7.7,2l0.1,1
		C87.7,153.7,86.3,155.9,84.8,156.5L84.8,156.5z M71,148.7l1.1-0.1l0,0.3L71,149L71,148.7z M87,146l0.8-0.1c0.8,0.4,1.2,0.7,1.2,1
		l0,0.3C88.3,147.2,87.6,146.9,87,146z M89.2,133.1c-0.7,0.9-2.8,2.4-6.1,4.5c-1.1,0.1-5.2,1.7-12.2,4.8c-0.4-0.2-0.7-0.2-1.1-0.2
		l0-0.5c-0.1-1,0.4-2.3,1.4-3.8c0.5-2.9,1.1-4.5,1.8-4.9l5.9-13.2c-0.1-0.8,1.2-1.4,3.8-1.9l0.8-0.1l0.1,0.8
		c2.5-0.4,4.1-0.6,4.7-0.7c4.7-0.4,7.1,0.5,7.3,2.8l0.5,0l-0.1-1.3l0.6,0c1.4,0.8,2.1,1.7,2.2,2.7c0.1,0.7-0.3,1.7-1.2,2.7
		c-0.4,0-0.6-0.2-0.6-0.7l-0.6,0l-0.1,1.6c-2.4,3.5-4.1,5.3-5.1,5.4C90.1,132.4,89.5,133.1,89.2,133.1L89.2,133.1z M92.8,142.4
		c-0.5-0.3-0.9-0.5-1.2-0.4l-0.1-0.8l0.5,0l1.2,0.7C93.4,142.1,93.2,142.3,92.8,142.4L92.8,142.4z M96.6,146.8
		c0.5,0.2,0.8,0.4,0.9,0.6l-0.3,0.1l0,0c0,0-0.1,0-0.2,0l-0.4,0.3L96.6,146.8L96.6,146.8z M96.9,149l0-0.2l0.7-0.2l0,0.2L96.9,149
		L96.9,149z M98.5,150.8c0.7-0.1,1-0.2,2.3-0.4l0,0.2l-2.4,0.6C98.5,151,98.5,150.9,98.5,150.8L98.5,150.8z M100.9,151.8
		c-1,0.1-0.8,0-2.4,0.3l0-0.2l2.1-0.7l1-0.2l0.1,0.4C101.1,151.5,101.4,151.5,100.9,151.8z M103.1,151.3c-0.2,0.1-0.4,0-0.5-0.3
		l0.6-0.1c0.3-0.1,0.4,0,0.5,0.3L103.1,151.3L103.1,151.3z M109,145l0-0.2l1-0.2l0.1,0.4L109,145z M115.3,183.5
		c0.1-0.3,0.1-0.5,0-0.6l0.2,0c0.3-0.1,0.4,0,0.5,0.3l0,0.2L115.3,183.5L115.3,183.5z M119.7,146.6l-0.4-0.1
		c-0.7,0.3-1.3,0.5-1.8,0.6l-0.4,0.1c-0.2,0.1-0.4,0-0.5-0.3l2.9-0.7l1-0.4l0.3,0.4C120.2,146.3,119.8,146.4,119.7,146.6
		L119.7,146.6z M121.9,145.9l0-0.2c0.1,0,0.3-0.1,0.5-0.4l2.1-0.5l0,0.2C123.4,145.3,122.6,145.6,121.9,145.9z M122.2,141.7
		c-0.1,0-0.3,0.2-0.6,0.4c0-0.1-0.3-0.1-0.9,0c-0.1-0.4,1.4-1,4.6-1.7l0.4-0.1l0.1,0.4C123.7,141.3,122.5,141.6,122.2,141.7
		L122.2,141.7z M127.9,135.6c-0.2,2.6-1.1,4-2.7,4.4l0-0.2l-1.4,0.5l-0.6,0.1c-0.3,0.1-0.6,0.1-0.9,0l-0.1-0.6c0-0.2,2-3,6.1-8.5
		l0.5,0.1C128.9,132.2,128.6,133.6,127.9,135.6L127.9,135.6z M137.8,127.1l-0.2,0l0-0.4l0.8-0.1l0,0.2
		C138.3,126.9,138.1,126.9,137.8,127.1z M133.7,168.2c-0.5-0.2-0.9-0.3-1.3-0.3l0-0.6c0-0.2,0.1-0.4,0.4-0.4c0.3,0,0.4,0.2,0.5,0.6
		c0.7-0.9,1.1-1.3,1.2-1.3l0.4,0.2C134.7,167.5,134.3,168.2,133.7,168.2z M177.6,122.3c-0.2,0-0.6-0.6-1.2-1.9l0-0.4
		c0.4,0,0.8,0.6,1.2,1.9L177.6,122.3L177.6,122.3z M177,117.7l-0.2,0.4l-5.9-2.5C174.9,115.8,176.9,116.4,177,117.7z M151.8,139.3
		l-0.8,0.1l0-0.4l0.8-0.1L151.8,139.3z M151.2,126.3l0.2,0l0,0.6c-0.2,0-0.5,0.3-0.8,0.9l0-0.4C151,126.9,151.2,126.6,151.2,126.3
		L151.2,126.3z M149.4,130.5l0.1,0.8l-0.2,0l-0.1-0.8L149.4,130.5z M148.5,132l0.4,0c0,0.7-0.2,1-0.5,1.1l-0.2,0
		C148.4,132.6,148.5,132.2,148.5,132L148.5,132z M147.8,134.1l0.2,0l0,0.2l-0.4,0.6l-0.4,0l0-0.2
		C147.6,134.7,147.8,134.5,147.8,134.1L147.8,134.1z M147.1,135.9l-0.1,1l-0.2,0l-0.1-1L147.1,135.9L147.1,135.9z M140.2,155.4
		c-0.3,1.3-0.6,2-0.9,2.1l0-0.2C139.3,156.6,139.6,156,140.2,155.4L140.2,155.4z M139,158.1l0,0.2c0,0.3-0.1,0.4-0.4,0.5l0-0.2
		C138.6,158.4,138.7,158.2,139,158.1L139,158.1z M138.6,163.8l0.6,0l0,0.2c-0.1,0-0.4,0.1-0.6,0.2l-0.4,0
		C138.2,164,138.3,163.8,138.6,163.8L138.6,163.8z M156.7,158.2c-3.5,1.8-5.6,2.9-6.3,3.6c-3.9,1.3-5.8,2.2-5.7,2.5
		c-3.4,1.4-5.7,2.3-6.7,3c-0.3,0-0.6-0.1-1.1-0.3c-0.1-0.7,0.3-1.3,0.9-1.7c0.6,0,1.2,0,1.7,0.3c0.6-0.3,1.8-0.7,3.3-1.1l0-0.4
		l-1.3,0.1c0.2-0.2,1.4-0.8,3.7-1.7l0.6,0l0,0.2c-1.1,0.1-1.7,0.4-1.8,1c0,0.3,0.2,0.4,0.4,0.4c0.8-0.5,1.2-0.8,1.2-0.9
		c1.5-0.3,5.8-2.5,12.8-6.7l0,0.4C158.5,156.8,157.9,157.3,156.7,158.2L156.7,158.2z M145.9,161.7c1-0.1,1.9-0.5,2.7-1.2
		c0.3,0,0.4,0.1,0.4,0.4c-0.5,0-1.4,0.4-2.9,1.2l-0.2,0L145.9,161.7L145.9,161.7z M163.3,148.4l-5.3,4.3c-4,2.6-6.2,3.9-6.5,4
		c-6.4,3.5-10.3,5.3-11.9,5.4l-0.2,0c0.2-0.7,3-6.5,8.5-17.4c2.4-0.2,6.2-1.3,11.4-3.4l1.3-0.1c2.6-0.2,4.6,0.3,5.9,1.5l0.1,0.8
		C165.5,146.3,164.4,147.9,163.3,148.4L163.3,148.4z M152.8,142.5l0.8-0.1l0,0.2l-0.8,0.1L152.8,142.5z M164.9,140.4l0.6,0
		c0.6,0.3,0.9,0.5,0.9,0.8l0,0.2C165.9,141.3,165.4,141.1,164.9,140.4z M166.6,130.6c-0.6,0.7-2.1,1.8-4.6,3.4
		c-0.8,0.1-3.9,1.3-9.3,3.6c-0.3-0.1-0.5-0.1-0.9-0.1l0-0.4c-0.1-0.8,0.3-1.7,1-2.9c0.4-2.2,0.9-3.5,1.4-3.7l4.5-10
		c0-0.6,0.9-1.1,2.8-1.4l0.6,0l0,0.6c1.9-0.3,3.1-0.5,3.6-0.5c3.5-0.3,5.4,0.4,5.5,2.1l0.4,0l-0.1-1l0.4,0c1,0.6,1.6,1.2,1.6,2
		c0,0.6-0.2,1.3-0.9,2.1c-0.3,0-0.4-0.2-0.5-0.6l-0.4,0l-0.1,1.2c-1.8,2.7-3.1,4.1-3.9,4.2C167.3,130.1,166.8,130.6,166.6,130.6
		L166.6,130.6z M168.5,137.3l0-0.6l0.4,0l0.9,0.5c0,0.3-0.1,0.4-0.4,0.4C169,137.4,168.7,137.3,168.5,137.3L168.5,137.3z
		 M93.7,176.3l-0.4,0.1l-0.4,0.3c0.1,0.3,0.2,0.4,0.5,0.3c0.3-0.1,0.4-0.2,0.3-0.5L93.7,176.3L93.7,176.3z M92.1,173.2l0,0.2
		c0.3-0.1,0.4-0.2,0.3-0.5l0-0.2C92.2,172.7,92.1,172.9,92.1,173.2L92.1,173.2z M103.5,151.8l0.3-0.2c-0.1,0-0.1,0-0.2,0
		C103.5,151.6,103.5,151.7,103.5,151.8z M103.4,146.3l0.5-0.1l-0.1-0.4l-0.5,0.1L103.4,146.3z M217,162.5l-1.1-0.1l-0.2,0.4l0,0.2
		l6.5-0.5l0-0.4L217,162.5z M222.9,162l0,0.4h0.1L222.9,162L222.9,162z M250.2,158.4l0,0.4l0.7,0.1l0-0.4L250.2,158.4z M249.2,158.5
		c-4.9,1.1-5.5,0.9-6.5,1l0,0.4l0.4,0l0.2,0l-0.1,0l0.5-0.2c4.8-0.5,5.4-0.3,5.3-0.9L249.2,158.5z M219.9,151.4l-0.4-0.1
		c-0.4,0.9-0.5,1.5-0.5,1.7l0,0.2C219.3,153.1,219.6,152.5,219.9,151.4z M214,148.2l0-0.2l-0.2,0l-0.4,0.3l0.2,0.4
		C213.9,148.7,214,148.5,214,148.2L214,148.2z M226.8,161.4l0-0.4l-0.1,0l0,0.4L226.8,161.4L226.8,161.4z M253.3,155.5l0.3,0
		c0.2,0,0.3-0.2,0.2-0.4l-0.2-0.4c-1.1,0.1-1.6,0.1-2.5,0.6l0-0.2l-1.3,0.1c0-0.4-0.1-0.6-0.3-0.6l-0.7,0.1c-0.8,0.1-1.2,0-1.6,0.3
		c0-0.1-0.1-0.2-0.1-0.2l-0.8,0.1l-0.4,0.3c0-0.1-0.1-0.2-0.1-0.2l-0.3,0.2l0-0.2l-1.1-0.1l-0.3,0l0,0.4l0.5,0.1l0.5,0
		c0.2,0.1,0.4,0.1,0.6,0.1l0.4-0.2l0,0.2c-2.5,0.6-2.5,0.5-4.2,0.8c-0.2-0.1-0.3-0.2-0.4-0.2l0,0c-0.2,0-0.3-0.1-0.3-0.4l0.9-0.1
		c0.1,0,0.1,0.1,0.6,0.2c0.7-0.4,0.8-0.5,1.1-0.5l0-0.4c-2.5,0.5-1.5,0.2-4.6,0.4l-0.1,0l0-0.4c4-0.5,2.7-0.2,4-0.6
		c0,0.1,0.1,0.2,0.1,0.2c0.1-0.1,0.3-0.2,0.5-0.3l0.3,0c1.4-0.1,1.9,0.2,4.6-0.6l0,0.2l0.4-0.2l0.4,0c0-0.4,0.6-0.5,0.8-0.5l0-0.4
		c-4.9,1-6.1,0.7-7.5,1.1l0-0.2c-1.3,0.2-1.3,0.1-1.6,0.1c-0.1,0-0.2,0.1-0.4,0.3c0-0.1-0.1-0.2-0.2-0.2c0,0-0.1,0-0.1,0l-4.1,0.7
		c0-0.1-0.1-0.2-0.2-0.2c-2.1,0.4-1.6,0.5-4.4,0.8c-0.1,0-0.3,0.1-0.5,0.2c0-0.1-0.1-0.2-0.2-0.2l-1.8,0.1l-1.2,0.3
		c0-0.1-0.1-0.2-0.2-0.2c-0.7,0.2-1.2,0.3-1.7,0.3h0c-0.3,0,0.1-0.1-0.1-0.2l-0.4,0.2c-0.5,0-0.2,0-2,0c-3.1,0.4-2.8,0.4-3.1,0.4
		l-1.2-0.1c0,0.1,0,0.2-0.2,0.2c-1.3-0.2-2-0.4-2-0.6c0.2-1.3,0.5-1.9,0.9-1.9l0.2,0l-0.2,0.4l0.2,0c0.4-0.2,0.6-0.4,0.6-0.6l0-0.4
		l-0.4,0l0-0.4c0-0.3,0-0.6,0.1-0.8l0.9-1.5l0,0.4l0.4,0l0-0.4l-0.3-0.4c0.3-0.3,0.6-0.4,0.8-0.5l0-0.2l-0.6,0l0-0.6
		c1.2-2.5,1.8-4,1.8-4.4l0.4,0.2c0.3,0,0.4-0.2,0.4-0.5l-0.4,0l0-0.2c0-0.3,0-0.6,0.2-0.9c0.7-0.7,1-1.4,0.9-2.1
		c0.1,0,0.2,0,0.2,0.2c0.6-0.3,1-1.2,1.3-2.6c1-1.8,2.4-5.4,4.3-10.8c3.5-9.5,3.4-10.5,3.9-12.8l-0.4,0c0,0.3,0,0.6-0.2,0.8
		c-0.3-0.1-0.5-0.2-0.7-0.2l0-0.2c-0.1-0.8,0.3-1.8,1-3l0.2,0l0.4,1.4l0.4,0c0-0.1,0.1-0.6,0.3-1.7c0-0.2-0.2-0.3-0.5-0.4l-0.4,0.3
		c0-0.3,0-1,0-2.2l-0.2,0c-0.4-0.4-0.5-0.6-0.5-0.9l-2.3,0.2c0-0.2-0.1-0.4-0.3-0.7c0-0.2,0.5-0.4,1.6-0.6l0.5,0.2l0.4-0.3
		c0,0.1,0.1,0.2,0.3,0.2l0.4-0.3c0,0.1,0.1,0.2,0.3,0.2l0.2,0l0-0.5c-0.3,0-1.2,0-2.5,0l-0.4,0.3l0-0.3c-10.8,0.9-16.9,1.4-18.4,1.5
		c-0.2,0-0.9,0-2.3,0c0,0.2-0.1,0.3-0.5,0.3l-0.5-0.2l-1.6,0.4c-0.4,0-1,0-1.9-0.1c-0.2,0.2-0.5,0.3-0.9,0.3c-0.2,0,2.3-0.1,4.6-0.3
		c-0.2,0.2-0.6,0.3-1.1,0.4c-0.4,0-0.7,0-0.9-0.2c-0.4,0.2-1.5,0.4-3.4,0.8l-0.5-0.2l-7.5,1.2c-0.3-0.1-0.6-0.2-1-0.2
		c-0.4,0-1.1,0.2-2,0.4l-3.6,1.5l0.3,0.4c0.2,0,0.4-0.1,0.7-0.3l1.3,0.1l-0.2,1.2c-1.2,0.5-1.9,1.3-2.1,2.3
		c-1.8,0.8-2.7,1.3-2.7,1.7l0,0.2l0.3,0l0.5-0.3l0.6,0.7l0.1,0.9c0,0.3-3,6.6-9,18.9c-5.2,11.9-7.9,18.4-8.2,19.6
		c-1.8,0.5-2.8,1.2-3.1,2.2c0,0.3,0.6,0.5,1.6,0.6l0,0.5l-0.5,0.8l0.1,0.9c0,0.5,1.3,0.9,3.9,1.1c0-0.2,0.1-0.3,0.2-0.3
		c0,0.6-0.1,1.7-0.5,3.4l0.3,0c1.1-1.4,1.6-2.4,1.5-3l0.2,0c0.3,0,0.5,0.3,0.9,0.9c-0.3,0.1-1.4,2.7-3.4,7.7l0.3,0.4l0.3,0
		c2.4-6,3.8-9.3,4.4-9.9c3.1-0.3,8.5-0.8,16.1-1.6l0.5-0.3c0,0.2,0.1,0.2,0.3,0.2l0.5,0l0.5-0.3c0,0.2,0.1,0.2,0.3,0.2l5.8-0.5
		c1.5-0.1,2.2-0.6,2.2-1.4c0-0.2,0.9-0.4,2.7-0.7c0.2,0,0.4,0,0.8,0.1c0-0.1,0.9-0.3,2.7-0.4c0-1,0.4-1.5,0.9-1.5l0-0.5
		c-0.5,0-1.1,0.2-1.8,0.4c-1.2-0.1-2-0.2-2.3-0.3c-0.3,0.2-0.6,0.3-0.7,0.3l-4,0.1l-0.5,0.3c0-0.1-0.1-0.2-0.3-0.2l-0.2,0l-0.5,0.3
		c0-0.1-0.4-0.3-1.3-0.4l-0.5,0.3l-1,0.1l0-0.3c5.2-0.6,7.7-1.3,7.7-2.1c0.3,0,0.5,0.1,0.5,0.5l1.5-0.4l0-0.5l-12.4,0.3
		c0,0.2-0.1,0.3-0.2,0.3l-1.5-0.1c-0.4,0-0.7,0.1-1,0.3l-0.6-0.2c-1.6,0.1-2.7,0.3-3.5,0.6c-1.1-0.1-2.2-0.1-3.5,0l-2.8,0.2
		l-1.3-0.1c-0.1-0.8,1.5-4.9,4.8-12.1c0.9-2.4,1.8-4,2.7-4.5c0.2,0,0.4,0,0.8,0.2l2-0.7l1,0.2c1.7-0.1,3.7-0.6,5.9-1.5
		c0.6,0,1,0,1.3,0.1l1.5-0.4l4.5-0.4c1.9-0.2,4-0.6,6.2-1.3l0-0.5c-0.8,0.1-1.3-0.1-1.3-0.4c0-0.6-0.7-0.9-1.8-0.8l0-0.5l1.2-0.4
		l3.2-0.3l0-0.5c-0.1,0-0.8,0-2,0l0-0.5l1.3-0.1c0.3,0,0.5-0.2,0.4-0.5c-1.7,0-2.5,0-2.6-0.3c-11.8,0.6-17.7,0.7-17.7,0.3
		c-0.2,0-0.4,0.1-0.7,0.3l-0.3-0.5c3.1-6.6,4.9-10,5.5-10c0,0.3-0.1,0.7-0.4,1.2l0,0.2l0.5,0c1.2-3,2.3-4.5,3.1-4.5
		c3.7-0.3-0.5-0.6,7.4-1.8c0.3,0.1,0.5,0.2,0.7,0.2c3.1-0.6,7.4-1.3,13-2l0-0.5l-3,0.3l0-0.5c0.4,0,0.6-0.1,0.9-0.3l0,0.3
		c0.2,0,0.4-0.1,0.7-0.3c0.5,0,0.9,0,1.2,0.1c1-0.3,1.9-0.4,2.5-0.5l1.8-0.2c0.4-0.3,0.7-0.5,0.6-0.8l0-0.2c-0.5,0-1,0-1.6-0.1
		c0-0.3,0.1-0.4,0.4-0.5l3.4-0.3l1.6-0.4c0,0.2,0.1,0.2,0.2,0.2c0.2,0,0.4-0.1,0.7-0.3c0.1,0,0.2,0,0.3,0c-0.2,0.4-0.4,1.1-0.7,1.9
		l-0.4,0c0-0.3-0.1-0.6-0.3-0.8l-0.2,0c-4.2,11.6-6,17-9.9,26c-0.7,2.3-1.3,3.6-1.8,3.8c0,0.3,0.2,0.4,0.4,0.4
		c0.1,1.1-0.2,2.2-0.8,3.3c-1.8,5.1-3,8-3.6,8.5l0.4,2.4c0,0.3-0.1,0.4-0.4,0.4l-0.4,0c-0.1-0.7-0.3-1-0.7-0.9l-0.2,0
		c-0.5,0.9-1,1.8-1.2,3l0.4,0c0.6-0.4,0.8-0.8,0.8-1.3l0.8-0.1l0.5,0.2c-0.4,0.6-0.6,1.1-0.5,1.5l0.2,0.4l-0.5,1.3l0,0.2
		c0.5,0,1,0.1,1.6,0.4c0.4,0,0.8-0.2,1.3-0.5c0.5,0,2.3-0.1,5.4-0.1l1.6-0.5c1.9,0,2.2,0,3.8-0.1l0.7-0.1l0.4-0.2l0,0.2
		c1.7-0.1,1.8,0,3.2,0.1l0,0.2l-0.9,0.1l0,0.4c0.3,0,0.5-0.1,0.8-0.3c0.2,0,0.4,0.1,0.4,0.4c-0.4,0-0.8,0.1-1.3,0.3l-0.4-0.1
		c-0.7,0.2-0.5,0.2-1,0.3l-0.7-0.1c0,0.1,0,0.2-0.2,0.2c0,0.3,0.2,0.4,0.4,0.4l0.7-0.1l3.5-0.3l1.3-0.3c0,0.1,0.1,0.2,0.2,0.2
		l0.6-0.2l1.2-0.1c0.9-0.1,0.9-0.1,2.9-0.5c0-0.1,0-0.2,0.1-0.2l0,0.2c3.3-0.6,3.5-0.6,4-0.8l0,0.1c0.8-0.2,0.4-0.1,0.6-0.3
		c0,0.1,0.1,0.2,0.1,0.2l0.6,0l0-0.4l-1.2,0l0,0c0,0-0.1,0-0.1,0h-0.2v0c-0.8,0.2-0.8,0-1.3,0.1l-2.9,0.2l0-0.2l1.6-0.2l0.6,0
		l0.3-0.2l0,0.2c2.3-0.2,3.1,0.4,13.8-1.9c0.6,0,0.5-0.5,0.9-1.5c-0.2,0-0.4,0-0.6-0.1c-0.9,0.3-1.3,0.2-3.1,0.4
		c-0.1,0-0.3-0.1-0.3-0.4l0-0.2l1.6,0c0.3,0,0.9-0.1,1.8-0.6C253.4,155.4,253.1,155.5,253.3,155.5L253.3,155.5L253.3,155.5z
		 M174.2,156.7l-0.8,0.1c0-0.3,0.4-1.5,1.2-3.4l0.5,0C175.2,153.8,174.8,154.9,174.2,156.7z M175.1,153.1l0-0.2
		c0-0.3,0.1-0.4,0.5-0.5l0,0.2C175.6,152.9,175.5,153,175.1,153.1z M185.1,160.8l0,0.2l-1.3,0.1l0-0.2L185.1,160.8z M183.6,160.7
		c0,0.3-0.4,0.5-1.2,0.8l-1.5-0.1l-0.5,0l0-0.5L183.6,160.7z M193.8,114L193,114l0-0.3c0-0.3,0.1-0.4,0.4-0.5l0.3,0l0.5,0.2
		C194.3,113.8,194.1,113.9,193.8,114z M205.3,111.7l0.2,0l0,0.5l-0.7,0.1C204.8,112,205,111.8,205.3,111.7L205.3,111.7z
		 M202.4,112.7l-1.1-0.1l0-0.2c1.5-0.1,2-0.3,2.9-0.5c0,0.2,0.2,0.2,0.5,0.2l0,0.5l-0.4,0c-0.4,0-0.7,0-0.9-0.2
		C203,112.6,202.7,112.7,202.4,112.7z M203.8,116.9l0-0.2l1.8-0.2l0,0.2L203.8,116.9z M205.8,115.3l0-0.3l0.9-0.1l0,0.3L205.8,115.3
		z M206,112.1l-0.2,0l0.2-0.5l2.1-0.2l0,0.3C207.5,111.8,206.8,111.9,206,112.1z M207,116.6l0-0.5l0.9-0.1c0.3,0,0.5,0.1,0.5,0.4
		L207,116.6L207,116.6z M212.5,109.2l-1.2,0.3l-0.2,0c-0.5,0-1.3,0-2.1,0C210.5,109.3,212,109.2,212.5,109.2L212.5,109.2z
		 M211.2,114.3l0,0.2l-1.6,0.1l0-0.2C209.7,114.4,211.2,114.3,211.2,114.3z M213.8,115.5c0-0.2-0.3-0.3-0.9-0.4l-1.6,0.4l-1.2,0
		c-0.3-0.2-0.4-0.3-0.4-0.4l1.4,0.1l3.2-0.5l1.6,0.1l0,0.3C215.1,115.2,214.4,115.3,213.8,115.5L213.8,115.5z M230.2,111.3
		c0.2,0,0.3,0,0.4,0c0.6-0.5,1.2-1,1.9-1.3c-0.6,2.5-1.5,4.4-2.7,5.6l-0.9-0.5C229.6,113.2,230.1,111.9,230.2,111.3z M227.5,116
		l0.2,0c-0.3,0.6-0.6,0.9-0.8,0.9l0-0.6C227,116.3,227.2,116.2,227.5,116L227.5,116z M225.7,120.3c0.4-1.7,0.9-2.7,1.2-3l0,0.2
		c-0.2,1.6-0.6,2.5-1,2.5l0.1,1c-0.4,0.5-0.6,1-0.5,1.3l-0.2,0l-0.1-1.4C225.3,120.9,225.5,120.7,225.7,120.3z M225,122.6
		c0,0.2-0.1,0.8-0.5,1.7l-0.2,0l0-0.6C224.5,123,224.8,122.6,225,122.6L225,122.6L225,122.6z M212,160.2l0-0.2l0.4,0l0,0.6
		C212.2,160.7,212.1,160.5,212,160.2L212,160.2z M230.5,160.7c0-0.1-0.1-0.2-0.2-0.2l-1,0.1l0-0.2h0.1l2.5-0.2l0,0.2
		C231.1,160.4,230.7,160.6,230.5,160.7z M229.3,160.2c0.1,0,0,0.1,0,0.1C229.3,160.3,229.2,160.3,229.3,160.2z M229.4,157.3
		l-1.4,0.1l0-0.2l1.3-0.1l1.1-0.3c0,0.1,0.1,0.2,0.2,0.2c1.3-0.2,1.2-0.3,1.8-0.3c0.2,0,0.3,0.1,0.4,0.4L229.4,157.3L229.4,157.3z
		 M234.3,156.9c-0.8-0.1-0.8-0.1-1.4-0.1l0-0.2l1.2-0.1l0,0.2C234,156.7,234.5,156.7,234.3,156.9z M234.4,156.7l0-0.2l0.7-0.1l0,0.2
		L234.4,156.7z M235.9,156.5l0-0.2c0.1,0,0.3-0.1,0.5-0.3c0.3,0,0.5,0.2,0.5,0.4L235.9,156.5L235.9,156.5z M237.8,156.3l0-0.2
		l0.8-0.1l0,0.2L237.8,156.3z M238.9,156.2c0-0.2,0.1-0.4,0.3-0.4l0.3,0.4c0-0.1,0-0.2,0.1-0.2l0.2,0.4L238.9,156.2L238.9,156.2z
		 M254.7,154.3L254.7,154.3L254.7,154.3C254.7,154.3,254.7,154.3,254.7,154.3L254.7,154.3z M255,154.1c0.1-0.1,0.2-0.2-0.1-0.2
		c-0.1,0.2,0.2,0.2-0.2,0.2l0,0.1C254.8,154.3,254.9,154.2,255,154.1l-0.3,0.2v0l-0.3,0.4l0.7-0.2h0.1l0-0.4L255,154.1z M256.2,155
		l-0.1,0l0,0.4l0.9-0.1C257,155.1,256.4,155,256.2,155z"/>
</g>
</svg>
