<svg xmlns="http://www.w3.org/2000/svg" viewBox="0 0 300 300" width="300" height="300">
	<style>
		tspan { white-space:pre }
		.shp0 { fill: #ed1e24 } 
		.shp1 { fill: #3c8ace } 
	</style>
	<g id="Folder 1 copy copy copy">
		<g id="Folder 1 copy copy copy">
			<path id="path22 copy copy copy" class="shp0" d="M150.1,160.75l-5.37,-7.81c-1.76,-2.56 -3.49,-5.41 -5.13,-8.26c-3.01,-5.24 -6.62,-11.89 -8.28,-18.49c-3.03,-12.09 4.44,-19.59 11.03,-27.52c1,-1.21 2.16,-2.34 3.24,-3.47c6.9,-7.27 16.35,-15.97 23.72,-23.14c7.48,-7.32 11.99,-15.41 12.86,-27.25c0.47,-6.18 -0.72,-19.42 -5.09,-21.81c1.3,9.28 1.6,15.58 -2.16,24.91c-4.35,10.83 -11.44,17.31 -19.66,23.71c-6.72,5.23 -17.72,14.67 -23.52,20.13c-3.75,3.56 -10.1,9.93 -12.72,16.14c-3.89,9.19 -0.03,15.2 4.13,21.62c1.98,3.06 4,5.67 6.12,8.41c2.47,3.2 4.66,5.41 6.64,7.91c2.08,2.65 4.66,5.09 6.93,7.62c1.42,1.56 5.86,6.32 7.26,7.3" />
			<path id="path24 copy copy copy" class="shp1" d="M229.82,240.39c2.63,4.25 0.03,6.05 -3.57,7.73c-15.99,7.49 -70.08,8.89 -86.97,9.14c-17.22,0.25 -34.57,-0.43 -51.21,-3.35c-2.69,-0.46 -14.54,-2.35 -15.1,-5.5c-0.36,-1.98 1.73,-3.47 2.81,-4.14c3.83,-2.38 10.84,-4.02 15.66,-4.9c1.39,-0.25 4.76,-0.61 5.81,-1.04c-8.06,-1.19 -33.59,3.13 -39.18,11.07c-3.52,5 2.38,7.32 6.31,8.6c14.72,4.8 45.35,5.78 61.5,6.01c24.15,0.33 82.26,0.09 103.55,-14.55c1.24,-0.84 3.69,-2.63 3.94,-4.36c0.3,-2.15 -2.25,-4.18 -3.56,-4.73" />
			<path id="path26 copy copy copy" class="shp0" d="M160.14,170.58c2.57,-0.88 10.14,-7.09 12.18,-9.17c2.68,-2.78 7.23,-7.92 7.63,-13.86c0.35,-5.4 -3.37,-12.42 -5.65,-15.86c-7.18,-10.89 -12.93,-17.13 -3.2,-29.21c3.25,-4.02 6.78,-7.17 10.9,-10.58c4.94,-4.08 13.01,-9.65 18.8,-13.28l6.59,-4.24c-3.49,0.46 -12.73,4.16 -16.37,5.52c-4.9,1.85 -10.54,4.65 -14.82,7.12c-14.68,8.49 -29.12,21.77 -23.21,40.13c4,12.42 15.63,19.87 14.8,29.17c-0.51,5.7 -5.99,11.41 -7.64,14.26" />
			<path id="path28 copy copy copy" class="shp1" d="M190.79,231.33c-4.51,-1.71 -7.9,-3.69 -11.94,-6.08c-2.34,-1.4 -1.44,-1.28 -4.43,-0.54c-12.21,3.01 -32.02,3.05 -44.84,2.66c-3.3,-0.1 -12.57,-0.39 -14.45,-3.5c-1.19,-1.95 0.43,-3.38 1.06,-4.5c-8.4,1.69 -16.96,8.68 -5.28,14.49c13.15,6.53 40.79,6.6 55.19,4.04c4.1,-0.73 22.72,-4.97 24.68,-6.57z" />
			<path id="path30 copy copy copy" class="shp1" d="M194.68,203.91c-3.47,-0.87 -6.59,-3.04 -8.73,-4.91c-1.86,-1.59 -1.22,-1.2 -5.22,-0.53c-14.38,2.4 -57.18,6.58 -69.43,1.53c-1.59,-0.66 -3.42,-1.64 -3.53,-3.51c-0.13,-2.22 1.75,-3.42 2.54,-4.63c-9.86,1.22 -19.31,10.72 -6.12,15.26c14.88,5.1 46.98,5.27 62.8,3.27c5.21,-0.67 23.69,-4.26 27.68,-6.48z" />
			<path id="path32 copy copy copy" class="shp1" d="M204.58,171.61c-1.87,0.08 -4.38,0.66 -6.27,0.96c-2.19,0.33 -4.28,0.65 -6.48,0.94c-13.17,1.85 -27.78,3.33 -40.97,4.1c-10.3,0.6 -49.13,1.89 -54.92,-3.52c-0.43,-2.43 2.35,-3.96 4.06,-4.89c6.66,-3.57 13.74,-4.78 20.3,-6.83c-9.06,-0.85 -31.84,5.67 -40.08,10.82c-8.91,5.55 5.94,7.77 11.49,8.54c32.51,4.53 62.91,2.1 95.06,-2.47c5.24,-0.74 6.36,-0.44 9.94,-2.71c2.46,-1.57 5.69,-3.22 7.88,-4.95" />
			<path id="path34 copy copy copy" class="shp1" d="M92.22,269.51c9.08,3.81 28.84,6.13 39.1,6.96c14.42,1.18 30.25,0.91 44.67,-0.11c18.66,-1.32 40.8,-3.46 57.22,-11.8c3.9,-1.99 10.94,-6.75 11.62,-11.32c-1.17,0.53 -2.19,1.6 -3.29,2.34c-28.96,19.94 -95.16,18.04 -129.33,15.6l-20,-1.68" />
			<path id="path36 copy copy copy" class="shp1" d="M211.14,163.83c7.1,-2.22 15.17,-0.74 19.66,3.25c4.86,4.33 4.91,12.54 1.41,18.91c-4.69,8.49 -14.53,16.06 -22.67,21.17c-1.4,0.88 -2.75,1.54 -3.96,2.44c5.25,-0.55 17.71,-6.18 22.45,-9.11c6.05,-3.74 12.8,-9.19 15.59,-16.26c3.98,-10.03 -1.81,-17.69 -7.97,-21.32c-3.54,-2.07 -7.82,-3.31 -12.8,-3.11c-3.81,0.16 -9.99,1.67 -11.71,4.02" />
		</g>
	</g>
</svg>