<?xml version="1.0" encoding="utf-8"?>
<!-- Generator: Adobe Illustrator 22.0.1, SVG Export Plug-In . SVG Version: 6.00 Build 0)  -->
<svg version="1.1" id="Layer_1" xmlns="http://www.w3.org/2000/svg" xmlns:xlink="http://www.w3.org/1999/xlink" x="0px" y="0px"
	 viewBox="0 0 300 300" style="enable-background:new 0 0 300 300;" xml:space="preserve">
<style type="text/css">
	.st0{fill:#6BA0AB;}
</style>
<g>
	<path class="st0" d="M96.2,142.3L96.2,142.3l-2,7.1L96.2,142.3z M106.5,157.7l-2.2,0L106.5,157.7z M105.9,168.3L105.9,168.3
		l-13.3,0L105.9,168.3z M108.7,157.7l-2.2,0L108.7,157.7z M107.1,167.4l2.3-8.8L107.1,167.4L107.1,167.4L107.1,167.4z M155.9,126.9
		l-4.3,20.2L155.9,126.9z M144.8,126.9l-3.3,15.1L144.8,126.9L144.8,126.9z"/>
	<path class="st0" d="M155.1,126h-9.2c-0.5,0-1,0.4-1.1,0.9l-3.3,15.1l-3.3,15.1c-0.1,0.5-0.6,0.9-1.1,0.9h-6.5
		c-6.4,0-5.7-4.5-4.4-10.6l0-0.2l0.1-0.8c0,0,0-0.1,0-0.1l0.3-1.6l0.3-1.7c0.1-0.5,0.2-1.2,0.3-1.7l1.5-7.3l1.5-7.3
		c0.1-0.5-0.2-0.9-0.7-0.9h-9.4c-0.5,0-1,0.4-1.1,0.9l-2,9.6l-2,9.6c0,0,0,0,0,0l-0.2,0.9c-2.3,10.7-1.7,20.9,11,21.2
		c0.2,0,0.4,0,0.4,0h19.9c0.5,0,1-0.4,1.1-0.9l4.3-20.2l4.3-20.2C156,126.4,155.6,126,155.1,126L155.1,126z M191.8,158.1
		c0.5,0,0.8,0.4,0.7,0.9l-0.9,4.4 M190.8,167.7l0.9-4.4L190.8,167.7L190.8,167.7z M189.7,168.7L189.7,168.7
		c-2.7,0-10.8,0.1-16.9,0.1C180.1,168.7,189.7,168.7,189.7,168.7z M167.2,152.5c0-0.5,0.5-1.3,1-1.3l-1.2,0
		C166.6,156.4,167.2,152.5,167.2,152.5z"/>
	<path class="st0" d="M173.5,168.7c-0.1,0-0.1,0-0.2,0C173.4,168.7,173.5,168.7,173.5,168.7z M191.8,158.1c0.5,0,0.8,0.4,0.7,0.9
		l-0.9,4.4l-0.1,0.7 M177.9,168.7L177.9,168.7L177.9,168.7z M175.6,168.7h-0.1H175.6z M175,168.7c-0.1,0-0.1,0-0.2,0
		C174.8,168.7,174.9,168.7,175,168.7z M174.3,168.7h-0.2H174.3z M175.5,168.7l-0.6,0L175.5,168.7z M189.7,168.7
		c-2,0-6.9,0.1-11.8,0.1C182.8,168.7,187.7,168.7,189.7,168.7z M190.8,167.7l0.7-3.7L190.8,167.7L190.8,167.7L190.8,167.7z
		 M174.7,168.7h-0.5H174.7z M173.4,168.7h-0.7H173.4z M174.1,168.7h-0.5H174.1z M39.5,152.6l1.4-6.3l-1.6,7.2l-1.6,7.4l1.4-6.5
		C39.2,153.9,39.4,153.1,39.5,152.6L39.5,152.6z M56.6,125.9H46.5c-0.5,0-1,0.4-1.1,0.9l-1,4.2l-1,4.2c-0.1,0.5,0.2,0.9,0.7,0.9
		h10.2c0.5,0,1-0.4,1.1-0.9l0.9-4.2l0.9-4.2v0C57.5,126.3,57.1,125.9,56.6,125.9L56.6,125.9z M54.4,139.9L54.4,139.9l-3,13.7
		L54.4,139.9L54.4,139.9z M25.1,185.3c0,0,5.1,0.1,8.3,0.1C31,185.4,26.9,185.3,25.1,185.3L25.1,185.3
		C25.1,185.3,25.1,185.3,25.1,185.3z M42.4,139.9l-1.4,6.3L42.4,139.9z"/>
	<path class="st0" d="M53.7,139H43.5c-0.5,0-1,0.4-1.1,0.9l-1.4,6.3l-1.4,6.3c-0.1,0.5-0.3,1.3-0.4,1.8l-1.4,6.5l-1.4,6.5
		c-0.1,0.5-0.3,1.3-0.5,1.8c0,0-1.9,5.7-5.1,5.6c-0.1,0-0.3,0-0.4,0c-1.5,0-2.8-0.1-2.8-0.1h0c-0.5,0-1,0.4-1.1,0.9l-1.1,4.4
		l-1.1,4.4c-0.1,0.5,0.2,0.9,0.7,0.9c1.8,0,5.9,0.1,8.3,0.1c8,0,12.2-4.4,14.9-17.2l3.2-14.6l3-13.7C54.5,139.4,54.2,139,53.7,139
		L53.7,139z M198.3,168.2c-0.5,0-0.8-0.4-0.7-0.9l7.7-35.9 M208.9,167.3L212,152L208.9,167.3z"/>
	<path class="st0" d="M197.7,167.8c-0.1-0.2,0-0.9,0.1-1.4l3.6-17l-3.8,17.9c-0.1,0.5,0.2,0.9,0.7,0.9h0.9
		C198.7,168.2,197.7,168,197.7,167.8z M208.3,168c-0.3,0.1-0.9,0.2-1.4,0.2h0.9c0.5,0,1-0.4,1.1-0.9l0.2-0.9
		C209,166.9,208.6,167.9,208.3,168L208.3,168z M210.5,159.7l1.4-6.8c0,0,0,0,0,0L210.5,159.7L210.5,159.7z M240.7,133.8l0.4,1.7
		c0.1,0.5-0.2,0.9-0.7,0.9 M209.1,166.4l1.4-6.7L209.1,166.4z M240.3,132.1l0.4,1.8L240.3,132.1z M211.9,152.9
		c0.1-0.5,0.3-1.3,0.4-1.8l1.5-6.8L212,152L211.9,152.9z M205.4,130.9c-0.1,0.5-0.2,1.1-0.3,1.5l-3.6,17l3.8-17.9L205.4,130.9z"/>
	<path class="st0" d="M241.1,135.6l-0.4-1.7l-0.4-1.8l-0.2-0.9c-0.8-3.2-3.3-5.1-8.5-5.1l-8.2,0l-7.6,0h-8.5c-0.5,0-1,0.4-1.1,0.9
		l-0.4,1.8l-0.4,2.1l-0.1,0.6l-3.8,17.9l-3.6,17c-0.1,0.5-0.1,1.1-0.1,1.4c0.1,0.3,1,0.5,1.6,0.5h7.7c0.5,0,1.2-0.1,1.4-0.2
		c0.3-0.1,0.7-1.1,0.8-1.6l1.4-6.7l1.4-6.7c0,0,0,0,0,0l0.2-0.9l1.7-7.7l1.5-6.8c0.1-0.5,0.6-0.9,1.1-0.9l24.1,0
		C240.9,136.5,241.2,136.1,241.1,135.6L241.1,135.6z"/>
	<path class="st0" d="M272.2,119.8c-0.5,0-1.3,0-1.9,0h-7.7c-0.5,0-1.2,0.3-1.5,0.8l-17.1,25c-0.3,0.4-0.6,0.4-0.7-0.1l-1.3-5.5
		c-0.1-0.5-0.6-0.9-1.1-0.9h-11c-0.5,0-0.8,0.4-0.7,0.9l4.9,17.2c0.1,0.5,0.2,1.3,0,1.8l-2.1,8.3c-0.1,0.5,0.2,0.9,0.7,0.9h10.9
		c0.5,0,1-0.4,1.2-0.9l2.1-8.3c0.1-0.5,0.5-1.2,0.8-1.6l27.7-36.8c0.3-0.4,0.1-0.7-0.4-0.7L272.2,119.8L272.2,119.8z M185,141.4
		L185,141.4c-0.1,0.5-0.6,1-1.1,1h-13.9c-0.5,0-0.7-0.3-0.7-0.7c0,0,0,0,0,0c0,0,0,0,0,0c0,0,0,0,0,0c0,0,0-0.1,0.1-0.2
		c1.3-3.5,4-5.9,9.1-5.9C184.2,135.5,185.3,138.3,185,141.4L185,141.4z M180.9,125.4c-17.9,0-22.1,10.8-24.5,21.8
		c-2.4,11.2-2.2,21.6,16.3,21.6h0.7c0.1,0,0.1,0,0.2,0h1.2c0.1,0,0.1,0,0.2,0l0.6,0h0.1c0.7,0,1.5,0,2.2,0h0c4.9,0,9.8-0.1,11.8-0.1
		c0.5,0,1-0.4,1.1-0.9l0.7-3.7l0.1-0.7l0.9-4.4c0.1-0.5-0.2-0.9-0.7-0.9h-16.6c-6.6,0-8.6-1.8-7.9-6.9h26.6l0,0c0,0,0,0,0,0
		c0.4,0,0.8-0.3,1-0.7c0-0.1,0.1-0.2,0.1-0.2l0,0C198.9,135.4,197.8,125.4,180.9,125.4L180.9,125.4z M96.4,141.4l-0.3,0.9l0,0
		l-2,7.1l-2,7.1c-0.1,0.5-0.7,0.9-1.2,0.9H80.3c-8.1,0-10-6.3-8.1-15.6c2-9.5,5.8-15.4,13.7-16C96.9,124.9,99,132.6,96.4,141.4
		L96.4,141.4z M103.7,156.8c0,0,5-12.2,6.1-19.2c1.6-9.4-3.2-23-21.3-23c-18.1,0-25.9,13-28.9,27.2c-3,14.3,0.9,26.8,18.9,26.7
		l14.2-0.1l13.3,0c0.5,0,1-0.4,1.2-0.9l2.3-8.8c0.1-0.5-0.2-0.9-0.7-0.9l-2.2,0l-2.2,0c-0.4,0-0.7-0.3-0.6-0.7
		C103.6,157,103.7,156.9,103.7,156.8L103.7,156.8L103.7,156.8L103.7,156.8z"/>
	<path class="st0" d="M193.2,148.7c0,0.3-0.3,0.6-0.6,0.6c-0.3,0-0.6-0.3-0.6-0.6c0-0.3,0.3-0.6,0.6-0.6
		C192.9,148.1,193.2,148.4,193.2,148.7z"/>
</g>
</svg>
