<?xml version="1.0" encoding="utf-8"?>
<!-- Generator: Adobe Illustrator 22.0.1, SVG Export Plug-In . SVG Version: 6.00 Build 0)  -->
<svg version="1.1" id="Layer_1" xmlns="http://www.w3.org/2000/svg" xmlns:xlink="http://www.w3.org/1999/xlink" x="0px" y="0px"
	 viewBox="0 0 300 300" style="enable-background:new 0 0 300 300;" xml:space="preserve">
<style type="text/css">
	.st0{fill:#8E714E;}
	.st1{fill:#442D22;}
	.st2{fill:#FFFFFF;}
	.st3{fill:#A6A385;}
	.st4{fill:#499D4A;}
	.st5{fill:#58AA50;}
</style>
<g>
	<path class="st0" d="M255.5,144c-0.2,0-0.4,0.5-0.4,0.8c0,1.8-0.1,6.4-0.1,9.6c0,0.1,0.1,0.3,0.3,0.3c0.7,0,2.2,0.1,3.6,0.1
		c1.9,0,3-0.3,3.6-0.5c1.6-0.8,2.3-2.5,2.3-4.4c0-4.3-3-5.9-7.4-5.9C257,143.9,256.1,143.9,255.5,144L255.5,144z M266.8,163.7
		c0-4.4-3.2-6.8-9-6.8c-0.3,0-2.1,0-2.6,0c-0.1,0-0.3,0.1-0.3,0.3c0,3.1,0,8.1,0.1,10c0.1,0.8,0.7,2,1.5,2.4
		c0.8,0.4,2.6,0.5,3.8,0.5C263.8,170.1,266.8,168.2,266.8,163.7L266.8,163.7z M246.5,141.6c0.4,0,1.8,0.1,5.2,0.1
		c3.2,0,5.8-0.1,8.9-0.1c3.8,0,9.1,1.4,9.1,7.1c0,2.8-2,5.1-4.6,6.2c-0.1,0-0.1,0.1,0,0.2c3.7,0.9,7,3.2,7,7.5
		c0,4.2-2.6,6.9-6.5,8.6c-2.3,1-5.2,1.4-8.2,1.4c-2.2,0-8.3-0.3-11.6-0.2c-0.4-0.1,0.3-1.7,0.6-2c0.8,0,1.4-0.1,2.2-0.4
		c1.2-0.3,1.3-0.7,1.5-2.5c0.1-1.5,0.1-7,0.1-10.9c0-5.3,0-8.9,0-10.7c0-1.4-0.5-1.8-1.5-2.1c-0.7-0.1-2-0.3-3-0.4
		C245.5,143.2,246.2,141.7,246.5,141.6L246.5,141.6z M221.1,169c1.1,0.8,3.1,1.2,5,1.2c2.4,0,4.8-0.4,7-2.5c2.3-2.1,4-5.4,4-10.6
		c0-5-1.9-9-5.8-11.4c-2.2-1.4-5-1.9-8.3-1.9c-1,0-1.9,0-2.5,0.3c-0.1,0.1-0.4,0.5-0.4,0.7c-0.1,0.9-0.1,7.7-0.1,11.6
		c0,4.1,0,9.8,0.1,10.5C220.1,167.5,220.4,168.5,221.1,169L221.1,169z M211.1,141.6c0.8,0,4.1,0.1,5.6,0.1c2.8,0,4.8-0.1,10-0.1
		c4.4,0,8.1,1.2,10.7,3.4c3.2,2.8,4.9,6.6,4.9,11.3c0,6.7-3,10.5-6.1,12.7c-3,2.2-7,3.6-12.6,3.6c-3,0-8.1-0.1-12.4-0.1h0
		c-0.2-0.4,0.4-1.9,0.7-2c1.1-0.1,1.5-0.2,2-0.4c0.9-0.4,1.1-0.8,1.2-2.5c0.1-3,0.1-6.7,0.1-10.8c0-3,0-8.7,0-10.6
		c-0.1-1.5-0.8-1.9-2.1-2.2c-0.7-0.1-1.5-0.3-2.8-0.4C210.1,143.2,210.9,141.8,211.1,141.6L211.1,141.6z"/>
	<path class="st1" d="M157.8,170.7c-1.1-0.1-1.9-0.3-2.9-0.7c-0.1-0.1-0.4-0.5-0.4-0.7c-0.1-1.5-0.1-5.9-0.1-8.9
		c0-2.4-0.4-4.4-1.4-5.9c-1.2-1.7-2.9-2.6-5.1-2.6c-1.9,0-4.5,1.3-6.7,3.2c0,0-0.4,0.4-0.4-0.1c0-0.5,0.1-1.5,0.1-2.1
		c0-0.6-0.3-0.9-0.3-0.9c-1.4,0.7-5.4,1.6-6.8,1.8c-1.1,0.2-1.3,1.2-0.2,1.6h0c1.2,0.4,2,0.7,2.6,1.1c0.4,0.4,0.4,0.8,0.4,1.2
		c0,3.3,0,8.4-0.1,11.1c0,1.1-0.4,1.5-1.1,1.7l0.1,0c-0.6,0.1-1.1,0.3-1.8,0.4c-0.3,0.3-0.3,1.7,0,2c0.5,0,3-0.1,5.2-0.1
		c2.9,0,4.4,0.1,5.2,0.1c0.3-0.4,0.4-1.7,0.2-2c-0.8,0-1.5-0.1-2-0.3c-0.8-0.2-1-0.6-1.1-1.5c-0.1-2.3-0.1-7.3-0.1-10.6
		c0-0.9,0.3-1.4,0.5-1.6c1-0.9,2.6-1.5,4.1-1.5c1.4,0,2.3,0.4,3,1c1,0.8,1.3,1.9,1.4,2.8c0.2,1.9,0.1,5.6,0.1,8.9
		c0,1.8-0.1,2.2-0.8,2.4c-0.3,0.1-1.1,0.3-2,0.4c-0.3,0.3-0.2,1.7,0,2c1.3,0,2.8-0.1,5-0.1c2.7,0,4.5,0.1,5.2,0.1
		C157.9,172.3,158,171,157.8,170.7L157.8,170.7z M170,153.9c-2.3,0-3.8,1.8-3.8,4.6c0,2.9,1.3,6.2,4.9,6.2c0.6,0,1.8-0.3,2.3-0.9
		c0.8-0.8,1.4-2.4,1.4-4.1C174.8,156.1,173,153.9,170,153.9L170,153.9z M169.7,173.3c-0.9,0-1.5,0.3-1.9,0.5
		c-1.8,1.2-2.7,2.3-2.7,3.7c0,1.3,0.5,2.3,1.5,3.2c1.3,1.1,3,1.6,5.3,1.6c4.5,0,6.5-2.4,6.5-4.8c0-1.7-0.8-2.8-2.6-3.4
		C174.6,173.6,172.4,173.3,169.7,173.3L169.7,173.3z M170,184.8c-2.7,0-4.6-0.6-6.3-1.8c-1.6-1.2-2.3-3.1-2.3-4.4
		c0-0.4,0.1-1.3,0.9-2.2c0.5-0.5,1.5-1.5,4.1-3.3c0.1,0,0.1-0.1,0.1-0.2c0-0.1-0.1-0.2-0.2-0.2c-2.1-0.8-2.7-2.1-2.9-2.8v-0.1
		c0-0.3-0.1-0.5,0.3-0.8c0.3-0.2,0.7-0.5,1.2-0.8c0.7-0.4,1.5-0.9,2-1.3c0.1-0.1,0.1-0.2,0.1-0.3c0-0.1-0.1-0.2-0.2-0.2
		c-3.1-1-4.6-3.3-4.6-6.7c0-2.2,1-4.3,2.8-5.5c1.2-1,4.3-2.2,6.3-2.2h0.1c2.1,0,3.2,0.5,4.8,1.1c0.9,0.3,1.7,0.4,2.9,0.4
		c1.7,0,2.5-0.5,3.1-1.1c0,0.1,0.1,0.3,0.2,0.9c0,0.6-0.1,1.4-0.6,2c-0.4,0.5-1.1,0.8-1.9,0.8h-0.2c-0.8-0.1-1.1-0.2-1.1-0.2
		l-0.2,0.1c0,0.1,0,0.2,0,0.3l0,0.1c0.1,0.4,0.3,1.6,0.3,1.9c0,3.6-1.5,5.2-3,6.4c-1.5,1.1-3.2,1.8-5.2,2c0,0-0.2,0-0.6,0
		c-0.2,0-0.5,0-0.6,0h0c-0.4,0.1-1.2,0.5-1.2,1.3c0,0.7,0.4,1.5,2.3,1.6c0.4,0,0.8,0,1.2,0.1c2.5,0.2,5.6,0.4,7.1,0.9
		c2,0.7,3.3,2.6,3.3,4.7c0,3.3-2.3,6.3-6.2,8.2C174,184.3,172.1,184.8,170,184.8L170,184.8z M195.1,154.1c-0.9,0-1.8,0.2-2.4,0.7
		c-1.7,1.1-2.6,3.2-2.6,6.3c0,5.8,2.9,9.8,7,9.8c1.2,0,2.2-0.4,3-1.1c1.3-1.1,1.9-3.2,1.9-6.1C202.1,157.9,199.3,154.1,195.1,154.1
		L195.1,154.1z M195.9,172.9c-7.5,0-10.2-5.5-10.2-10.7c0-3.6,1.5-6.4,4.4-8.4c2.1-1.3,4.5-2,6.7-2c5.7,0,9.7,4.1,9.7,10
		c0,4-1.6,7.2-4.6,9.1C200.5,172,198,172.9,195.9,172.9L195.9,172.9L195.9,172.9z M117.4,154.1c-0.9,0-1.8,0.2-2.4,0.7
		c-1.7,1.1-2.6,3.2-2.6,6.3c0,5.8,2.9,9.8,7,9.8c1.2,0,2.2-0.4,3-1.1c1.3-1.1,1.9-3.2,1.9-6.1C124.5,157.9,121.6,154.1,117.4,154.1
		L117.4,154.1z M118.2,172.9c-7.5,0-10.2-5.5-10.2-10.7c0-3.6,1.5-6.4,4.4-8.4c2.1-1.3,4.5-2,6.7-2c5.7,0,9.7,4.1,9.7,10
		c0,4-1.6,7.2-4.6,9.1C122.8,172,120.3,172.9,118.2,172.9L118.2,172.9z M67.9,172.5c-0.1-0.1-0.2-0.5-0.1-1c0-0.4,0.1-0.6,0.1-0.7
		c0.9-0.1,1.4-0.3,1.9-0.4c0.9-0.2,1.2-0.7,1.3-1.8c0.1-2.6,0.1-7.7,0.1-11.1v-0.1c0-0.4,0-0.9-0.5-1.2c-0.7-0.4-1.5-0.8-2.6-1.1
		c-0.4-0.1-0.7-0.4-0.6-0.6c0-0.3,0.3-0.6,0.8-0.7c1.5-0.1,5.2-1.1,6.7-1.7c0.1,0.1,0.2,0.4,0.2,0.7l0,0.5c0,0.5-0.1,1.1-0.1,1.6
		c0,0.2,0.2,0.3,0.4,0.3c0.1,0,0.2,0,0.3-0.1c2.8-2.2,5.4-3,6.7-3c2.2,0,3.8,1,5.1,3.1c0.1,0.1,0.2,0.2,0.3,0.2c0.1,0,0.2,0,0.3-0.1
		c2.6-2,5.2-3.2,6.9-3.2c4.1,0,6.5,3,6.5,8.2c0,1.5,0,3.3,0,5.1c0,1.5,0,3,0,4c0,0.2,0.3,0.9,0.8,1.1c0.6,0.3,1.5,0.4,2.6,0.6h0
		c0.1,0.3-0.1,1.5-0.3,1.7c-0.3,0-0.7,0-1.1,0c-1.1-0.1-2.2-0.1-3.3-0.1c-2.7,0-4.1,0-5.5,0.1c-0.1-0.4-0.1-1.4,0-1.7
		c0.8-0.1,1.2-0.3,1.7-0.4c0.9-0.3,1.1-0.7,1.1-1.8c0-0.8,0.2-8-0.1-9.7c-0.3-1.8-1.6-3.8-4.5-3.8c-1.1,0-2.8,0.4-4.5,1.7
		c-0.1,0.1-0.2,0.3-0.2,0.4v0c0.2,0.9,0.2,2,0.2,3.6v2.9c0,2,0,3.8,0,5.2c0,1,0.6,1.2,1.1,1.4c0.3,0,0.4,0.1,0.7,0.1
		c0.4,0.1,0.8,0.2,1.4,0.3c0.1,0.2,0.1,0.7,0,1.2c0,0.3-0.1,0.4-0.2,0.4c-1.5,0-3-0.1-5.3-0.1c-0.7,0-1.8,0-2.8,0c-0.8,0-1.5,0-2,0
		c0-0.1-0.1-0.4-0.1-0.9c0-0.4,0.1-0.7,0.2-0.8c0.2,0,0.4-0.1,0.6-0.1c0.5-0.1,1-0.2,1.4-0.3c0.7-0.2,1-0.6,1.1-1.6
		c0.1-2.2,0.3-8.5,0-10.1c-0.5-2.6-2-3.8-4.3-3.8c-1.4,0-3.1,0.7-4.5,1.7c-0.2,0.2-0.4,0.6-0.4,1v2.6c0,3.2,0,7.1,0,8.9
		c0,0.5,0.2,1.1,1.2,1.4c0.2,0,0.6,0.1,1,0.2l0.8,0.1c0.1,0.3,0,1.3-0.1,1.7c-0.4,0-1,0-1.6,0c-0.9,0-2.1-0.1-3.4-0.1
		c-1.5,0-2.6,0-3.5,0.1C68.9,172.5,68.4,172.5,67.9,172.5L67.9,172.5z"/>
	<path class="st2" d="M44.7,183.1l-1.8-0.6c0,0,0.2-9.2-3.1-9.9c-2.2-2.6,0.4-108.3,8.3-0.4c0,0-2.7,1.4-3.2,3.7
		C44.3,178.2,44.7,183.1,44.7,183.1L44.7,183.1z"/>
	<path class="st3" d="M44.7,183.1l-1.8-0.6c0,0,0.2-9.2-3.1-9.9c-2.2-2.6,0.4-108.3,8.3-0.4c0,0-2.7,1.4-3.2,3.7
		C44.3,178.2,44.7,183.1,44.7,183.1L44.7,183.1z"/>
	<path class="st2" d="M45.7,174.2c0,0,15.8-10.4,12.1-32c-3.6-15.7-12-20.9-12.9-22.9c-1-1.4-2-3.9-2-3.9l0.7,43.7
		C43.6,159.2,42.2,172.5,45.7,174.2"/>
	<path class="st4" d="M45.7,174.2c0,0,15.8-10.4,12.1-32c-3.6-15.7-12-20.9-12.9-22.9c-1-1.4-2-3.9-2-3.9l0.7,43.7
		C43.6,159.2,42.2,172.5,45.7,174.2"/>
	<path class="st2" d="M42,174.7c0,0-14.8-10.1-14-28c0.8-17.8,11.3-26.6,13.3-28.2c1.3-1.4,1.4-1.9,1.5-3.3c0.9,2,0.7,29.6,0.9,32.9
		C44.1,160.7,43,172.4,42,174.7z"/>
	<path class="st5" d="M42,174.7c0,0-14.8-10.1-14-28c0.8-17.8,11.3-26.6,13.3-28.2c1.3-1.4,1.4-1.9,1.5-3.3c0.9,2,0.7,29.6,0.9,32.9
		C44.1,160.7,43,172.4,42,174.7z"/>
</g>
</svg>
