<?xml version="1.0" encoding="utf-8"?>
<!-- Generator: Adobe Illustrator 22.0.1, SVG Export Plug-In . SVG Version: 6.00 Build 0)  -->
<svg version="1.1" id="Layer_1" xmlns="http://www.w3.org/2000/svg" xmlns:xlink="http://www.w3.org/1999/xlink" x="0px" y="0px"
	 viewBox="0 0 300 300" style="enable-background:new 0 0 300 300;" xml:space="preserve">
<style type="text/css">
	.st0{fill:none;}
	.st1{fill:#5D87A1;}
	.st2{fill:#F8981D;}
</style>
<g>
	<path class="st0" d="M26.9,64.7h246.1v170.6H26.9V64.7z"/>
	<path class="st1" d="M102.3,202.5h-6.7c-0.2-11.2-0.9-21.8-1.9-31.7h-0.1l-10.1,31.7h-5.1l-10.1-31.7h-0.1
		c-0.7,9.5-1.2,20.1-1.4,31.7h-6.1c0.4-14.2,1.4-27.4,2.9-39.8H72l9.6,29.3h0.1l9.7-29.3h7.9C100.9,177.2,102,190.5,102.3,202.5
		 M131.2,173.1c-2.7,14.7-6.3,25.4-10.7,32.1c-3.5,5.1-7.3,7.7-11.4,7.7c-1.1,0-2.5-0.3-4.1-1v-3.6c0.8,0.1,1.7,0.2,2.8,0.2
		c1.9,0,3.5-0.5,4.7-1.6c1.4-1.3,2.1-2.8,2.1-4.4c0-1.1-0.6-3.4-1.7-6.8l-7.3-22.7h6.5l5.2,17c1.2,3.9,1.7,6.5,1.5,8.1
		c2.9-7.7,4.9-16,6-25.1L131.2,173.1L131.2,173.1L131.2,173.1z"/>
	<path class="st2" d="M219.9,202.5h-18.9v-39.8h6.4v34.9h12.6V202.5z M196,203.4l-7.3-3.6c0.6-0.5,1.3-1.1,1.8-1.8
		c3.1-3.7,4.7-9.1,4.7-16.2c0-13.2-5.2-19.8-15.5-19.8c-5.1,0-9,1.7-11.9,5c-3.1,3.7-4.7,9-4.7,16.2c0,7,1.4,12.1,4.1,15.4
		c2.5,3,6.3,4.4,11.4,4.4c1.9,0,3.6-0.2,5.2-0.7l9.5,5.5L196,203.4z M172.3,194.5c-1.6-2.6-2.4-6.8-2.4-12.5c0-10,3-15,9.1-15
		c3.2,0,5.5,1.2,7,3.6c1.6,2.6,2.4,6.7,2.4,12.4c0,10.1-3,15.2-9.1,15.2C176.1,198.1,173.8,196.9,172.3,194.5 M160.4,191.4
		c0,3.4-1.2,6.1-3.7,8.3c-2.5,2.2-5.8,3.2-10,3.2c-3.9,0-7.7-1.2-11.3-3.7l1.7-3.4c3.1,1.6,6,2.4,8.5,2.4c2.4,0,4.3-0.5,5.6-1.6
		c1.4-1.1,2.2-2.5,2.2-4.4c0-2.4-1.6-4.4-4.7-6.1c-2.8-1.5-8.4-4.7-8.4-4.7c-3-2.2-4.5-4.6-4.5-8.5c0-3.2,1.1-5.8,3.4-7.8
		c2.3-2,5.2-3,8.8-3c3.7,0,7.1,1,10.1,3l-1.5,3.4c-2.6-1.1-5.1-1.6-7.7-1.6c-2,0-3.6,0.5-4.7,1.5c-1.1,1-1.8,2.2-1.8,3.8
		c0,2.4,1.7,4.4,4.8,6.1c2.8,1.5,8.5,4.8,8.5,4.8C158.8,185.2,160.4,187.6,160.4,191.4"/>
	<path class="st1" d="M227.9,149.3c-3.9-0.1-6.8,0.3-9.3,1.3c-0.7,0.3-1.9,0.3-2,1.2c0.4,0.4,0.4,1,0.8,1.5c0.6,1,1.6,2.3,2.5,2.9
		c1,0.8,2,1.5,3.1,2.2c1.9,1.2,4,1.8,5.8,3c1.1,0.7,2.1,1.5,3.2,2.3c0.5,0.4,0.9,1,1.5,1.3v-0.1c-0.3-0.4-0.4-1.1-0.8-1.5l-1.4-1.4
		c-1.4-1.9-3.1-3.5-5-4.9c-1.5-1.1-4.9-2.5-5.5-4.3l-0.1-0.1c1.1-0.1,2.3-0.5,3.3-0.8c1.6-0.4,3.1-0.3,4.8-0.8
		c0.8-0.2,1.5-0.4,2.3-0.7v-0.4c-0.9-0.9-1.5-2-2.4-2.8c-2.4-2.1-5.1-4.2-7.9-5.9c-1.5-1-3.4-1.6-5-2.4c-0.6-0.3-1.5-0.4-1.9-0.9
		c-0.9-1.1-1.3-2.5-2-3.7c-1.4-2.6-2.7-5.6-3.9-8.4c-0.9-1.9-1.4-3.7-2.5-5.5c-5-8.2-10.3-13.1-18.6-18c-1.8-1-3.9-1.4-6.2-2
		l-3.6-0.2c-0.8-0.3-1.5-1.3-2.2-1.7c-2.7-1.7-9.8-5.5-11.8-0.5c-1.3,3.1,1.9,6.2,3,7.8c0.8,1.1,1.9,2.4,2.4,3.6
		c0.3,0.8,0.4,1.7,0.8,2.5c0.8,2.1,1.5,4.5,2.5,6.4c0.5,1,1.1,2.1,1.8,3c0.4,0.5,1.1,0.8,1.2,1.6c-0.7,1-0.7,2.4-1.1,3.6
		c-1.7,5.4-1.1,12.2,1.4,16.2c0.8,1.2,2.6,3.9,5,2.8c2.2-0.9,1.7-3.6,2.3-6c0.1-0.6,0-1,0.3-1.3v0.1c0.7,1.3,1.3,2.6,2,4
		c1.5,2.4,4.1,4.8,6.3,6.4c1.2,0.9,2.1,2.4,3.5,2.9v-0.1h-0.1c-0.3-0.4-0.7-0.6-1.1-1c-0.9-0.9-1.8-1.9-2.5-2.9
		c-2-2.7-3.8-5.7-5.4-8.8c-0.8-1.5-1.4-3.1-2.1-4.6c-0.3-0.6-0.3-1.4-0.8-1.7c-0.7,1.1-1.8,2-2.3,3.3c-0.9,2.1-1,4.6-1.4,7.3
		l-0.2,0.1c-1.5-0.4-2.1-2-2.6-3.3c-1.4-3.4-1.7-8.9-0.4-12.8c0.3-1,1.8-4.2,1.2-5.1c-0.3-0.9-1.3-1.4-1.8-2.2
		c-0.6-0.9-1.3-2.1-1.7-3.1c-1.2-2.7-1.7-5.7-3-8.4c-0.6-1.3-1.6-2.6-2.4-3.7c-0.9-1.3-1.9-2.2-2.7-3.8c-0.2-0.5-0.6-1.4-0.2-2
		c0.1-0.4,0.3-0.5,0.7-0.6c0.6-0.5,2.4,0.1,3,0.4c1.8,0.7,3.3,1.4,4.8,2.4c0.7,0.5,1.4,1.4,2.3,1.6h1c1.5,0.3,3.3,0.1,4.7,0.5
		c2.5,0.8,4.9,2,6.9,3.3c6.3,4,11.5,9.7,15,16.5c0.6,1.1,0.8,2.1,1.3,3.3c1,2.4,2.3,4.8,3.3,7.1c1,2.3,2,4.6,3.4,6.4
		c0.7,1,3.6,1.5,4.9,2.1c1,0.4,2.5,0.8,3.3,1.3c1.6,1,3.3,2.2,4.8,3.3C225.3,147.2,227.7,148.4,227.9,149.3 M178.8,107.5
		c-0.7,0-1.3,0.1-2,0.2v0.1h0.1c0.4,0.8,1.1,1.3,1.5,2c0.4,0.8,0.7,1.5,1.1,2.3l0.1-0.1c0.7-0.5,1-1.3,1-2.4c-0.3-0.3-0.3-0.7-0.6-1
		C179.8,108.2,179.2,107.9,178.8,107.5"/>
	<path class="st2" d="M232.5,202.5h1v-4.9H232l-1.2,3.3l-1.3-3.3H228v4.9h0.9v-3.7h0.1l1.4,3.7h0.7l1.4-3.7L232.5,202.5L232.5,202.5
		z M224.4,202.5h1.1v-4.1h1.4v-0.8H223v0.8h1.4L224.4,202.5L224.4,202.5z"/>
</g>
</svg>
