<?xml version="1.0" encoding="utf-8"?>
<!-- Generator: Adobe Illustrator 22.0.1, SVG Export Plug-In . SVG Version: 6.00 Build 0)  -->
<svg version="1.1" id="Layer_1" xmlns="http://www.w3.org/2000/svg" xmlns:xlink="http://www.w3.org/1999/xlink" x="0px" y="0px"
	 viewBox="0 0 300 300" style="enable-background:new 0 0 300 300;" xml:space="preserve">
<style type="text/css">
	.st0{fill:#25C7B7;}
</style>
<g>
	<path class="st0" d="M174.5,186.8L113.2,174c-0.3,0.5-0.5,1-0.9,1.4l55.8,81.4l3.4-3.4l9.5-59.1
		C177.8,193.1,175.3,190.2,174.5,186.8L174.5,186.8z M152.1,106.6c-2.3,3.5-6.3,5.9-10.8,5.9c-0.7,0-1.4-0.1-2-0.2l-28,43.8
		l74.7-32.1c0-0.3-0.1-0.6-0.1-0.9c0-0.6,0.1-1.2,0.2-1.8L152.1,106.6L152.1,106.6z M154.2,98.7l36.2,15.5c1.2-0.9,2.5-1.6,3.9-2
		l5.9-37l-22.7-22.7L152,92.4C153.3,94.3,154,96.4,154.2,98.7L154.2,98.7z M230,105l-22.7-22.7l-4.9,30.7c1.3,0.6,2.4,1.5,3.3,2.5
		L230,105z M175.6,178.7c1.8-3.3,5.1-5.4,8.9-5.7l6.5-40.6c-0.5-0.3-1-0.7-1.4-1.2l-75.1,32.3c0.2,0.8,0.3,1.6,0.4,2.4L175.6,178.7z
		 M236.2,111.2l-26.3,11.3l64.8,27.7l0.2-0.2L236.2,111.2L236.2,111.2z M189.2,194.6l-7.9,49.1l45.9-45.9l-33-6.9
		C192.9,192.6,191.2,193.8,189.2,194.6z M100.1,181.9c-1.7,0-3.3-0.3-4.7-0.8L80.1,205l-5.9-5.9l14.4-22.6c-0.4-0.4-0.7-0.9-1-1.4
		l-26.1,11.3l-6.2-6.2l28.6-12.3l-51.7-10.8l-7.1-7.1l2.2-2.2L87,160.2c0.7-1.3,1.6-2.5,2.6-3.5l-29-42.2l5.8-5.8l30.2,44.1
		c1.1-0.3,2.2-0.4,3.3-0.4c1.3,0,2.5,0.2,3.7,0.5l28.3-44.3c-2.3-2.4-3.6-5.6-3.6-8.9c0-1,0.1-2,0.4-2.9L93.5,81.6l6.2-6.2
		l33.5,14.3c3.5-2.8,8.1-3.7,12.4-2.2l26.1-40.8L150,25L25,150l125,125l12.3-12.3l-56.2-82C104.2,181.5,102.1,181.9,100.1,181.9
		L100.1,181.9z M198.9,134.2l-6.6,41.2c2.3,1.9,3.8,4.6,4.1,7.6l37.7,7.9l34.5-34.5l-62.3-26.6C204.5,132.2,201.9,133.8,198.9,134.2
		L198.9,134.2z"/>
</g>
</svg>
