<?xml version="1.0" encoding="utf-8"?>
<!-- Generator: Adobe Illustrator 22.0.1, SVG Export Plug-In . SVG Version: 6.00 Build 0)  -->
<svg version="1.1" id="Layer_1" xmlns="http://www.w3.org/2000/svg" xmlns:xlink="http://www.w3.org/1999/xlink" x="0px" y="0px"
	 viewBox="0 0 300 300" style="enable-background:new 0 0 300 300;" xml:space="preserve">
<style type="text/css">
	.st0{fill:#FFFFFF;}
	.st1{fill:#53C1DE;}
</style>
<path class="st0" d="M31.6,149.6c0,17.9,17.5,34.6,45,44c-5.5,27.7-1,50,14.1,58.7c15.5,8.9,38.6,2.7,60.5-16.4
	c21.3,18.4,42.9,25.6,58,16.9c15.5-9,20.2-32.8,14.5-61.3c28.7-9.5,44.7-23.7,44.7-41.8c0-17.5-17.5-32.6-44.6-41.9
	c6.1-29.7,0.9-51.5-14.8-60.5c-15.1-8.7-36.9-1.1-58.6,17.7c-22.5-20-44.1-26.1-59.8-17c-15.1,8.7-19.4,31.5-13.9,59.6
	C50,116.8,31.6,132.2,31.6,149.6z"/>
<path class="st1" d="M218,117c-2.2-0.8-4.5-1.5-6.8-2.1c0.4-1.5,0.7-3.1,1-4.6c5.1-24.9,1.8-44.9-9.7-51.5c-11-6.3-28.9,0.3-47,16
	c-1.8,1.6-3.5,3.2-5.2,4.8c-1.1-1.1-2.3-2.2-3.5-3.2c-19-16.9-38-24-49.4-17.3c-11,6.3-14.2,25.2-9.6,48.7c0.5,2.3,1,4.7,1.6,7
	c-2.7,0.8-5.3,1.6-7.8,2.4c-22.3,7.8-36.5,19.9-36.5,32.5c0,13,15.3,26.1,38.4,34c1.9,0.6,3.8,1.2,5.7,1.8c-0.6,2.5-1.2,5-1.7,7.5
	c-4.4,23.2-1,41.5,10,47.8c11.3,6.5,30.2-0.2,48.7-16.3c1.5-1.3,2.9-2.6,4.4-4c1.8,1.8,3.7,3.5,5.7,5.2
	c17.9,15.4,35.5,21.6,46.4,15.3c11.3-6.5,14.9-26.3,10.2-50.3c-0.4-1.8-0.8-3.7-1.3-5.6c1.3-0.4,2.6-0.8,3.9-1.2
	c24.1-8,39.8-20.9,39.8-34.1C255.3,137,240.7,124.8,218,117L218,117z"/>
<path class="st0" d="M212.7,175.3c-1.1,0.4-2.3,0.7-3.5,1.1c-2.7-8.4-6.3-17.4-10.6-26.6c4.2-9,7.6-17.9,10.2-26.2
	c2.2,0.6,4.2,1.3,6.2,2c19.5,6.7,31.3,16.6,31.3,24.2C246.4,157.8,233.5,168.4,212.7,175.3L212.7,175.3z M204.1,192.4
	c2.1,10.6,2.4,20.2,1,27.7c-1.3,6.7-3.8,11.2-6.9,13.1c-6.6,3.8-20.8-1.1-36.1-14.3c-1.8-1.5-3.5-3.1-5.3-4.8
	c5.9-6.5,11.8-14,17.6-22.4c10.2-0.9,19.8-2.4,28.5-4.4C203.4,189,203.8,190.7,204.1,192.4L204.1,192.4z M116.8,232.5
	c-6.5,2.3-11.6,2.4-14.7,0.6c-6.6-3.8-9.4-18.6-5.6-38.4c0.4-2.3,1-4.7,1.5-7c8.6,1.9,18.1,3.3,28.3,4.1c5.8,8.2,11.9,15.7,18,22.3
	c-1.3,1.3-2.6,2.5-4,3.7C132.2,224.9,124,230,116.8,232.5L116.8,232.5z M86.5,175.2c-10.3-3.5-18.7-8.1-24.5-13
	c-5.2-4.5-7.8-8.9-7.8-12.5c0-7.7,11.4-17.4,30.4-24.1c2.4-0.8,4.8-1.6,7.2-2.3c2.6,8.6,6.1,17.5,10.2,26.5
	c-4.2,9.2-7.7,18.3-10.4,26.9C89.9,176.3,88.2,175.8,86.5,175.2z M96.6,106c-4-20.2-1.3-35.4,5.3-39.2c7-4.1,22.6,1.7,39,16.3
	c1,0.9,2.1,1.9,3.2,2.9c-6.1,6.6-12.1,14-17.9,22.2c-9.9,0.9-19.4,2.4-28.1,4.4C97.5,110.4,97.1,108.2,96.6,106L96.6,106z
	 M187.3,128.4c-2.1-3.5-4.2-7.1-6.4-10.5c6.7,0.8,13.1,2,19.2,3.4c-1.8,5.8-4.1,11.9-6.7,18.1C191.4,135.7,189.4,132,187.3,128.4
	L187.3,128.4z M150.3,92.4c4.1,4.5,8.3,9.5,12.4,14.9c-8.3-0.4-16.6-0.4-24.8,0C141.9,101.9,146.1,96.9,150.3,92.4L150.3,92.4z
	 M113.1,128.5c-2.1,3.6-4,7.2-5.9,10.9c-2.6-6.2-4.9-12.3-6.7-18.2c6-1.3,12.4-2.4,19.1-3.3C117.3,121.4,115.2,124.9,113.1,128.5z
	 M119.8,182.2c-6.9-0.8-13.4-1.8-19.4-3.1c1.9-6,4.1-12.2,6.8-18.6c1.9,3.7,3.9,7.3,6,10.9C115.3,175,117.5,178.6,119.8,182.2z
	 M150.6,207.6c-4.3-4.6-8.5-9.7-12.6-15.1c4,0.2,8.1,0.2,12.3,0.2c4.3,0,8.5-0.1,12.7-0.3C158.8,198,154.7,203.1,150.6,207.6z
	 M193.4,160.2c2.8,6.4,5.2,12.6,7.1,18.5c-6.1,1.4-12.7,2.5-19.6,3.3c2.2-3.5,4.4-7.1,6.5-10.7C189.5,167.6,191.5,163.9,193.4,160.2
	L193.4,160.2z M179.6,166.8c-3.2,5.5-6.5,11-10.1,16.3c-6.2,0.4-12.7,0.7-19.3,0.7c-6.5,0-12.9-0.2-19-0.6
	c-3.6-5.3-7.1-10.7-10.3-16.3c-3.2-5.5-6.2-11.2-9-16.9c2.8-5.8,5.7-11.4,8.9-16.9v0c3.2-5.5,6.6-10.9,10.2-16.2
	c6.3-0.5,12.7-0.7,19.1-0.7c6.5,0,12.9,0.2,19.2,0.7c3.6,5.3,6.9,10.7,10.1,16.2c3.2,5.5,6.2,11.1,9.1,16.9
	C185.8,155.6,182.8,161.2,179.6,166.8L179.6,166.8z M198.1,66.5c7,4.1,9.8,20.4,5.4,41.9c-0.3,1.4-0.6,2.8-0.9,4.2
	c-8.7-2-18.2-3.5-28.1-4.4c-5.8-8.2-11.8-15.7-17.8-22.2c1.6-1.5,3.2-3,4.8-4.4C177,68,191.5,62.7,198.1,66.5L198.1,66.5z"/>
<path class="st1" d="M150.2,130.9c10.4,0,18.8,8.4,18.8,18.8c0,10.4-8.4,18.8-18.8,18.8c-10.4,0-18.8-8.4-18.8-18.8
	C131.5,139.3,139.9,130.9,150.2,130.9"/>
</svg>
