<?xml version="1.0" encoding="utf-8"?>
<!-- Generator: Adobe Illustrator 22.0.1, SVG Export Plug-In . SVG Version: 6.00 Build 0)  -->
<svg version="1.1" id="Layer_1" xmlns="http://www.w3.org/2000/svg" xmlns:xlink="http://www.w3.org/1999/xlink" x="0px" y="0px"
	 viewBox="0 0 300 300" style="enable-background:new 0 0 300 300;" xml:space="preserve">
<style type="text/css">
	.st0{fill:#CF649A;}
</style>
<path class="st0" d="M230.1,168.8c-8,0-15,2-20.8,4.8c-2.2-4.3-4.3-8-4.7-10.8c-0.4-3.2-0.9-5.2-0.4-9c0.5-3.9,2.7-9.3,2.7-9.8
	c0-0.4-0.5-2.4-5.1-2.4s-8.6,0.9-9,2.1s-1.3,4-1.9,6.9c-0.8,4.2-9.2,19.1-14,27c-1.6-3-2.9-5.7-3.2-7.9c-0.4-3.2-0.9-5.2-0.4-9
	c0.5-3.9,2.7-9.3,2.7-9.8c0-0.4-0.5-2.4-5.1-2.4c-4.6,0-8.6,0.9-9,2.1s-0.9,4.1-1.9,6.9c-0.9,2.8-12.1,27.7-15.1,34.2
	c-1.5,3.3-2.8,6-3.7,7.8c-0.9,1.8,0,0.1-0.1,0.3c-0.8,1.5-1.3,2.4-1.3,2.4v0c-0.6,1.1-1.3,2.2-1.6,2.2c-0.2,0-0.7-3,0.1-7.1
	c1.7-8.6,5.7-22.1,5.6-22.6c0-0.2,0.8-2.6-2.6-3.8c-3.3-1.2-4.4,0.8-4.7,0.8c-0.3,0-0.5,0.7-0.5,0.7s3.6-15.2-6.9-15.2
	c-6.6,0-15.8,7.2-20.3,13.8c-2.9,1.6-9,4.9-15.4,8.4c-2.5,1.3-5,2.8-7.4,4.1l-0.5-0.5C72.7,169.2,49,159.5,50,141.1
	c0.4-6.7,2.7-24.3,45.5-45.6c35.1-17.5,63.2-12.7,68-2c6.9,15.2-15,43.5-51.5,47.6c-13.9,1.6-21.2-3.8-23-5.8
	c-1.9-2.1-2.2-2.2-2.9-1.8c-1.2,0.6-0.4,2.5,0,3.6c1.1,2.8,5.6,7.8,13.2,10.3c6.7,2.2,23,3.4,42.7-4.2c22.1-8.6,39.3-32.3,34.3-52.1
	c-5.2-20.2-38.7-26.8-70.3-15.6c-18.9,6.7-39.3,17.2-54,31c-17.5,16.3-20.2,30.6-19.1,36.5c4.1,21.1,33.2,34.9,44.8,45
	c-0.6,0.3-1.1,0.6-1.6,0.9c-5.8,2.9-28,14.5-33.6,26.7c-6.3,13.9,1,23.9,5.8,25.2c15,4.2,30.3-3.3,38.6-15.6
	c8.2-12.3,7.3-28.3,3.4-35.6l-0.1-0.3l4.6-2.7c3-1.7,5.9-3.4,8.4-4.7c-1.4,3.9-2.5,8.5-3,15.2c-0.6,7.9,2.6,18.1,6.9,22.1
	c1.9,1.7,4.1,1.8,5.5,1.8c4.9,0,7.2-4.1,9.6-9c3-6,5.7-12.9,5.7-12.9s-3.4,18.7,5.8,18.7c3.4,0,6.7-4.3,8.2-6.6v0
	c0,0,0.1-0.1,0.3-0.4c0.2-0.3,0.4-0.6,0.5-0.9V210c1.3-2.3,4.3-7.7,8.8-16.5c5.8-11.4,11.3-25.6,11.3-25.6s0.5,3.5,2.2,9.2
	c1,3.4,3.1,7.1,4.8,10.8c-1.3,1.9-2.2,3-2.2,3l0,0c-1.1,1.4-2.3,3-3.5,4.5c-4.6,5.5-10,11.7-10.8,13.5c-0.9,2.1-0.7,3.7,1,4.9
	c1.2,0.9,3.4,1.1,5.6,0.9c4.1-0.3,7-1.3,8.4-1.9c2.2-0.8,4.8-2,7.3-3.8c4.5-3.3,7.2-8,6.9-14.3c-0.1-3.4-1.3-6.9-2.6-10.1
	c0.4-0.6,0.8-1.2,1.2-1.8c7.1-10.3,12.5-21.7,12.5-21.7s0.5,3.5,2.2,9.2c0.9,2.9,2.6,6.1,4.1,9.2c-6.6,5.4-10.8,11.7-12.2,15.8
	c-2.6,7.6-0.6,11.1,3.3,11.9c1.7,0.4,4.3-0.4,6.1-1.3c2.3-0.8,5.2-2.1,7.8-4c4.5-3.3,8.8-7.9,8.6-14.2c-0.1-2.9-0.9-5.7-1.9-8.4
	c5.6-2.3,12.9-3.7,22.2-2.6c19.9,2.3,23.9,14.8,23.1,20c-0.8,5.2-4.9,8.1-6.3,9c-1.4,0.9-1.8,1.2-1.7,1.8c0.2,0.9,0.8,0.9,2,0.7
	c1.7-0.3,10.5-4.3,10.8-13.8C262.5,182.1,250.8,168.7,230.1,168.8L230.1,168.8z M76.3,220.7c-6.6,7.2-15.9,9.9-19.8,7.6
	c-4.3-2.5-2.6-13.1,5.5-20.7c4.9-4.7,11.3-9,15.5-11.6c0.9-0.6,2.4-1.4,4.1-2.5c0.3-0.2,0.4-0.3,0.4-0.3c0.3-0.2,0.7-0.4,1-0.6
	C86.1,203.5,83.3,213.1,76.3,220.7L76.3,220.7z M124.5,187.9c-2.3,5.6-7.1,20-10,19.2c-2.5-0.7-4-11.6-0.5-22.3
	c1.8-5.4,5.6-11.9,7.8-14.4c3.6-4,7.6-5.4,8.6-3.7C131.5,168.8,125.9,184.4,124.5,187.9z M164.2,206.9c-1,0.5-1.9,0.9-2.3,0.6
	c-0.3-0.2,0.4-0.9,0.4-0.9s5-5.3,6.9-7.8c1.1-1.4,2.5-3.1,3.9-5v0.5C173.2,200.9,167,205.2,164.2,206.9L164.2,206.9z M194.9,199.9
	c-0.7-0.5-0.6-2.2,1.8-7.4c0.9-2.1,3.1-5.5,6.8-8.8c0.4,1.3,0.7,2.6,0.7,3.9C204.1,195.7,198.4,198.7,194.9,199.9z"/>
</svg>
