<svg xmlns="http://www.w3.org/2000/svg" viewBox="0 0 300 300" width="300" height="300">
	<defs>
		<linearGradient id="grd1" gradientUnits="userSpaceOnUse"  x1="7468.582" y1="343.039" x2="7468.582" y2="12865.252">
			<stop offset="0" stop-color="#97d9f6"  />
			<stop offset="92.024" stop-color="#0f80cc"  />
			<stop offset="100" stop-color="#0f80cc"  />
		</linearGradient>
	</defs>
	<style>
		tspan { white-space:pre }
		.shp0 { fill: #0f80cc } 
		.shp1 { fill: url(#grd1) } 
		.shp2 { fill: #003b57 } 
	</style>
	<g id="Folder 1 copy copy copy">
		<path id="Layer copy copy copy" class="shp0" d="M199.95,61.39l-122.25,0c-8.19,0 -14.9,6.7 -14.9,14.9v134.82c0,8.19 6.7,14.9 14.9,14.9l80.52,0c-0.91,-40.06 12.77,-117.81 41.73,-164.61z" />
		<path id="Layer copy copy copy" class="shp1" d="M195.51,65.74l-117.81,0c-5.82,0 -10.55,4.73 -10.55,10.55v124.98c26.68,-10.24 66.72,-19.07 94.41,-18.67c5.56,-29.09 21.92,-86.11 33.95,-116.86z" />
		<path id="Layer copy copy copy" class="shp2" d="M228.46,56.98c-8.37,-7.47 -18.51,-4.47 -28.51,4.41c-1.49,1.32 -2.97,2.78 -4.44,4.35c-17.12,18.16 -33,51.79 -37.94,77.47c1.92,3.9 3.42,8.87 4.41,12.68c0.25,0.97 0.48,1.89 0.67,2.67c0.43,1.84 0.67,3.04 0.67,3.04c0,0 -0.15,-0.58 -0.78,-2.41c-0.12,-0.35 -0.25,-0.73 -0.41,-1.18c-0.02,-0.05 -0.04,-0.11 -0.06,-0.16c-0.02,-0.05 -0.04,-0.11 -0.06,-0.16c-0.02,-0.05 -0.04,-0.11 -0.07,-0.16c-0.02,-0.05 -0.05,-0.11 -0.07,-0.16c-1.12,-2.6 -4.2,-8.07 -5.56,-10.46c-0.27,0.79 -0.53,1.58 -0.8,2.37c-0.26,0.79 -0.52,1.59 -0.77,2.38c-0.25,0.8 -0.5,1.59 -0.75,2.39c-0.25,0.8 -0.49,1.6 -0.73,2.4c3.92,7.18 6.31,19.48 6.31,19.48c0,0 -0.21,-0.8 -1.19,-3.58c-0.88,-2.46 -5.24,-10.1 -6.27,-11.89c-1.77,6.52 -2.47,10.93 -1.84,12c1.23,2.08 2.4,5.66 3.43,9.63c2.32,8.93 3.93,19.8 3.93,19.8c0,0 0.05,0.72 0.14,1.83c-0.32,7.5 -0.13,15.27 0.45,22.3c0.77,9.3 2.22,17.29 4.06,21.57l1.25,-0.68c-2.71,-8.43 -3.81,-19.47 -3.33,-32.21c0.73,-19.47 5.21,-42.94 13.49,-67.41c13.98,-36.94 33.39,-66.57 51.14,-80.73c-16.19,14.62 -38.09,61.93 -44.65,79.45c-7.34,19.62 -12.55,38.03 -15.68,55.67c5.41,-16.54 22.9,-23.65 22.9,-23.65c0,0 8.58,-10.58 18.61,-25.7c-6.01,1.37 -15.87,3.72 -19.17,5.1c-4.87,2.04 -6.19,2.74 -6.19,2.74c0,0 15.78,-9.61 29.32,-13.96c18.62,-29.33 38.91,-71 18.48,-89.23" />
	</g>
</svg>