<?xml version="1.0" encoding="utf-8"?>
<!-- Generator: Adobe Illustrator 22.0.1, SVG Export Plug-In . SVG Version: 6.00 Build 0)  -->
<svg version="1.1" id="Layer_1" xmlns="http://www.w3.org/2000/svg" xmlns:xlink="http://www.w3.org/1999/xlink" x="0px" y="0px"
	 viewBox="0 0 300 300" style="enable-background:new 0 0 300 300;" xml:space="preserve">
<style type="text/css">
	.st0{fill:#00A1E0;}
	.st1{fill:#FFFFFF;}
</style>
<g>
	<path class="st0" d="M130.7,86.9c7.4-7.8,17.8-12.6,29.3-12.6c15.2,0,28.5,8.5,35.6,21.1c6.1-2.7,13-4.3,20.1-4.3
		c27.5,0,49.7,22.5,49.7,50.2c0,27.7-22.3,50.2-49.7,50.2c-3.3,0-6.6-0.3-9.8-1c-6.2,11.1-18.1,18.6-31.7,18.6
		c-5.7,0-11.1-1.3-15.9-3.7c-6.3,14.9-21,25.3-38.2,25.3c-17.9,0-33.1-11.3-38.9-27.1c-2.6,0.5-5.2,0.8-7.9,0.8
		c-21.3,0-38.5-17.4-38.5-38.9c0-14.4,7.7-27,19.3-33.7c-2.4-5.5-3.7-11.5-3.7-17.8c0-24.7,20.1-44.7,44.8-44.7
		C109.6,69.3,122.5,76.2,130.7,86.9"/>
	<path class="st1" d="M68.1,153c-0.1,0.4,0.1,0.5,0.1,0.5c0.4,0.3,0.9,0.5,1.3,0.8c2.4,1.2,4.6,1.6,6.9,1.6c4.7,0,7.7-2.5,7.7-6.6
		v-0.1c0-3.7-3.3-5.1-6.4-6.1l-0.4-0.1c-2.3-0.8-4.4-1.4-4.4-3V140c0-1.3,1.2-2.3,3-2.3c2,0,4.5,0.7,6,1.5c0,0,0.5,0.3,0.6-0.1
		c0.1-0.2,0.9-2.4,1-2.6c0.1-0.2-0.1-0.4-0.2-0.5c-1.8-1.1-4.2-1.8-6.8-1.8l-0.5,0c-4.3,0-7.4,2.6-7.4,6.4v0.1c0,4,3.3,5.2,6.5,6.1
		l0.5,0.2c2.3,0.7,4.2,1.3,4.2,2.9v0.1c0,1.5-1.3,2.6-3.3,2.6c-0.8,0-3.3,0-6.1-1.8c-0.3-0.2-0.5-0.3-0.8-0.5
		c-0.1-0.1-0.5-0.2-0.6,0.2L68.1,153L68.1,153z M137.3,153c-0.1,0.4,0.1,0.5,0.1,0.5c0.4,0.3,0.9,0.5,1.3,0.8
		c2.4,1.2,4.6,1.6,6.9,1.6c4.7,0,7.7-2.5,7.7-6.6v-0.1c0-3.7-3.3-5.1-6.4-6.1l-0.4-0.1c-2.3-0.8-4.4-1.4-4.4-3V140
		c0-1.3,1.2-2.3,3-2.3c2,0,4.5,0.7,6,1.5c0,0,0.5,0.3,0.6-0.1c0.1-0.2,0.9-2.4,1-2.6c0.1-0.2-0.1-0.4-0.2-0.5
		c-1.8-1.1-4.2-1.8-6.8-1.8l-0.5,0c-4.3,0-7.4,2.6-7.4,6.4v0.1c0,4,3.3,5.2,6.5,6.1l0.5,0.2c2.3,0.7,4.2,1.3,4.2,2.9v0.1
		c0,1.5-1.3,2.6-3.3,2.6c-0.8,0-3.3,0-6.1-1.8c-0.3-0.2-0.5-0.3-0.8-0.5c-0.1-0.1-0.5-0.2-0.6,0.2L137.3,153L137.3,153z
		 M184.6,145.1c0,2.3-0.4,4.1-1.3,5.4c-0.8,1.3-2.1,1.9-3.8,1.9c-1.8,0-3-0.6-3.8-1.9c-0.8-1.3-1.2-3.1-1.2-5.4
		c0-2.3,0.4-4.1,1.2-5.3c0.8-1.2,2.1-1.9,3.8-1.9c1.8,0,3,0.6,3.8,1.9C184.2,141,184.6,142.8,184.6,145.1 M188.6,140.8
		c-0.4-1.3-1-2.5-1.8-3.4c-0.8-1-1.8-1.7-3-2.3c-1.2-0.6-2.6-0.8-4.2-0.8c-1.6,0-3,0.3-4.2,0.8c-1.2,0.6-2.2,1.3-3,2.3
		c-0.8,1-1.4,2.1-1.8,3.4c-0.4,1.3-0.6,2.7-0.6,4.2c0,1.5,0.2,2.9,0.6,4.2c0.4,1.3,1,2.5,1.8,3.4c0.8,1,1.8,1.7,3,2.3
		c1.2,0.5,2.6,0.8,4.2,0.8c1.6,0,3-0.3,4.2-0.8c1.2-0.5,2.2-1.3,3-2.3c0.8-1,1.4-2.1,1.8-3.4c0.4-1.3,0.6-2.7,0.6-4.2
		C189.2,143.6,189,142.1,188.6,140.8 M221,151.7c-0.1-0.4-0.5-0.2-0.5-0.2c-0.6,0.2-1.2,0.4-1.8,0.5c-0.7,0.1-1.4,0.2-2.2,0.2
		c-1.9,0-3.4-0.6-4.5-1.7c-1.1-1.1-1.7-2.9-1.7-5.4c0-2.2,0.5-3.9,1.5-5.2c1-1.3,2.4-1.9,4.4-1.9c1.6,0,2.9,0.2,4.2,0.6
		c0,0,0.3,0.1,0.5-0.3c0.3-1,0.6-1.6,1-2.7c0.1-0.3-0.2-0.4-0.2-0.5c-0.5-0.2-1.7-0.5-2.6-0.7c-0.9-0.1-1.9-0.2-3-0.2
		c-1.7,0-3.1,0.3-4.4,0.8c-1.3,0.6-2.3,1.3-3.2,2.3c-0.8,1-1.5,2.1-1.9,3.4c-0.4,1.3-0.6,2.7-0.6,4.3c0,3.3,0.9,5.9,2.6,7.9
		c1.7,1.9,4.4,2.9,7.8,2.9c2,0,4.1-0.4,5.6-1c0,0,0.3-0.1,0.2-0.5L221,151.7L221,151.7z M227.9,142.9c0.2-1.3,0.5-2.3,1.1-3.2
		c0.8-1.3,2.1-1.9,3.8-1.9c1.8,0,2.9,0.7,3.7,1.9c0.6,0.8,0.8,1.9,0.9,3.2H227.9L227.9,142.9z M241.2,140.1
		c-0.3-1.3-1.2-2.5-1.7-3.1c-0.9-0.9-1.7-1.6-2.5-1.9c-1.1-0.5-2.4-0.8-3.8-0.8c-1.7,0-3.2,0.3-4.4,0.9c-1.2,0.6-2.3,1.4-3.1,2.3
		c-0.8,1-1.4,2.1-1.8,3.5c-0.4,1.3-0.6,2.8-0.6,4.3c0,1.5,0.2,3,0.6,4.3c0.4,1.3,1.1,2.4,1.9,3.4c0.9,1,2,1.7,3.4,2.2
		c1.3,0.5,3,0.8,4.9,0.8c3.9,0,5.9-0.9,6.7-1.3c0.1-0.1,0.3-0.2,0.1-0.6l-0.9-2.4c-0.1-0.4-0.5-0.2-0.5-0.2c-1,0.4-2.3,1-5.5,1
		c-2.1,0-3.6-0.6-4.6-1.6c-1-1-1.5-2.4-1.6-4.4l13.4,0c0,0,0.4,0,0.4-0.3C241.6,145.7,242.1,143.1,241.2,140.1 M120.9,142.9
		c0.2-1.3,0.5-2.3,1.1-3.2c0.8-1.3,2.1-1.9,3.8-1.9c1.8,0,2.9,0.7,3.7,1.9c0.5,0.8,0.8,1.9,0.9,3.2H120.9z M134.1,140.1
		c-0.3-1.3-1.2-2.5-1.7-3.1c-0.9-0.9-1.7-1.6-2.5-1.9c-1.1-0.5-2.4-0.8-3.8-0.8c-1.7,0-3.2,0.3-4.4,0.9c-1.2,0.6-2.3,1.4-3.1,2.3
		c-0.8,1-1.4,2.1-1.8,3.5c-0.4,1.3-0.6,2.8-0.6,4.3c0,1.5,0.2,3,0.6,4.3c0.4,1.3,1.1,2.4,1.9,3.4c0.9,1,2,1.7,3.4,2.2
		c1.3,0.5,3,0.8,4.9,0.8c3.9,0,5.9-0.9,6.7-1.3c0.1-0.1,0.3-0.2,0.1-0.6l-0.9-2.4c-0.1-0.4-0.5-0.2-0.5-0.2c-1,0.4-2.3,1-5.5,1
		c-2.1,0-3.6-0.6-4.6-1.6c-1-1-1.5-2.4-1.6-4.4l13.4,0c0,0,0.4,0,0.4-0.3C134.6,145.7,135,143.1,134.1,140.1 M92,151.6
		c-0.5-0.4-0.6-0.5-0.8-0.8c-0.3-0.4-0.4-1-0.4-1.7c0-1.2,0.4-2,1.2-2.6c0,0,1.2-1,3.9-1c1.9,0,3.6,0.3,3.6,0.3v6.1h0
		c0,0-1.7,0.4-3.6,0.5C93.2,152.6,91.9,151.6,92,151.6 M97.3,142.2c-0.5,0-1.2-0.1-2.1-0.1c-1.1,0-2.3,0.1-3.3,0.4
		c-1,0.3-2,0.7-2.8,1.3c-0.8,0.6-1.5,1.3-1.9,2.2c-0.5,0.9-0.7,1.9-0.7,3.1c0,1.2,0.2,2.2,0.6,3.1c0.4,0.8,1,1.5,1.7,2.1
		c0.7,0.5,1.7,0.9,2.7,1.2c1,0.2,2.2,0.4,3.5,0.4c1.4,0,2.7-0.1,4.1-0.3c1.3-0.2,2.9-0.5,3.4-0.7c0.3-0.1,0.6-0.2,0.9-0.2
		c0.3-0.1,0.3-0.4,0.3-0.4l0-12.2c0-2.7-0.7-4.7-2.1-5.9c-1.4-1.2-3.5-1.9-6.1-1.9c-1,0-2.6,0.1-3.6,0.3c0,0-2.9,0.6-4.1,1.5
		c0,0-0.3,0.2-0.1,0.5l0.9,2.5c0.1,0.3,0.4,0.2,0.4,0.2s0.1,0,0.2-0.1c2.6-1.4,5.8-1.4,5.8-1.4c1.4,0,2.6,0.3,3.3,0.9
		c0.7,0.6,1.1,1.4,1.1,3.2v0.6C98.3,142.3,97.3,142.2,97.3,142.2 M205.1,135.3c0.1-0.3-0.1-0.4-0.2-0.5c-0.2-0.1-1.4-0.3-2.2-0.4
		c-1.7-0.1-2.6,0.2-3.4,0.6c-0.8,0.4-1.7,1-2.3,1.7v-1.6c0-0.2-0.2-0.4-0.4-0.4h-3.4c-0.2,0-0.4,0.2-0.4,0.4V155
		c0,0.2,0.2,0.4,0.4,0.4h3.5c0.2,0,0.4-0.2,0.4-0.4v-10c0-1.3,0.1-2.7,0.4-3.5c0.3-0.8,0.7-1.5,1.2-2c0.5-0.5,1-0.8,1.7-1
		c0.6-0.2,1.3-0.3,1.8-0.3c0.7,0,1.5,0.2,1.5,0.2c0.3,0,0.4-0.1,0.5-0.4C204.3,137.5,205,135.7,205.1,135.3"/>
	<path class="st1" d="M172.1,126.1c-0.4-0.1-0.8-0.2-1.3-0.3c-0.5-0.1-1.1-0.1-1.8-0.1c-2.4,0-4.3,0.7-5.7,2
		c-1.3,1.3-2.2,3.4-2.7,6.1l-0.2,0.9h-3c0,0-0.4,0-0.4,0.4l-0.5,2.8c0,0.3,0.1,0.4,0.4,0.4h3l-3,16.7c-0.2,1.3-0.5,2.5-0.8,3.3
		c-0.3,0.8-0.6,1.4-0.9,1.9c-0.3,0.4-0.7,0.8-1.2,0.9c-0.5,0.2-1,0.2-1.6,0.2c-0.3,0-0.8-0.1-1.1-0.1c-0.3-0.1-0.5-0.1-0.7-0.2
		c0,0-0.3-0.1-0.5,0.2c-0.1,0.3-0.9,2.5-1,2.7c-0.1,0.3,0,0.5,0.2,0.5c0.4,0.1,0.7,0.2,1.2,0.4c0.7,0.2,1.4,0.2,2,0.2
		c1.2,0,2.4-0.2,3.3-0.5c0.9-0.3,1.7-0.9,2.5-1.7c0.8-0.9,1.3-1.8,1.7-3c0.5-1.2,0.9-2.7,1.2-4.5l3-17h4.4c0,0,0.4,0,0.4-0.4
		l0.5-2.8c0-0.3-0.1-0.4-0.4-0.4h-4.3c0-0.1,0.2-1.6,0.7-3c0.2-0.6,0.6-1.1,0.9-1.4c0.3-0.3,0.7-0.6,1.1-0.7
		c0.4-0.1,0.9-0.2,1.4-0.2c0.4,0,0.8,0,1.1,0.1c0.4,0.1,0.6,0.1,0.7,0.2c0.4,0.1,0.5,0,0.6-0.2l1-2.8
		C172.5,126.3,172.2,126.1,172.1,126.1 M112.4,155c0,0.2-0.2,0.4-0.4,0.4h-3.5c-0.2,0-0.4-0.2-0.4-0.4v-28.5c0-0.2,0.2-0.4,0.4-0.4
		h3.5c0.2,0,0.4,0.2,0.4,0.4V155z"/>
</g>
</svg>
