<svg xmlns="http://www.w3.org/2000/svg" viewBox="0 0 300 300" width="300" height="300">
	<style>
		tspan { white-space:pre }
		.shp0 { fill: #007acc } 
		.shp1 { fill: #ffffff } 
	</style>
	<g id="Folder 1 copy copy copy">
		<g id="Folder 1 copy copy copy">
			<path id="Layer copy copy copy" class="shp0" d="M44,256h212v-212l-212,0v106" />
			<path id="Layer copy copy copy" class="shp1" d="M90.48,159.01h27.56v78.44h19.56v-78.44h27.56v-8.48c0,-4.77 0,-8.64 -0.21,-8.75c0,-0.16 -16.8,-0.21 -37.21,-0.21l-37.1,0.16v8.69l-0.16,-0.05zM214.34,141.52l0.11,-0.11c-3.66,-0.95 -12.4,-1.27 -16.11,-0.53c-11.45,2.12 -19.45,9.54 -21.73,20.14c-0.74,3.02 -0.48,10.55 0.32,13.62c1.06,3.55 3.34,7.84 5.83,10.6c4.35,4.56 9.01,7.53 19.98,12.19c9.54,4.24 12.93,6.15 14.63,8.48c1.22,1.85 1.59,2.97 1.59,5.41c0,2.65 -0.85,4.56 -2.81,6.36c-4.56,4.13 -13.78,4.61 -20.67,1.06c-2.28,-1.27 -6.2,-4.98 -7.95,-7.74l-1.38,-1.86l-5.99,3.5l-7.95,4.61l-2.01,1.27c-0.21,0.37 3.55,6.04 5.51,8.16c4.98,5.46 13.09,9.7 21.57,11.29c3.98,0.69 12.45,0.8 16.17,0.16c11.82,-1.96 20.09,-7.95 23.48,-16.8c3.02,-8.11 2.01,-18.92 -2.49,-25.81c-3.98,-6.15 -10.55,-10.44 -25.7,-16.96c-8.22,-3.6 -10.87,-5.35 -12.3,-8.27c-0.64,-1.38 -0.95,-2.33 -0.95,-4.03c0,-5.56 4.24,-8.9 10.6,-8.48c4.4,0.32 7.21,2.01 9.96,5.94c0.85,1.38 1.7,2.28 1.91,2.12c5.56,-3.44 14.73,-9.65 14.73,-9.96c-0.21,-0.95 -3.13,-4.66 -5.09,-6.78c-3.71,-3.87 -7.84,-6.31 -13.25,-7.58z" />
		</g>
	</g>
</svg>