<?xml version="1.0" encoding="utf-8"?>
<!-- Generator: Adobe Illustrator 22.0.1, SVG Export Plug-In . SVG Version: 6.00 Build 0)  -->
<svg version="1.1" id="Layer_1" xmlns="http://www.w3.org/2000/svg" xmlns:xlink="http://www.w3.org/1999/xlink" x="0px" y="0px"
	 viewBox="0 0 300 300" style="enable-background:new 0 0 300 300;" xml:space="preserve">
<style type="text/css">
	.st0{fill:#68217A;}
	.st1{fill:#FFFFFF;}
</style>
<g>
	<g>
		<path class="st0" d="M245.8,66.3l-47.3-19l-82.6,80.5L66.1,89.9l-18.9,9.5l0,99.3l18.8,9.4l49.7-37.8l82.8,80.4l47.3-18.9
			L245.8,66.3L245.8,66.3z"/>
		<path class="st1" d="M198.2,252.5l-82.6-80.2l-49.4,37.6l-20.5-10.3l0-101.1l20.5-10.3l49.5,37.7l82.4-80.3l49.1,19.7l0,167.5
			L198.2,252.5z M115.8,168.4l83.1,80.6l45.5-18.2l0-163.6L198.8,49L116,129.7l-50-38.1l-17.3,8.7l0,97.5l17.2,8.6L115.8,168.4z"/>
	</g>
	<g>
		<path class="st1" d="M193.8,113.6l-47.3,35.3l47.3,35.6L193.8,113.6L193.8,113.6z M70.8,127.8l0,42.5l23.6-21.4L70.8,127.8
			L70.8,127.8z"/>
	</g>
</g>
</svg>
