<?xml version="1.0" encoding="utf-8"?>
<!-- Generator: Adobe Illustrator 22.0.1, SVG Export Plug-In . SVG Version: 6.00 Build 0)  -->
<svg version="1.1" id="Layer_1" xmlns="http://www.w3.org/2000/svg" xmlns:xlink="http://www.w3.org/1999/xlink" x="0px" y="0px"
	 viewBox="0 0 300 300" style="enable-background:new 0 0 300 300;" xml:space="preserve">
<style type="text/css">
	.st0{fill:#464342;}
</style>
<g>
	<path class="st0" d="M50.4,150c0,39.4,22.9,73.5,56.1,89.6L59,109.5C53.4,122.2,50.4,136,50.4,150z M217.2,145
		c0-12.3-4.4-20.8-8.2-27.5c-5-8.2-9.8-15.1-9.8-23.3c0-9.2,6.9-17.7,16.7-17.7c0.4,0,0.9,0.1,1.3,0.1
		c-17.7-16.2-41.3-26.1-67.2-26.1c-34.8,0-65.4,17.8-83.2,44.9c2.3,0.1,4.5,0.1,6.4,0.1c10.4,0,26.5-1.3,26.5-1.3
		c5.4-0.3,6,7.6,0.6,8.2c0,0-5.4,0.6-11.4,0.9l36.3,107.9l21.8-65.4l-15.5-42.5c-5.4-0.3-10.4-0.9-10.4-0.9
		c-5.4-0.3-4.7-8.5,0.6-8.2c0,0,16.4,1.3,26.2,1.3c10.4,0,26.5-1.3,26.5-1.3c5.4-0.3,6,7.6,0.6,8.2c0,0-5.4,0.6-11.4,0.9l36,107
		l9.9-33.2C213.9,163.4,217.2,153.5,217.2,145L217.2,145z M151.7,158.7l-29.9,86.8c9.1,2.7,18.6,4.1,28.1,4.1
		c11.6,0,22.7-2,33.1-5.6c-0.3-0.4-0.5-0.9-0.7-1.4L151.7,158.7L151.7,158.7z M237.4,102.2c0.4,3.2,0.7,6.6,0.7,10.2
		c0,10.1-1.9,21.5-7.6,35.7l-30.4,87.9c29.6-17.3,49.5-49.3,49.5-86.1C249.6,132.7,245.1,116.4,237.4,102.2L237.4,102.2z M150,33.9
		C86,33.9,33.9,86,33.9,150c0,64,52.1,116.1,116.1,116.1c64,0,116.1-52.1,116.1-116.1C266.1,86,214,33.9,150,33.9L150,33.9z
		 M150,260.7c-61.1,0-110.7-49.7-110.7-110.8C39.2,88.9,88.9,39.3,150,39.3c61.1,0,110.7,49.7,110.7,110.7
		C260.7,211.1,211.1,260.7,150,260.7z"/>
</g>
</svg>
