<?xml version="1.0" encoding="utf-8"?>
<!-- Generator: Adobe Illustrator 22.0.1, SVG Export Plug-In . SVG Version: 6.00 Build 0)  -->
<svg version="1.1" id="Layer_1" xmlns="http://www.w3.org/2000/svg" xmlns:xlink="http://www.w3.org/1999/xlink" x="0px" y="0px"
	 viewBox="0 0 300 300" style="enable-background:new 0 0 300 300;" xml:space="preserve">
<style type="text/css">
	.st0{fill:#FFFFFF;}
	.st1{fill:#92D4F5;}
	.st2{fill:#1F79BE;}
</style>
<g>
	<path class="st0" d="M150,47.6l97.6,55.2v110.4L150,268.4l-97.6-55.2V102.8L150,47.6z"/>
	<path class="st1" d="M230.2,209.4l-76.9,43.5V219l47.9-26.4L230.2,209.4z M235.4,204.6v-91l-28.2,16.2v58.5L235.4,204.6
		L235.4,204.6z M69.5,209.4l76.9,43.5V219l-47.9-26.4L69.5,209.4L69.5,209.4z M64.3,204.6v-91l28.2,16.2v58.5L64.3,204.6L64.3,204.6
		z M67.6,107.7l78.9-44.6v32.8l-50.6,27.8l-0.4,0.2L67.6,107.7z M232.1,107.7l-78.9-44.6v32.8l50.6,27.8l0.4,0.2L232.1,107.7z"/>
	<path class="st2" d="M146.5,211.3l-47.3-26v-51.5l47.3,27.3V211.3 M153.2,211.3l47.3-26v-51.5l-47.3,27.3V211.3 M102.4,127.8
		l47.5-26.1l47.5,26.1l-47.5,27.4L102.4,127.8"/>
</g>
</svg>
