<?xml version="1.0" encoding="utf-8"?>
<!-- Generator: Adobe Illustrator 22.0.1, SVG Export Plug-In . SVG Version: 6.00 Build 0)  -->
<svg version="1.1" id="Layer_1" xmlns="http://www.w3.org/2000/svg" xmlns:xlink="http://www.w3.org/1999/xlink" x="0px" y="0px"
	 viewBox="0 0 300 300" style="enable-background:new 0 0 300 300;" xml:space="preserve">
<style type="text/css">
	.st0{fill:url(#SVGID_1_);}
	.st1{fill:url(#SVGID_2_);}
	.st2{fill:url(#SVGID_3_);}
	.st3{fill:#FFFFFF;}
</style>
<g>
	
		<linearGradient id="SVGID_1_" gradientUnits="userSpaceOnUse" x1="-88.7101" y1="1056.5729" x2="-85.9625" y2="1066.4626" gradientTransform="matrix(19.5312 0 0 19.5312 1853.125 -20585.5469)">
		<stop  offset="0.28" style="stop-color:#00CDD7"/>
		<stop  offset="0.94" style="stop-color:#2086D7"/>
	</linearGradient>
	<path class="st0" d="M74.2,233.6L46.3,68l51.8-21.4l32.7,19.4l30.5-16.2l62.8,24.3l-35.3,179.5L74.2,233.6L74.2,233.6z"/>
	
		<linearGradient id="SVGID_2_" gradientUnits="userSpaceOnUse" x1="-87.8575" y1="1057.8325" x2="-83.2099" y2="1064.6471" gradientTransform="matrix(19.5312 0 0 19.5312 1853.125 -20585.5469)">
		<stop  offset="0.14" style="stop-color:#FFF045"/>
		<stop  offset="0.37" style="stop-color:#00CDD7"/>
	</linearGradient>
	<path class="st1" d="M253.7,116.6l-26.9-66.1l-48.3-4.2l-75.2,71.9l20.1,93l37.9,26.2l92.3-54.7L231,140.3L253.7,116.6z"/>
	
		<linearGradient id="SVGID_3_" gradientUnits="userSpaceOnUse" x1="-83.2434" y1="1058.6686" x2="-82.633" y2="1060.8307" gradientTransform="matrix(19.5312 0 0 19.5312 1853.125 -20585.5469)">
		<stop  offset="0.28" style="stop-color:#00CDD7"/>
		<stop  offset="0.94" style="stop-color:#2086D7"/>
	</linearGradient>
	<path class="st2" d="M212.2,106.6l18.8,33.7l22.7-23.6l-16.5-41.1L212.2,106.6z"/>
	<g>
		<path d="M85.2,85.2h129.6v129.6H85.2V85.2z"/>
		<path class="st3" d="M97.5,190.5h48.6v8.1H97.5L97.5,190.5z M161,148.1l6.8-8.4c4.9,3.9,9.7,6.5,15.9,6.5c4.9,0,7.8-1.9,7.8-5.2
			c0-2.9-1.9-4.5-10.7-6.8c-10.7-2.9-17.5-5.8-17.5-16.5v-0.3c0-9.7,7.8-16.2,18.5-16.2c7.2,0,14.1,2.4,19.8,6.8l-6.2,9.1
			c-3.9-3.1-8.7-4.9-13.6-5.2c-4.2,0-6.8,1.9-6.8,4.9c0,3.6,2.3,4.9,11.3,7.1c10.7,2.9,16.8,6.8,16.8,16.2
			c0,10.7-8.1,16.8-19.4,16.8C175.4,156.5,167.4,153.4,161,148.1 M150.6,102.1l-8.1,31.1l-9.1-31.1h-9.1l-9.1,31.1l-8.1-31.1H94.6
			l15.6,53.8h10l8.7-31.1l8.7,31.1h10l15.6-53.8L150.6,102.1L150.6,102.1z"/>
	</g>
</g>
</svg>
