<svg xmlns="http://www.w3.org/2000/svg" viewBox="0 0 300 300" width="300" height="300">
	<style>
		tspan { white-space:pre }
		.shp0 { fill: #f7a80d } 
	</style>
	<g id="Folder 1 copy copy copy">
		<g id="Folder 1 copy">
			<path id="Layer copy" class="shp0" d="M103.36,175.11l-20.84,8.95l19.3,8.25l22.37,-8.25zM72.03,186.3l-0.7,40.27l30.48,13.42v-41.81l-29.79,-11.89zM134.68,186.3l-27.55,10.49v39.43l27.55,-11.19zM167.54,61l-20.98,8.95l19.44,8.25l22.37,-8.25l-20.84,-8.95zM138.46,72.89v40.27l26.01,7.55l0.84,-36.64l-26.85,-11.19zM196.63,75.13l-24.61,10.49v39.58l24.61,-11.19v-38.88zM69.02,117.68l-20.84,8.95l19.3,8.25l22.37,-8.25l-20.84,-8.95zM37.7,128.87l-0.7,40.28l30.48,13.42v-41.81zM100.35,128.87l-27.55,10.49v39.43l27.55,-11.19zM136.15,116.2l-20.84,8.95l19.3,8.25l22.37,-8.25zM104.82,127.39l-0.7,40.27l30.48,13.42v-41.81l-29.79,-11.89zM167.47,127.39l-27.55,10.49v39.43l27.55,-11.19zM233.11,61l-20.84,8.95l19.3,8.25l22.37,-8.25zM201.78,72.19l-0.7,40.27l30.48,13.42v-41.81zM264.43,72.19l-27.55,10.49v39.43l27.55,-11.19z" />
		</g>
	</g>
</svg>