<?xml version="1.0" encoding="utf-8"?>
<!-- Generator: Adobe Illustrator 22.0.1, SVG Export Plug-In . SVG Version: 6.00 Build 0)  -->
<svg version="1.1" id="Layer_1" xmlns="http://www.w3.org/2000/svg" xmlns:xlink="http://www.w3.org/1999/xlink" x="0px" y="0px"
	 viewBox="0 0 300 300" style="enable-background:new 0 0 300 300;" xml:space="preserve">
<style type="text/css">
	.st0{fill:#563D7C;}
	.st1{fill:#FFFFFF;}
</style>
<g>
	<path class="st0" d="M48.3,225.4c0,14.5,11.7,26.2,26.2,26.2h150.9c14.5,0,26.2-11.7,26.2-26.2V74.6c0-14.5-11.7-26.2-26.2-26.2
		H74.6c-14.5,0-26.2,11.7-26.2,26.2V225.4L48.3,225.4z"/>
	<path class="st1" d="M132.7,138.3v-28.8H158c2.4,0,4.7,0.2,7,0.6c2.2,0.4,4.2,1.1,5.9,2.2c1.7,1,3.1,2.5,4.1,4.3
		c1,1.8,1.6,4.2,1.6,7.1c0,5.2-1.6,8.9-4.7,11.2c-3.1,2.3-7.1,3.4-11.9,3.4H132.7L132.7,138.3z M105.6,88.4v123.1h59.7
		c5.5,0,10.9-0.7,16.1-2.1c5.2-1.4,9.9-3.5,14-6.4c4.1-2.9,7.3-6.6,9.7-11.1c2.4-4.5,3.6-9.9,3.6-16.1c0-7.7-1.9-14.3-5.6-19.7
		c-3.7-5.5-9.4-9.3-17-11.5c5.5-2.6,9.7-6,12.5-10.2c2.8-4.1,4.2-9.3,4.2-15.5c0-5.7-0.9-10.6-2.8-14.5c-1.9-3.9-4.6-7-8-9.4
		c-3.4-2.4-7.6-4.1-12.4-5.1c-4.8-1-10.2-1.6-16-1.6L105.6,88.4L105.6,88.4z M132.7,190.5v-33.8h29.5c5.9,0,10.6,1.4,14.1,4.1
		c3.6,2.7,5.3,7.2,5.3,13.5c0,3.2-0.5,5.9-1.6,7.9c-1.1,2.1-2.6,3.7-4.4,4.9c-1.8,1.2-4,2.1-6.4,2.6c-2.4,0.5-4.9,0.8-7.6,0.8H132.7
		L132.7,190.5z"/>
</g>
</svg>
