<?xml version="1.0" encoding="utf-8"?>
<!-- Generator: Adobe Illustrator 22.0.1, SVG Export Plug-In . SVG Version: 6.00 Build 0)  -->
<svg version="1.1" id="Layer_1" xmlns="http://www.w3.org/2000/svg" xmlns:xlink="http://www.w3.org/1999/xlink" x="0px" y="0px"
	 viewBox="0 0 500 100" style="enable-background:new 0 0 500 100;" xml:space="preserve">
<style type="text/css">
	.st0{fill:#FFFFFF;}
</style>
<g>
	<path class="st0" d="M43.3,75.1c-2-0.6-3.5-1.8-4.4-3.4c-1-1.6-1.4-3.9-1.2-6.8l0.3-6.4c0-2.7-0.5-4.5-1.4-5.6
		c-0.9-1-2.4-1.6-4.3-1.6h-1.3v-3.6H32c2,0,3.5-0.5,4.5-1.6c1-1.1,1.5-2.8,1.5-5.2l-0.1-4.6c0-7.4,3.9-11.1,11.6-11.1h4v3.6h-5.2
		c-4,0-5.9,2.3-5.9,6.8l0.1,4.5c0,4.7-1.9,7.8-5.6,9.5c3.6,1.2,5.4,4.5,5.4,9.9l-0.2,5.4c0,2.9,0.6,4.8,1.9,6
		c1.2,1.1,3.3,1.7,6.2,1.7h3.3v3.6h-2.3C47.9,76.1,45.3,75.8,43.3,75.1z"/>
	<path class="st0" d="M85.5,58.9l2.7,3.1c-2.9,3.1-6.4,4.6-10.5,4.6c-2.8,0-5.3-0.7-7.5-2c-2.2-1.3-4-3.1-5.2-5.5
		c-1.3-2.3-1.9-4.9-1.9-7.8c0-2.9,0.6-5.5,1.9-7.8c1.3-2.3,3-4.1,5.2-5.4c2.2-1.3,4.7-2,7.5-2c2.3,0,4.5,0.5,6.4,1.4
		c1.9,1,3.5,2.3,4.7,4l-2.9,2.8l-0.1,0.1c-1.2-1.6-2.5-2.8-3.8-3.4c-1.3-0.7-2.9-1-4.8-1c-1.7,0-3.2,0.5-4.6,1.4
		c-1.4,0.9-2.6,2.2-3.4,3.9c-0.9,1.7-1.3,3.6-1.3,5.8s0.4,4.1,1.3,5.9c0.9,1.7,2.1,3.1,3.6,4.1c1.6,1,3.3,1.5,5.2,1.5
		C80.8,62.5,83.4,61.3,85.5,58.9z M85.5,44.6l-0.3,0.3L85,44.5C85,44.2,85.2,44.3,85.5,44.6z M85.8,44.8c-0.1-0.1-0.2-0.1-0.3-0.2
		l0.1-0.1C85.9,44.7,85.9,44.8,85.8,44.8z"/>
	<path class="st0" d="M100.4,64.5c-2-1.3-3.6-3.1-4.8-5.4s-1.7-4.9-1.7-7.9c0-2.9,0.6-5.6,1.7-7.9c1.2-2.3,2.7-4.1,4.8-5.4
		c2-1.3,4.4-2,7-2c2.6,0,4.9,0.7,7,2c2,1.3,3.6,3.1,4.8,5.4c1.2,2.3,1.7,4.9,1.7,7.9c0,2.9-0.6,5.6-1.7,7.9s-2.7,4.1-4.8,5.4
		c-2,1.3-4.4,1.9-7,1.9C104.8,66.4,102.4,65.8,100.4,64.5z M111.8,61.1c1.3-1,2.3-2.3,3.1-4.1c0.7-1.7,1.1-3.7,1.1-5.9
		c0-3.3-0.8-6-2.4-8.2c-1.6-2.1-3.7-3.2-6.2-3.2c-2.5,0-4.6,1.1-6.2,3.2c-1.6,2.1-2.4,4.8-2.4,8.2c0,2.2,0.4,4.1,1.1,5.9
		c0.7,1.7,1.8,3.1,3.1,4.1c1.3,1,2.8,1.5,4.4,1.5C109,62.6,110.5,62.1,111.8,61.1z"/>
	<path class="st0" d="M132.4,64.8c-1.8-1.2-3.3-2.9-4.5-5.3c-1.2-2.3-1.7-5.2-1.7-8.5c0-3.4,0.6-6.2,1.8-8.4c1.2-2.3,2.7-3.9,4.6-5
		c1.9-1.1,3.9-1.6,5.9-1.6c2,0,3.7,0.4,5.1,1.3c1.5,0.9,2.6,2.1,3.4,3.7V23.4h4.9v0.4c-0.3,0.3-0.4,0.5-0.5,0.8
		c-0.1,0.3-0.1,0.8-0.1,1.5l0.1,35.2c0,1,0,1.9,0.1,2.5s0.2,1.3,0.5,2h-4.5c-0.3-0.7-0.5-1.4-0.5-2s-0.1-1.5-0.1-2.5
		c-0.9,1.6-2.1,2.9-3.6,3.8s-3.1,1.4-5,1.4C136.2,66.6,134.2,66,132.4,64.8z M144.8,59.4c1.2-2.1,1.9-4.8,1.9-8.2
		c0-3.5-0.7-6.2-2-8.3c-1.3-2.1-3.4-3.1-6-3.1c-2.6,0-4.5,0.9-5.9,2.8c-1.4,1.9-2,4.5-2,7.8c0,3.8,0.7,6.7,2.1,8.9
		c1.4,2.2,3.5,3.3,6.2,3.3C141.6,62.5,143.6,61.5,144.8,59.4z"/>
	<path class="st0" d="M162.3,62.6c-2.6-2.6-3.9-6.4-3.9-11.2c0-3.2,0.6-6,1.8-8.3c1.2-2.3,2.8-4.1,4.8-5.3c2-1.2,4.3-1.8,6.8-1.8
		c3.5,0,6.4,1.2,8.6,3.5c2.2,2.3,3.3,5.8,3.3,10.4c0,0.5,0,1.2-0.1,2.1h-20.8c0.2,3.6,1.2,6.3,3,8.1c1.8,1.8,4.2,2.7,7,2.7
		c3.1,0,5.6-1.1,7.5-3.3l2.6,2.5c-2.5,3-5.9,4.5-10.2,4.5C168.4,66.6,164.9,65.2,162.3,62.6z M179.1,48.4c0-2.7-0.7-4.9-2.1-6.5
		c-1.4-1.6-3.2-2.4-5.5-2.4c-2.1,0-4,0.7-5.6,2.2c-1.6,1.5-2.6,3.7-2.9,6.7H179.1z"/>
	<path class="st0" d="M199.9,45.1c-0.8-0.7-1.2-1.6-1.2-2.6c0-1,0.4-1.9,1.1-2.6c0.7-0.7,1.6-1.1,2.7-1.1s1.9,0.4,2.7,1.1
		c0.8,0.7,1.2,1.6,1.2,2.6c0,1-0.4,1.8-1.2,2.6c-0.8,0.7-1.7,1.1-2.7,1.1C201.5,46.2,200.6,45.9,199.9,45.1z M199.8,65.6
		c-0.7-0.7-1.1-1.6-1.1-2.6c0-1,0.4-1.9,1.1-2.6c0.7-0.7,1.6-1.1,2.7-1.1s1.9,0.4,2.7,1.1c0.8,0.7,1.2,1.6,1.2,2.6
		c0,1-0.4,1.8-1.1,2.6c-0.7,0.7-1.7,1.1-2.7,1.1C201.4,66.6,200.5,66.3,199.8,65.6z"/>
	<path class="st0" d="M245.1,52.3c1.5,1.3,2.3,3,2.3,5.1c0,2.6-1,4.8-3.1,6.6c-2.1,1.7-5.1,2.6-9,2.6c-4.9,0-9.1-1.5-12.4-4.6
		l2.6-4.3l0.1-0.1l0.1,0.1c1.3,1.7,2.7,3,4.1,3.8c1.4,0.9,3.3,1.3,5.8,1.3c2.3,0,4.1-0.4,5.4-1.2c1.3-0.8,2-2,2-3.4
		c0-1.2-0.5-2.3-1.6-3.1c-1.1-0.8-3-1.7-5.8-2.6c-7.3-2.1-11-5.1-11-9.1c0-2.3,0.9-4,2.8-5.4c1.9-1.3,4.5-2,8-2
		c2.6,0,4.9,0.4,6.7,1.1c1.8,0.7,3.5,1.9,5,3.5l-2.6,3.2l-0.1,0.1c-0.9-1.4-2.2-2.4-3.8-3.2c-1.6-0.8-3.3-1.2-5-1.2
		c-1.8,0-3.3,0.3-4.5,1c-1.2,0.6-1.8,1.5-1.8,2.7c0,1.1,0.6,2,1.8,2.9c1.2,0.9,3.3,1.8,6.5,2.7C241,49.8,243.6,51,245.1,52.3z
		 M225.4,57.2c0,0,0.1,0,0.3,0.1l-0.1,0.2C225.4,57.3,225.3,57.2,225.4,57.2z M226.2,57.4c0,0.2-0.2,0.2-0.6,0l0.2-0.3L226.2,57.4
		L226.2,57.4z M244,44.1l-0.2,0.3l-0.3-0.3C243.5,43.8,243.6,43.8,244,44.1z M244.3,44.2c0,0-0.1,0-0.2,0c-0.1,0-0.1-0.1-0.2-0.1
		l0.2-0.2C244.3,44,244.4,44.1,244.3,44.2z"/>
	<path class="st0" d="M255.8,36.7h4.5v5.2c1.2-1.8,2.6-3.2,4.3-4.3c1.7-1.1,3.6-1.6,5.6-1.6c2.6,0,4.7,1,6.2,3
		c1.6,2,2.3,5.1,2.3,9.2v17.7h-4.5V48.3c0-2.9-0.5-5-1.5-6.3c-1-1.3-2.3-2-3.9-2c-1.3,0-2.7,0.4-4,1.2c-1.3,0.8-2.5,1.8-3.3,3.2
		c-0.9,1.4-1.3,3-1.3,4.7v16.8h-4.5V36.7z"/>
	<path class="st0" d="M289.6,65.9v-3.7h7.5V40.4H290v-3.7h11.7v25.5h6.8v3.7H289.6z M296.8,29.6c-0.6-0.6-1-1.4-1-2.3
		c0-0.9,0.3-1.7,0.9-2.4c0.6-0.6,1.4-1,2.3-1c0.9,0,1.7,0.3,2.3,1c0.7,0.7,1,1.4,1,2.3c0,0.9-0.3,1.7-1,2.3c-0.7,0.6-1.4,1-2.3,1
		C298.2,30.6,297.4,30.2,296.8,29.6z"/>
	<path class="st0" d="M319,36.7h4.7v5.8c0.6-2.1,1.7-3.7,3.3-4.8c1.6-1.1,3.4-1.6,5.6-1.6c2.2,0,4.3,0.6,6.1,1.7
		c1.9,1.1,3.3,2.8,4.4,5.1c1.1,2.3,1.7,5,1.7,8.2c0,3.3-0.6,6.1-1.7,8.5c-1.2,2.4-2.7,4.1-4.6,5.3c-1.9,1.2-3.9,1.8-6,1.8
		c-1.7,0-3.4-0.4-4.9-1.2c-1.5-0.8-2.8-1.9-3.8-3.4v14.5H319V36.7z M337.6,59.9c1.6-1.8,2.4-4.7,2.4-8.7c0-3.6-0.7-6.4-2.1-8.3
		c-1.4-1.9-3.4-2.9-6-2.9c-2.4,0-4.4,1-5.9,3c-1.5,2-2.3,5.1-2.3,9.2c0.1,3.4,0.8,5.9,2.2,7.7c1.4,1.7,3.3,2.6,5.8,2.6
		C334,62.6,336,61.7,337.6,59.9z"/>
	<path class="st0" d="M351,36.7h4.7v5.8c0.6-2.1,1.7-3.7,3.3-4.8c1.6-1.1,3.4-1.6,5.6-1.6c2.2,0,4.3,0.6,6.1,1.7
		c1.9,1.1,3.3,2.8,4.4,5.1c1.1,2.3,1.7,5,1.7,8.2c0,3.3-0.6,6.1-1.7,8.5c-1.2,2.4-2.7,4.1-4.6,5.3c-1.9,1.2-3.9,1.8-6,1.8
		c-1.7,0-3.4-0.4-4.9-1.2c-1.5-0.8-2.8-1.9-3.8-3.4v14.5H351V36.7z M369.5,59.9c1.6-1.8,2.4-4.7,2.4-8.7c0-3.6-0.7-6.4-2.1-8.3
		c-1.4-1.9-3.4-2.9-6-2.9c-2.4,0-4.4,1-5.9,3c-1.5,2-2.3,5.1-2.3,9.2c0.1,3.4,0.8,5.9,2.2,7.7c1.4,1.7,3.3,2.6,5.8,2.6
		C366,62.6,367.9,61.7,369.5,59.9z"/>
	<path class="st0" d="M386.1,62.6c-2.6-2.6-3.9-6.4-3.9-11.2c0-3.2,0.6-6,1.8-8.3c1.2-2.3,2.8-4.1,4.8-5.3c2-1.2,4.3-1.8,6.8-1.8
		c3.5,0,6.4,1.2,8.6,3.5c2.2,2.3,3.3,5.8,3.3,10.4c0,0.5,0,1.2-0.1,2.1h-20.8c0.2,3.6,1.2,6.3,3,8.1c1.8,1.8,4.2,2.7,7,2.7
		c3.1,0,5.6-1.1,7.5-3.3l2.6,2.5c-2.5,3-5.9,4.5-10.2,4.5S388.7,65.2,386.1,62.6z M402.9,48.4c0-2.7-0.7-4.9-2.1-6.5
		c-1.4-1.6-3.2-2.4-5.5-2.4c-2.1,0-4,0.7-5.6,2.2c-1.6,1.5-2.6,3.7-2.9,6.7H402.9z"/>
	<path class="st0" d="M439.5,63.2c-2.8,2.1-5.9,3.1-9.3,3.1c-3.2,0-5.5-1-6.9-2.9s-2-5.2-2-9.6c0-0.7,0-2,0.1-3.8l0.6-9.6h-6.5v-3.8
		h6.7l0.4-7.8l5.1-0.8l0.6-0.1l0.1,0.4c-0.3,0.4-0.5,0.8-0.7,1.1c-0.2,0.3-0.2,0.8-0.3,1.4l-0.7,5.8h9.7v3.8h-10l-0.6,9.9
		c-0.1,1.7-0.1,2.8-0.1,3.4c0,3.4,0.4,5.7,1.2,6.9c0.8,1.2,2.1,1.8,3.8,1.8c1.3,0,2.5-0.2,3.5-0.7c1.1-0.5,2.3-1.2,3.6-2.2
		L439.5,63.2z"/>
	<path class="st0" d="M446.5,76.1v-3.6h3.3c2.9,0,5-0.6,6.2-1.7c1.2-1.1,1.9-3.1,1.9-6l-0.2-5.4c0-5.4,1.8-8.7,5.4-9.9
		c-3.7-1.6-5.6-4.8-5.6-9.5l0.1-4.5c0-4.5-2-6.8-5.9-6.8h-5.2v-3.6h4c7.8,0,11.6,3.7,11.6,11.1l-0.1,4.6c0,2.4,0.5,4.1,1.5,5.2
		s2.5,1.6,4.5,1.6h1.2v3.6h-1.3c-2,0-3.4,0.5-4.3,1.6c-0.9,1-1.4,2.9-1.4,5.6l0.3,6.4c0.1,2.9-0.3,5.2-1.2,6.8
		c-1,1.6-2.4,2.7-4.4,3.4c-2,0.6-4.6,1-7.9,1H446.5z"/>
</g>
</svg>
