<?xml version="1.0" encoding="utf-8"?>
<!-- Generator: Adobe Illustrator 22.0.1, SVG Export Plug-In . SVG Version: 6.00 Build 0)  -->
<svg version="1.1" id="Layer_1" xmlns="http://www.w3.org/2000/svg" xmlns:xlink="http://www.w3.org/1999/xlink" x="0px" y="0px"
	 viewBox="0 0 300 300" style="enable-background:new 0 0 300 300;" xml:space="preserve">
<style type="text/css">
	.st0{fill:url(#SVGID_1_);}
	.st1{fill:url(#SVGID_2_);}
	.st2{fill:#14559A;}
	.st3{fill:url(#SVGID_3_);}
	.st4{fill:#3092C4;}
	.st5{fill:#1969BC;}
	.st6{fill:url(#SVGID_4_);}
	.st7{fill:url(#SVGID_5_);}
	.st8{fill:url(#SVGID_6_);}
	.st9{fill:#2B74B1;}
	.st10{fill:#125A9E;}
	.st11{fill:url(#SVGID_7_);}
	.st12{fill:url(#SVGID_8_);}
	.st13{fill:#0D82CA;}
	.st14{fill:url(#SVGID_9_);}
	.st15{fill:#127BCA;}
	.st16{fill:url(#SVGID_10_);}
	.st17{fill:url(#SVGID_11_);}
	.st18{fill:#05A1E6;}
	.st19{fill:url(#SVGID_12_);}
	.st20{fill:url(#SVGID_13_);}
	.st21{fill:url(#SVGID_14_);}
	.st22{fill:#079AE1;}
	.st23{fill:#1E5CB3;}
	.st24{fill:#1D60B5;}
	.st25{fill:#175FAB;}
	.st26{fill:url(#SVGID_15_);}
	.st27{fill:#7DCBEC;}
	.st28{fill:#5EC5ED;}
	.st29{fill:url(#SVGID_16_);}
	.st30{fill:url(#SVGID_17_);}
	.st31{fill:url(#SVGID_18_);}
</style>
<g>
	<path d="M225.4,162c0-0.4-0.1-0.6-0.3-0.8c-0.2-0.2-0.6-0.3-1.1-0.3h-0.8v2.1h0.9C225,163.1,225.4,162.7,225.4,162L225.4,162z
		 M226.6,166.4h-1l-0.7-1.5c-0.3-0.7-0.7-1.1-1.1-1.1h-0.6v2.6h-0.9v-6.2h1.7c0.8,0,1.3,0.2,1.7,0.5c0.3,0.3,0.5,0.7,0.5,1.2
		c0,0.4-0.1,0.8-0.4,1.1c-0.3,0.3-0.7,0.5-1.2,0.6v0c0.3,0.1,0.7,0.5,1,1.1L226.6,166.4L226.6,166.4L226.6,166.4z M228.5,163.4
		c0-1.2-0.4-2.2-1.2-3c-0.8-0.8-1.8-1.2-3-1.2c-1.2,0-2.3,0.4-3.1,1.2c-0.8,0.8-1.2,1.8-1.2,3c0,1.2,0.4,2.3,1.3,3.1
		c0.8,0.8,1.8,1.2,3,1.2c1.2,0,2.2-0.4,3-1.2C228.1,165.6,228.5,164.6,228.5,163.4L228.5,163.4z M229.1,163.4c0,1.4-0.5,2.5-1.4,3.4
		c-0.9,0.9-2.1,1.4-3.5,1.4c-1.4,0-2.5-0.5-3.5-1.3c-0.9-0.9-1.4-2-1.4-3.4c0-1.3,0.5-2.5,1.4-3.4c0.9-0.9,2.1-1.4,3.5-1.4
		c1.4,0,2.5,0.4,3.4,1.3C228.6,160.8,229.1,162,229.1,163.4L229.1,163.4z M97.5,180.5h-3v-17.1c0-1.3,0.1-3,0.2-4.9h-0.1
		c-0.3,1.1-0.5,2-0.8,2.5l-8.7,19.5h-1.5l-8.7-19.4c-0.2-0.5-0.5-1.4-0.8-2.6h-0.1c0.1,1,0.1,2.7,0.1,5v17h-2.9v-25.4h3.9l7.8,17.7
		c0.6,1.3,1,2.4,1.2,3h0.1c0.5-1.4,0.9-2.4,1.2-3.1l8-17.7h3.7L97.5,180.5L97.5,180.5L97.5,180.5z M106.7,180.5h-2.9v-18.2h2.9
		V180.5z M107.2,155.9c0,0.5-0.2,1-0.6,1.3c-0.4,0.4-0.8,0.6-1.4,0.6c-0.5,0-1-0.2-1.3-0.5c-0.4-0.4-0.6-0.8-0.6-1.4
		c0-0.5,0.2-1,0.6-1.3c0.4-0.4,0.8-0.5,1.3-0.5c0.5,0,1,0.2,1.4,0.5C107,154.9,107.2,155.3,107.2,155.9z M124.8,179.7
		c-1.4,0.9-3.1,1.3-5,1.3c-2.6,0-4.7-0.9-6.3-2.6c-1.6-1.7-2.3-3.8-2.3-6.5c0-3,0.9-5.4,2.6-7.2c1.7-1.8,4-2.7,6.9-2.7
		c1.6,0,3,0.3,4.2,0.9v3c-1.4-1-2.8-1.4-4.3-1.4c-1.9,0-3.4,0.6-4.5,1.9c-1.2,1.3-1.8,3.1-1.8,5.3c0,2.1,0.6,3.8,1.7,5
		c1.1,1.2,2.6,1.8,4.5,1.8c1.6,0,3.1-0.5,4.5-1.6L124.8,179.7L124.8,179.7z M138.7,165.3c-0.5-0.4-1.2-0.6-2.2-0.6
		c-1.2,0-2.2,0.5-3,1.6c-0.9,1.2-1.4,2.8-1.4,4.9v9.3h-2.9v-18.2h2.9v3.7h0.1c0.4-1.3,1.1-2.3,2-3.1c0.8-0.7,1.8-1,2.8-1
		c0.8,0,1.3,0.1,1.7,0.2L138.7,165.3L138.7,165.3z M154.9,171.5c0-2.3-0.5-4.1-1.6-5.3c-1-1.2-2.4-1.8-4.3-1.8
		c-1.8,0-3.3,0.6-4.3,1.8c-1.1,1.3-1.7,3.1-1.7,5.4c0,2.2,0.5,3.9,1.6,5.1c1.1,1.2,2.6,1.8,4.4,1.8c1.9,0,3.4-0.6,4.4-1.9
		C154.4,175.4,154.9,173.7,154.9,171.5 M157.9,171.4c0,2.9-0.8,5.2-2.4,7c-1.6,1.7-3.8,2.6-6.6,2.6c-2.7,0-4.9-0.9-6.5-2.6
		c-1.6-1.7-2.3-3.9-2.3-6.7c0-3.2,0.9-5.6,2.7-7.3c1.6-1.6,3.8-2.4,6.6-2.4c2.7,0,4.8,0.8,6.3,2.5
		C157.1,166.1,157.9,168.4,157.9,171.4 M172.3,175.7c0,1.5-0.6,2.7-1.7,3.7c-1.2,1.1-2.9,1.6-5,1.6c-1.7,0-3.2-0.4-4.5-1.1v-3.1
		c1.4,1.2,3,1.7,4.7,1.7c2.3,0,3.5-0.8,3.5-2.5c0-0.7-0.3-1.3-0.8-1.8c-0.5-0.5-1.5-1-3-1.7c-1.5-0.7-2.6-1.3-3.2-2.1
		c-0.8-0.8-1.2-1.9-1.2-3.3c0-1.5,0.6-2.8,1.8-3.8c1.2-1,2.7-1.5,4.6-1.5c1.4,0,2.7,0.3,3.9,0.9v2.9c-1.2-0.9-2.6-1.3-4.1-1.3
		c-1,0-1.7,0.2-2.3,0.7c-0.6,0.5-0.9,1.1-0.9,1.8c0,0.8,0.2,1.4,0.7,1.9c0.4,0.4,1.3,0.9,2.7,1.5c1.6,0.6,2.7,1.3,3.4,2
		C171.8,173.2,172.3,174.3,172.3,175.7 M190,171.5c0-2.3-0.5-4.1-1.6-5.3c-1-1.2-2.4-1.8-4.3-1.8c-1.8,0-3.3,0.6-4.3,1.8
		c-1.1,1.3-1.7,3.1-1.7,5.4c0,2.2,0.5,3.9,1.6,5.1c1.1,1.2,2.6,1.8,4.4,1.8c1.9,0,3.4-0.6,4.4-1.9C189.5,175.4,190,173.7,190,171.5
		 M193,171.4c0,2.9-0.8,5.2-2.5,7c-1.6,1.7-3.8,2.6-6.6,2.6c-2.7,0-4.9-0.9-6.5-2.6c-1.6-1.7-2.3-3.9-2.3-6.7c0-3.2,0.9-5.6,2.7-7.3
		c1.6-1.6,3.8-2.4,6.6-2.4c2.7,0,4.8,0.8,6.3,2.5C192.3,166.1,193,168.4,193,171.4 M205.8,156.2c-0.6-0.3-1.2-0.5-1.9-0.5
		c-2,0-3,1.3-3,3.8v2.8h4.3v2.5h-4.3v15.7H198v-15.7h-3.1v-2.5h3.1v-2.9c0-2,0.6-3.6,1.9-4.7c1.1-1,2.4-1.5,3.9-1.5
		c0.9,0,1.6,0.1,2.1,0.3V156.2L205.8,156.2z M217.3,180.4c-0.7,0.4-1.6,0.6-2.7,0.6c-3.2,0-4.8-1.8-4.8-5.4v-10.7h-3.1v-2.5h3.1
		v-4.4c0.9-0.3,1.9-0.6,2.9-0.9v5.4h4.6v2.5h-4.6v10.2c0,1.2,0.2,2.1,0.6,2.6c0.4,0.5,1.1,0.8,2.1,0.8c0.7,0,1.3-0.2,1.9-0.6V180.4z
		"/>
	<g>
		<path d="M60.2,251.4c0,1.4-0.5,2.7-1.5,3.7c-1,1-2.3,1.6-3.7,1.6c-1.4,0-2.6-0.5-3.6-1.6c-1-1-1.5-2.3-1.5-3.7
			c0-1.5,0.5-2.7,1.5-3.7c1-1,2.2-1.5,3.6-1.5c1.5,0,2.7,0.5,3.7,1.6C59.7,248.8,60.2,250,60.2,251.4 M125.3,255.6h-9.5l-34.4-53.1
			c-0.8-1.3-1.5-2.7-2.1-4.2H79c0.2,1.4,0.4,4.5,0.4,9.2v48.2h-7.8v-66.7h10.1l33.4,52.3c1.3,2.1,2.2,3.6,2.7,4.5h0.2
			c-0.3-1.9-0.5-5.2-0.5-9.8v-47h7.8L125.3,255.6L125.3,255.6z M175.4,255.6H140v-66.7h33.8v7.1h-26v22.2h24.1v7.1h-24.1v23.3h27.5
			L175.4,255.6L175.4,255.6z M229,196h-19.2v59.6h-7.8V196h-19.2v-7.1H229L229,196L229,196z"/>
	</g>
	<g>
		
			<linearGradient id="SVGID_1_" gradientUnits="userSpaceOnUse" x1="-1.6408" y1="300.1407" x2="-1.6408" y2="300.015" gradientTransform="matrix(445.3907 0 0 -794.2871 872.1583 238455.8125)">
			<stop  offset="0" style="stop-color:#0994DC"/>
			<stop  offset="0.35" style="stop-color:#66CEF5"/>
			<stop  offset="0.35" style="stop-color:#66CEF5"/>
			<stop  offset="0.8462" style="stop-color:#127BCA"/>
			<stop  offset="0.8462" style="stop-color:#127BCA"/>
			<stop  offset="1" style="stop-color:#127BCA"/>
		</linearGradient>
		<path class="st0" d="M122.6,73.8c7.5,23.1,10.4,64.2,32.4,64.2c1.7,0,3.4-0.2,5.1-0.5c-20-4.7-22.4-45.4-34.6-66.4
			C124.5,71.9,123.5,72.8,122.6,73.8"/>
		
			<linearGradient id="SVGID_2_" gradientUnits="userSpaceOnUse" x1="-1.6281" y1="300.1083" x2="-1.6281" y2="299.9827" gradientTransform="matrix(467.4707 0 0 -814.5215 906.2695 244500.0938)">
			<stop  offset="0" style="stop-color:#0E76BC"/>
			<stop  offset="0.36" style="stop-color:#36AEE8"/>
			<stop  offset="0.36" style="stop-color:#36AEE8"/>
			<stop  offset="0.8462" style="stop-color:#00ADEF"/>
			<stop  offset="0.8462" style="stop-color:#00ADEF"/>
			<stop  offset="1" style="stop-color:#00ADEF"/>
		</linearGradient>
		<path class="st1" d="M125.5,71c12.2,21.1,14.6,61.7,34.6,66.4c1.6-0.3,3.2-0.7,4.7-1.3c-18-8.8-23-48.3-36.8-67.3
			C127.2,69.6,126.3,70.3,125.5,71"/>
		<path class="st2" d="M143.1,58.5c-1.7,0-3.4,0.2-5.1,0.5c-4.5,0.8-9,2.8-13.6,5.7c1.2,1.2,2.4,2.6,3.6,4.2
			c4.6-3.9,9.3-6.7,13.9-8.4c1.7-0.6,3.4-1.1,5.2-1.4C145.8,58.7,144.4,58.5,143.1,58.5"/>
		
			<linearGradient id="SVGID_3_" gradientUnits="userSpaceOnUse" x1="-2.245" y1="299.8615" x2="-2.245" y2="299.9602" gradientTransform="matrix(443.8769 0 0 -825.1953 1162.2266 247579.9531)">
			<stop  offset="0" style="stop-color:#1C63B7"/>
			<stop  offset="0.5" style="stop-color:#33BDF2"/>
			<stop  offset="1" style="stop-color:#33BDF2;stop-opacity:0.42"/>
		</linearGradient>
		<path class="st3" d="M178.9,128.1c1.9-1.5,3.8-3.1,5.5-4.8c-7.7-22.9-10.4-64.7-32.6-64.7c-1.6,0-3.2,0.1-4.8,0.4
			C167.3,64,169.9,108,178.9,128.1"/>
		<path class="st4" d="M147,59c-1.3-0.3-2.6-0.5-3.9-0.5l8.7,0C150.2,58.5,148.6,58.7,147,59"/>
		<path class="st5" d="M178.5,132.9c-0.9-0.8-1.7-1.7-2.5-2.7c-3.7,2.6-7.5,4.6-11.2,6c1.3,0.6,2.7,1.1,4.2,1.4
			c1.2,0.2,2.4,0.4,3.5,0.4c4.1,0,7.4-0.5,10.2-1.8C181.2,135.3,179.8,134.2,178.5,132.9"/>
		
			<linearGradient id="SVGID_4_" gradientUnits="userSpaceOnUse" x1="-2.1396" y1="299.9782" x2="-2.1396" y2="299.8525" gradientTransform="matrix(439.5606 0 0 -845.6836 1100.8495 253731.7031)">
			<stop  offset="0" style="stop-color:#166AB8"/>
			<stop  offset="0.4" style="stop-color:#36AEE8"/>
			<stop  offset="0.4" style="stop-color:#36AEE8"/>
			<stop  offset="0.8462" style="stop-color:#0798DD"/>
			<stop  offset="0.8462" style="stop-color:#0798DD"/>
			<stop  offset="1" style="stop-color:#0798DD"/>
		</linearGradient>
		<path class="st6" d="M141.9,60.4c18.1,9.5,19.7,52.4,34.1,69.8c1-0.7,1.9-1.4,2.9-2.2c-9-20-11.6-64-31.9-69.1
			C145.3,59.3,143.5,59.8,141.9,60.4"/>
		
			<linearGradient id="SVGID_5_" gradientUnits="userSpaceOnUse" x1="-1.3763" y1="299.9979" x2="-1.3763" y2="299.8723" gradientTransform="matrix(569.834 0 0 -899.2383 936.2988 269815.25)">
			<stop  offset="0" style="stop-color:#124379"/>
			<stop  offset="0.39" style="stop-color:#1487CB"/>
			<stop  offset="0.39" style="stop-color:#1487CB"/>
			<stop  offset="0.7802" style="stop-color:#165197"/>
			<stop  offset="0.7802" style="stop-color:#165197"/>
			<stop  offset="1" style="stop-color:#165197"/>
		</linearGradient>
		<path class="st7" d="M128,68.8c13.9,19,18.9,58.5,36.8,67.3c3.7-1.3,7.4-3.3,11.2-6c-14.5-17.4-16-60.3-34.1-69.8
			C137.3,62.1,132.7,65,128,68.8"/>
		
			<linearGradient id="SVGID_6_" gradientUnits="userSpaceOnUse" x1="-3.0368" y1="300.1611" x2="-2.9526" y2="300.1611" gradientTransform="matrix(189.6387 0 0 -301.9629 682.5293 90717.8203)">
			<stop  offset="0" style="stop-color:#33BDF2;stop-opacity:0.698"/>
			<stop  offset="1" style="stop-color:#1DACD8"/>
		</linearGradient>
		<path class="st8" d="M113.7,73.2c-2.2,4.9-4.4,11.4-7.1,19.8c5.3-7.5,10.7-14,16-19.3c-0.7-2.2-1.5-4.3-2.4-6.2
			C118,69.3,115.8,71.2,113.7,73.2"/>
		<path class="st9" d="M122.2,66.2c-0.7,0.5-1.3,0.9-1.9,1.4c0.8,1.8,1.6,3.9,2.4,6.2c0.9-0.9,1.9-1.8,2.9-2.7
			C124.5,69.3,123.4,67.6,122.2,66.2"/>
		<path class="st10" d="M124.5,64.7c-0.8,0.5-1.5,1-2.3,1.5c1.2,1.5,2.3,3.1,3.3,4.9c0.8-0.8,1.7-1.5,2.5-2.2
			C126.9,67.3,125.7,65.9,124.5,64.7"/>
		
			<linearGradient id="SVGID_7_" gradientUnits="userSpaceOnUse" x1="-1.9325" y1="299.8614" x2="-1.9325" y2="299.9437" gradientTransform="matrix(772.8809 0 0 -963.6634 1720.1561 289099)">
			<stop  offset="0" style="stop-color:#136AB4"/>
			<stop  offset="0.6" style="stop-color:#59CAF5;stop-opacity:0.549"/>
			<stop  offset="1" style="stop-color:#59CAF5;stop-opacity:0.235"/>
		</linearGradient>
		<path class="st11" d="M248,56.7c-10.2,39.5-31.6,71.2-49.6,79.2h0c-0.3,0.1-0.6,0.3-1,0.4c0,0-0.1,0-0.1,0c-0.1,0-0.2,0.1-0.3,0.1
			c0,0-0.1,0-0.1,0.1c-0.2,0.1-0.3,0.1-0.4,0.2c-0.1,0-0.1,0-0.2,0.1c-0.1,0-0.1,0.1-0.2,0.1c-0.1,0-0.1,0-0.2,0.1
			c-0.1,0-0.1,0-0.2,0.1c-0.1,0-0.3,0.1-0.4,0.1c-0.1,0-0.1,0-0.2,0c-0.1,0-0.2,0-0.3,0.1c-0.1,0-0.1,0-0.2,0
			c-0.1,0-0.2,0.1-0.3,0.1l-0.3,0.1c0.8,0.3,1.7,0.5,2.6,0.5c17,0,34.2-30.5,62.5-81.2L248,56.7L248,56.7L248,56.7z"/>
		
			<linearGradient id="SVGID_8_" gradientUnits="userSpaceOnUse" x1="5.731082e-02" y1="299.9189" x2="0.1415" y2="299.9189" gradientTransform="matrix(703.3398 0 0 -968.3691 9.6388 290531.5)">
			<stop  offset="0" style="stop-color:#05A1E6;stop-opacity:0.247"/>
			<stop  offset="1" style="stop-color:#05A1E6"/>
		</linearGradient>
		<path class="st12" d="M102.9,60.1C102.9,60.1,103,60.1,102.9,60.1C103,60.1,103,60.1,102.9,60.1L102.9,60.1
			c0.2-0.1,0.3-0.1,0.4-0.2c0,0,0,0,0.1,0c0,0,0,0,0.1,0c0.1,0,0.2-0.1,0.3-0.1h0c0.2-0.1,0.4-0.2,0.7-0.2c0,0,0.1,0,0.1,0
			c0.1,0,0.2-0.1,0.3-0.1c0,0,0.1,0,0.1,0c0.1,0,0.2-0.1,0.3-0.1c0,0,0.1,0,0.1,0c0.3-0.1,0.6-0.2,0.9-0.2c0,0,0.1,0,0.1,0
			c0.1,0,0.2,0,0.3-0.1c0,0,0.1,0,0.1,0c0.1,0,0.2,0,0.3-0.1h0.1c0.2,0,0.4-0.1,0.6-0.1h0.1c0.1,0,0.2,0,0.3,0c0,0,0.1,0,0.1,0
			c0.1,0,0.2,0,0.3,0c0,0,0.1,0,0.1,0c0.2,0,0.4,0,0.6-0.1c-0.6-0.1-1.2-0.1-1.8-0.1c-19.2,0-45.5,35.5-57.4,81.6h2.3
			c3.8-6.8,7.2-13.2,10.3-19.2C70.9,88.2,87.9,66,102.9,60.1"/>
		<path class="st13" d="M113.7,73.2c2.1-2,4.3-3.9,6.5-5.6c-0.5-1-1-2-1.6-3C116.9,66.7,115.3,69.5,113.7,73.2"/>
		<path class="st13" d="M115.3,60.4c1.3,1,2.4,2.5,3.4,4.2c0.3-0.4,0.6-0.8,1-1.1c-1.4-1.3-3-2.4-4.6-3.2
			C115.1,60.3,115.2,60.3,115.3,60.4C115.3,60.3,115.3,60.4,115.3,60.4"/>
		
			<linearGradient id="SVGID_9_" gradientUnits="userSpaceOnUse" x1="-0.1606" y1="299.8673" x2="-0.1606" y2="299.98" gradientTransform="matrix(479.0137 0 0 -720.9277 159.668 216318.2812)">
			<stop  offset="0" style="stop-color:#318ED5"/>
			<stop  offset="1" style="stop-color:#38A7E4"/>
		</linearGradient>
		<path class="st14" d="M62.6,120.8c17.5-33.7,25.7-55,40.4-60.7C87.9,66,70.9,88.2,62.6,120.8"/>
		<path class="st15" d="M119.7,63.5c-0.3,0.3-0.7,0.7-1,1.1c0.6,1,1.1,2,1.6,3c0.6-0.5,1.3-1,1.9-1.4
			C121.4,65.2,120.6,64.3,119.7,63.5"/>
		
			<linearGradient id="SVGID_10_" gradientUnits="userSpaceOnUse" x1="-0.3353" y1="300.5286" x2="-0.3353" y2="300.6701" gradientTransform="matrix(445.3516 0 0 -557.8906 237.1875 167797.9531)">
			<stop  offset="0" style="stop-color:#05A1E6"/>
			<stop  offset="1" style="stop-color:#05A1E6;stop-opacity:0.549"/>
		</linearGradient>
		<path class="st16" d="M70.5,139.9c-0.1,0-0.2,0-0.3,0h-0.1c-0.1,0-0.2,0-0.3,0h0c-0.2,0-0.4,0-0.6,0h-0.1
			c17.7-0.5,25.8-9.3,29.8-22.2c3-9.7,5.6-17.9,7.7-24.8c-7.4,10.4-14.8,22.8-22.3,36.8C80.7,136.5,75.2,139.3,70.5,139.9"/>
		
			<linearGradient id="SVGID_11_" gradientUnits="userSpaceOnUse" x1="-0.3152" y1="300.07" x2="-0.3152" y2="300.1543" gradientTransform="matrix(512.8906 0 0 -791.9336 253.7988 237775.4375)">
			<stop  offset="0" style="stop-color:#1959A6"/>
			<stop  offset="0.5" style="stop-color:#05A1E6"/>
			<stop  offset="0.5" style="stop-color:#05A1E6"/>
			<stop  offset="0.9176" style="stop-color:#7EC5EA"/>
			<stop  offset="1" style="stop-color:#7EC5EA"/>
		</linearGradient>
		<path class="st17" d="M70.5,139.9c4.7-0.6,10.2-3.4,13.8-10.1c7.5-13.9,14.9-26.3,22.3-36.8c2.7-8.4,4.9-14.9,7.1-19.8
			C99,87.2,84.2,110.6,70.5,139.9"/>
		<path class="st18" d="M62.6,120.8c-3.1,6-6.5,12.4-10.3,19.2h6.7C59.7,133.6,61,127.2,62.6,120.8"/>
		
			<linearGradient id="SVGID_12_" gradientUnits="userSpaceOnUse" x1="-3.023523e-02" y1="299.8829" x2="-4.820578e-02" y2="299.9578" gradientTransform="matrix(709.7363 0 0 -966.8456 116.1426 290076.1562)">
			<stop  offset="0" style="stop-color:#165096"/>
			<stop  offset="1" style="stop-color:#0D82CA"/>
		</linearGradient>
		<path class="st19" d="M108.6,58.7c-0.1,0-0.1,0-0.1,0c-0.1,0-0.2,0-0.2,0c0,0-0.1,0-0.1,0c-0.1,0-0.2,0-0.3,0c0,0-0.1,0-0.1,0
			c-0.2,0-0.4,0.1-0.6,0.1H107c-0.1,0-0.2,0-0.3,0.1c0,0-0.1,0-0.1,0c-0.1,0-0.2,0-0.3,0.1c0,0-0.1,0-0.1,0
			c-0.3,0.1-0.6,0.2-0.9,0.2c0,0-0.1,0-0.1,0c-0.1,0-0.2,0.1-0.3,0.1c0,0-0.1,0-0.1,0c-0.1,0-0.2,0.1-0.3,0.1c0,0-0.1,0-0.1,0
			c-0.2,0.1-0.4,0.2-0.6,0.2c-0.1,0-0.2,0.1-0.3,0.1c0,0-0.1,0-0.1,0.1c-0.1,0-0.2,0.1-0.3,0.1c0,0-0.1,0-0.1,0
			c-14.6,5.8-22.9,27.1-40.4,60.7c-1.6,6.3-2.8,12.8-3.7,19.2h0.9c2.6,0,3.4,0,6.4,0h2.9c0.2,0,0.4,0,0.6,0h0c0.1,0,0.2,0,0.3,0h0.1
			c0.1,0,0.2,0,0.3,0c13.7-29.3,28.5-52.7,43.2-66.7c1.6-3.7,3.2-6.5,5-8.6c-1-1.7-2.1-3.2-3.4-4.2c0,0,0,0,0,0
			c-0.1,0-0.1-0.1-0.2-0.1c-0.1,0-0.1-0.1-0.2-0.1c-0.1,0-0.1-0.1-0.2-0.1c-0.1,0-0.2-0.1-0.2-0.1c-0.1,0-0.1-0.1-0.2-0.1
			c-0.1-0.1-0.3-0.1-0.4-0.2c-0.1,0-0.1,0-0.2-0.1c-0.1,0-0.2-0.1-0.3-0.1c0,0-0.1,0-0.2-0.1c-0.1,0-0.3-0.1-0.4-0.1h0
			c-0.2-0.1-0.3-0.1-0.5-0.1c0,0-0.1,0-0.1,0c-0.1,0-0.3-0.1-0.4-0.1c0,0-0.1,0-0.1,0c-0.3-0.1-0.6-0.2-1-0.2c0,0-0.1,0-0.1,0
			c-0.1,0-0.3-0.1-0.4-0.1c0,0-0.1,0-0.1,0c-0.2,0-0.3,0-0.5-0.1h-0.1c-0.1,0-0.3,0-0.4,0C109,58.7,108.8,58.7,108.6,58.7"/>
		
			<linearGradient id="SVGID_13_" gradientUnits="userSpaceOnUse" x1="-4.914" y1="299.8678" x2="-4.914" y2="299.9355" gradientTransform="matrix(319.9902 0 0 -558.8477 1785.4591 167675.1875)">
			<stop  offset="0" style="stop-color:#05A1E6"/>
			<stop  offset="0.8736" style="stop-color:#0495D6"/>
			<stop  offset="1" style="stop-color:#0495D6"/>
		</linearGradient>
		<path class="st20" d="M208,78.6c-3.4,10.8-6.1,19.6-8.5,27c9.2-12.7,18.3-28.7,27-47.1C216.4,61.7,211,68.9,208,78.6"/>
		
			<linearGradient id="SVGID_14_" gradientUnits="userSpaceOnUse" x1="-2.619" y1="299.9433" x2="-2.6451" y2="299.8506" gradientTransform="matrix(588.5743 0 0 -940.6543 1772.2362 282196.4062)">
			<stop  offset="0" style="stop-color:#38A7E4;stop-opacity:0.329"/>
			<stop  offset="0.9615" style="stop-color:#0E88D3"/>
			<stop  offset="0.9615" style="stop-color:#0E88D3"/>
			<stop  offset="1" style="stop-color:#0E88D3"/>
		</linearGradient>
		<path class="st21" d="M199.8,135.3c-0.5,0.2-0.9,0.5-1.4,0.7c17.9-8,39.3-39.7,49.6-79.2h-2.1C222.4,98.8,214.8,126.9,199.8,135.3
			"/>
		<path class="st22" d="M188.1,131.8c3.9-4.8,7.1-12.9,11.4-26.2c-5,6.9-10,12.8-15.1,17.6c0,0,0,0,0,0
			C185.5,126.5,186.7,129.4,188.1,131.8"/>
		<path class="st5" d="M188.1,131.8c-1.3,1.6-2.7,2.9-4.3,3.8c-0.3,0.2-0.7,0.4-1,0.6c1.7,0.9,3.6,1.5,5.5,1.7
			c0.3,0,0.6,0.1,0.9,0.1h0.1c0.1,0,0.3,0,0.4,0h1.5c0.1,0,0.1,0,0.2,0c0.1,0,0.2,0,0.3,0h0.2c0.1,0,0.2,0,0.3,0h0c0,0,0.1,0,0.1,0
			c0.1,0,0.3,0,0.4-0.1h0.1c0.1,0,0.3,0,0.4-0.1h0.1c0.3-0.1,0.6-0.1,0.8-0.2C191.7,136.7,189.8,134.7,188.1,131.8"/>
		<path class="st23" d="M155,137.9c1.7,0,3.4-0.2,5.1-0.5c1.6-0.3,3.2-0.7,4.7-1.3c1.3,0.6,2.7,1.1,4.2,1.4c1.2,0.2,2.4,0.4,3.5,0.3
			H155z"/>
		<path class="st23" d="M172.6,137.9c4.1,0,7.4-0.5,10.2-1.8c1.7,0.9,3.6,1.5,5.5,1.7c0.3,0,0.6,0.1,0.9,0.1h0.1c0.1,0,0.3,0,0.4,0
			h0.5L172.6,137.9L172.6,137.9L172.6,137.9z"/>
		<path class="st24" d="M190.1,137.9h1c0.1,0,0.1,0,0.2,0c0.1,0,0.2,0,0.3,0h0.2c0.1,0,0.2,0,0.3,0h0c0,0,0.1,0,0.1,0
			c0.1,0,0.3,0,0.4-0.1c0,0,0.1,0,0.1,0c0.1,0,0.3,0,0.4-0.1h0.1c0.3-0.1,0.6-0.1,0.8-0.2c0.8,0.3,1.7,0.5,2.6,0.5L190.1,137.9
			L190.1,137.9z"/>
		<path class="st25" d="M184.4,123.2L184.4,123.2c-1.8,1.7-3.6,3.3-5.5,4.8c-0.9,0.8-1.9,1.5-2.9,2.2c0.8,1,1.6,1.9,2.5,2.7
			c1.3,1.3,2.7,2.4,4.3,3.2c0.4-0.2,0.7-0.4,1-0.6c1.6-0.9,3-2.1,4.3-3.8C186.8,129.4,185.5,126.5,184.4,123.2"/>
		
			<linearGradient id="SVGID_15_" gradientUnits="userSpaceOnUse" x1="-2.0875" y1="299.9411" x2="-2.0875" y2="299.8551" gradientTransform="matrix(686.3376 0 0 -958.1152 1649.7362 287434.6562)">
			<stop  offset="0" style="stop-color:#168CD4"/>
			<stop  offset="0.5" style="stop-color:#1C87CC"/>
			<stop  offset="1" style="stop-color:#154B8D"/>
		</linearGradient>
		<path class="st26" d="M239.4,56.7h-10.4c-0.6,0-1.1,0-1.7,0.1c-0.3,0.5-0.5,1.1-0.8,1.6c-8.6,18.4-17.7,34.4-27,47.1
			c-4.3,13.3-7.5,21.4-11.4,26.2c1.7,2.8,3.6,4.8,5.9,5.7c0.1,0,0.1,0,0.2,0h0c0,0,0.1,0,0.1,0c0.1,0,0.2,0,0.3-0.1
			c0.1,0,0.1,0,0.2,0c0.1,0,0.2,0,0.3-0.1c0.1,0,0.1,0,0.2,0c0.1,0,0.3-0.1,0.4-0.1c0.1,0,0.1,0,0.2-0.1c0.1,0,0.1,0,0.2-0.1
			c0.1,0,0.2,0,0.2-0.1c0.1,0,0.1,0,0.2-0.1c0.2-0.1,0.3-0.1,0.5-0.2c0,0,0.1,0,0.1,0c0.1,0,0.2-0.1,0.3-0.1c0,0,0.1,0,0.1,0
			c0.3-0.1,0.6-0.3,1-0.4h0c0.5-0.2,0.9-0.4,1.4-0.7c15-8.4,22.6-36.5,46.1-78.6L239.4,56.7L239.4,56.7L239.4,56.7z"/>
		<path class="st27" d="M109.2,58.6c0,0,0.1,0,0.1,0c0.1,0,0.2,0,0.3,0h0.1c0.2,0,0.3,0,0.5,0.1c0,0,0.1,0,0.1,0
			c0.1,0,0.3,0,0.4,0.1c0,0,0.1,0,0.1,0c0.3,0.1,0.7,0.1,1,0.2c0,0,0.1,0,0.1,0c0.1,0,0.3,0.1,0.4,0.1c0,0,0.1,0,0.1,0
			c0.2,0,0.3,0.1,0.5,0.1c0,0,0,0,0,0c0.1,0,0.3,0.1,0.4,0.1c0.1,0,0.1,0,0.2,0.1c0.1,0,0.2,0.1,0.3,0.1c0.1,0,0.1,0,0.2,0.1
			c0.1,0.1,0.3,0.1,0.4,0.2c0.1,0,0.1,0.1,0.2,0.1c0.1,0,0.2,0.1,0.2,0.1c0.1,0,0.1,0.1,0.2,0.1c0.1,0,0.1,0.1,0.2,0.1
			c1.7,0.8,3.2,1.9,4.6,3.2c0.5-0.5,1.1-1,1.6-1.5c-3.1-2.2-6.6-3.5-10.7-3.5C110.1,58.6,109.7,58.6,109.2,58.6"/>
		<path class="st28" d="M119.7,63.5c0.9,0.8,1.7,1.7,2.5,2.7c0.7-0.5,1.5-1,2.3-1.5c-1-1-2-1.9-3.1-2.7
			C120.7,62.5,120.2,63,119.7,63.5"/>
		
			<linearGradient id="SVGID_16_" gradientUnits="userSpaceOnUse" x1="-1.8285" y1="299.8157" x2="-1.7686" y2="300.0056" gradientTransform="matrix(316.9922 0 0 41.5039 691.4746 -12388.7109)">
			<stop  offset="0" style="stop-color:#97D6EE"/>
			<stop  offset="0.7033" style="stop-color:#55C1EA"/>
			<stop  offset="1" style="stop-color:#55C1EA"/>
		</linearGradient>
		<path class="st29" d="M109.2,58.6c0.5,0,0.9-0.1,1.4-0.1c4.1,0,7.6,1.3,10.7,3.5c3.3-2.6,7.3-3.5,12.8-3.5h-26.7
			C108,58.5,108.6,58.5,109.2,58.6"/>
		
			<linearGradient id="SVGID_17_" gradientUnits="userSpaceOnUse" x1="-2.8396" y1="299.5927" x2="-2.7816" y2="299.4996" gradientTransform="matrix(258.5156 0 0 73.0859 856.9042 -21831.7383)">
			<stop  offset="0" style="stop-color:#7ACCEC"/>
			<stop  offset="1" style="stop-color:#3FB7ED"/>
		</linearGradient>
		<path class="st30" d="M134.1,58.5c-5.5,0-9.5,0.9-12.8,3.5c1.1,0.8,2.2,1.7,3.1,2.7c4.6-2.9,9.1-4.8,13.6-5.7
			c1.7-0.3,3.4-0.5,5.1-0.5H134.1L134.1,58.5z"/>
		
			<linearGradient id="SVGID_18_" gradientUnits="userSpaceOnUse" x1="-2.7556" y1="299.9241" x2="-2.7556" y2="299.8217" gradientTransform="matrix(508.2521 0 0 -787.4512 1606.377 236236.6719)">
			<stop  offset="0" style="stop-color:#1DA7E7"/>
			<stop  offset="1" style="stop-color:#37ABE7;stop-opacity:0"/>
		</linearGradient>
		<path class="st31" d="M199.5,105.6c2.4-7.3,5.1-16.2,8.5-27c3-9.7,8.4-17,18.5-20.1c0.3-0.5,0.5-1.1,0.8-1.6
			c-16.4,1-24.1,9.4-28,21.7c-6.8,21.6-10.9,35.7-14.8,44.6C189.5,118.4,194.5,112.4,199.5,105.6"/>
		<path d="M223.7,132.2h-1.9v5.8H221v-5.8h-1.9v-0.7h4.5L223.7,132.2L223.7,132.2z M231.3,138h-0.8v-4.4c0-0.3,0-0.8,0.1-1.3
			c-0.1,0.3-0.1,0.5-0.2,0.6l-2.2,5h-0.4l-2.2-4.9c-0.1-0.1-0.1-0.4-0.2-0.7h0c0,0.3,0,0.7,0,1.3v4.3h-0.7v-6.5h1l2,4.5
			c0.2,0.3,0.2,0.6,0.3,0.8h0c0.1-0.4,0.2-0.6,0.3-0.8l2-4.5h1L231.3,138L231.3,138L231.3,138z"/>
	</g>
</g>
</svg>
