<?xml version="1.0" encoding="utf-8"?>
<!-- Generator: Adobe Illustrator 22.0.1, SVG Export Plug-In . SVG Version: 6.00 Build 0)  -->
<svg version="1.1" id="Layer_1" xmlns="http://www.w3.org/2000/svg" xmlns:xlink="http://www.w3.org/1999/xlink" x="0px" y="0px"
	 viewBox="0 0 300 300" style="enable-background:new 0 0 300 300;" xml:space="preserve">
<style type="text/css">
	.st0{fill:#0080FF;}
</style>
<g>
	<path class="st0" d="M149.6,255.5v-41c43.5,0,77.1-42.9,60.3-88.3c-6.2-17.1-19.6-30.5-36.7-36.7c-33.5-12.6-70.9,4.3-83.5,37.9
		c-2.7,7.2-4.1,14.8-4.1,22.4h-41c0-68.4,66.5-122.5,139.2-100.1c31.7,10,56.5,34.8,66.5,66.5C272.7,188.9,218.6,255.5,149.6,255.5z
		"/>
	<path class="st0" d="M150.2,214.4h-41V174h41 M109.2,246.1H78.1v-31.7h31.1V246.1 M78.1,214.4H52.1v-26.1h26.1"/>
</g>
</svg>
