<?xml version="1.0" encoding="utf-8"?>
<!-- Generator: Adobe Illustrator 22.0.1, SVG Export Plug-In . SVG Version: 6.00 Build 0)  -->
<svg version="1.1" id="Layer_1" xmlns="http://www.w3.org/2000/svg" xmlns:xlink="http://www.w3.org/1999/xlink" x="0px" y="0px"
	 viewBox="0 0 300 300" style="enable-background:new 0 0 300 300;" xml:space="preserve">
<style type="text/css">
	.st0{fill:#222222;}
</style>
<g>
	<path class="st0" d="M49.3,165.6v-22.5h28.1v-1.3H49.3v-20.5h29.8V120H48v46.9h31.4v-1.3H49.3L49.3,165.6z M104.7,133.2l-11.6,15.3
		l-11.4-15.3H80l12.3,16.3l-13.5,17.5h1.6l12.7-16.5l12.7,16.5h1.6L94,149.5l12.4-16.3L104.7,133.2L104.7,133.2z M111.4,178.5v-21
		h0.1c0.8,3.1,2.3,5.5,4.7,7.4c2.3,1.9,5.3,2.8,8.9,2.8c2.3,0,4.4-0.5,6.2-1.4c1.8-0.9,3.3-2.2,4.5-3.8c1.2-1.6,2.1-3.5,2.8-5.7
		c0.6-2.1,1-4.4,1-6.8c0-2.5-0.3-4.9-1-7c-0.7-2.1-1.6-4-2.9-5.6c-1.2-1.6-2.8-2.8-4.5-3.7c-1.8-0.9-3.8-1.3-6-1.3
		c-1.7,0-3.3,0.3-4.8,0.8c-1.5,0.5-2.8,1.2-3.9,2.1c-1.1,0.9-2.1,2-3,3.3c-0.8,1.2-1.5,2.6-1.9,4.1h-0.1v-9.5h-1.3v45.3H111.4
		L111.4,178.5z M125.1,166.4c-4.1,0-7.4-1.4-9.9-4.2c-2.5-2.8-3.7-6.9-3.7-12.2c0-2.2,0.3-4.3,0.9-6.2c0.6-2,1.5-3.7,2.7-5.2
		c1.2-1.5,2.6-2.7,4.3-3.5c1.7-0.9,3.6-1.3,5.8-1.3c2.2,0,4.1,0.4,5.8,1.3c1.6,0.9,3,2.1,4.1,3.6c1.1,1.5,1.9,3.2,2.4,5.2
		c0.5,1.9,0.8,4,0.8,6.2c0,2-0.3,3.9-0.8,5.9c-0.5,1.9-1.3,3.7-2.3,5.3c-1.1,1.6-2.4,2.8-4,3.8C129.4,165.9,127.4,166.4,125.1,166.4
		L125.1,166.4z M146.7,166.9v-19.1c0-1.8,0.3-3.6,0.8-5.4c0.5-1.8,1.3-3.3,2.4-4.6c1.1-1.3,2.5-2.4,4.2-3.2c1.7-0.8,3.7-1.1,6-1
		v-1.3c-2,0-3.8,0.2-5.3,0.7c-1.5,0.5-2.8,1.1-3.9,2c-1.1,0.8-2,1.8-2.6,2.9c-0.7,1.1-1.1,2.3-1.4,3.6h-0.1v-8.3h-1.3v33.8
		L146.7,166.9L146.7,166.9z M161.8,150.3H190c0.1-2.3-0.1-4.6-0.7-6.7c-0.5-2.1-1.4-4.1-2.6-5.7c-1.2-1.7-2.8-3-4.7-4
		c-1.9-1-4.2-1.5-6.8-1.5c-1.9,0-3.7,0.4-5.5,1.2c-1.8,0.8-3.4,1.9-4.7,3.4c-1.4,1.5-2.5,3.4-3.3,5.6c-0.8,2.2-1.2,4.7-1.2,7.5
		c0,2.5,0.3,4.8,0.9,7c0.6,2.2,1.4,4.1,2.6,5.7c1.2,1.6,2.7,2.8,4.6,3.7c1.9,0.9,4.1,1.3,6.7,1.2c3.9,0,7.1-1.1,9.7-3.3
		c2.6-2.2,4.2-5.2,4.7-9.2h-1.3c-0.6,3.7-2,6.5-4.4,8.4c-2.3,1.9-5.3,2.8-8.8,2.8c-2.4,0-4.4-0.4-6.1-1.2c-1.7-0.8-3-2-4.1-3.4
		c-1.1-1.4-1.8-3.1-2.3-5.1C162.1,154.7,161.8,152.6,161.8,150.3L161.8,150.3z M188.7,149h-26.9c0.1-2.4,0.6-4.5,1.3-6.4
		c0.7-1.9,1.7-3.5,2.9-4.8c1.2-1.3,2.6-2.4,4.2-3.1c1.6-0.7,3.3-1.1,5.2-1.1c2.2,0,4.1,0.4,5.8,1.2c1.7,0.8,3.1,1.9,4.2,3.3
		c1.1,1.4,2,3,2.5,4.9C188.4,145,188.7,146.9,188.7,149L188.7,149z M217.3,143.1h1.3c0-3.8-1.1-6.5-3.3-8.2
		c-2.2-1.7-5.2-2.6-8.9-2.6c-2.1,0-3.9,0.3-5.3,0.8c-1.4,0.5-2.6,1.2-3.5,2c-0.9,0.8-1.6,1.8-2,2.8s-0.6,2-0.6,2.9
		c0,1.8,0.3,3.3,1,4.4c0.7,1.1,1.7,1.9,3.1,2.6c1,0.4,2.1,0.8,3.3,1.2c1.2,0.4,2.7,0.7,4.3,1.1c1.4,0.4,2.9,0.7,4.3,1.1
		c1.4,0.4,2.6,0.8,3.7,1.4c1.1,0.6,1.9,1.3,2.6,2.3c0.7,0.9,1,2.1,1,3.6c0,1.4-0.3,2.7-1,3.7c-0.7,1-1.6,1.8-2.6,2.5
		c-1.1,0.6-2.2,1.1-3.5,1.4c-1.3,0.3-2.6,0.4-3.8,0.4c-4,0-7-0.9-9.2-2.7c-2.1-1.8-3.2-4.6-3.2-8.4h-1.3c0,4.3,1.2,7.4,3.5,9.3
		c2.3,2,5.7,3,10.2,3c1.4,0,2.9-0.2,4.4-0.5c1.5-0.3,2.8-0.9,3.9-1.6c1.2-0.7,2.1-1.7,2.8-2.9c0.7-1.2,1.1-2.6,1.1-4.3
		c0-1.6-0.3-2.9-1-3.9c-0.6-1-1.5-1.8-2.5-2.5c-1-0.7-2.2-1.2-3.5-1.5c-1.3-0.4-2.6-0.7-3.9-1.1c-1.6-0.4-3.2-0.8-4.8-1.2
		c-1.4-0.4-2.7-0.8-3.8-1.2c-1.1-0.5-2-1.2-2.7-2.1c-0.7-0.9-1-2.2-1-3.8c0-0.3,0.1-0.9,0.3-1.6c0.2-0.8,0.6-1.6,1.2-2.4
		c0.7-0.8,1.7-1.5,3-2.2c1.4-0.6,3.2-1,5.6-1c1.6,0,3.1,0.2,4.4,0.5c1.3,0.4,2.5,0.9,3.5,1.7c1,0.8,1.7,1.7,2.2,2.9
		C217.1,140,217.3,141.4,217.3,143.1L217.3,143.1z M247.7,143.1h1.3c0-3.8-1.1-6.5-3.3-8.2c-2.2-1.7-5.2-2.6-8.9-2.6
		c-2.1,0-3.9,0.3-5.3,0.8c-1.4,0.5-2.6,1.2-3.5,2c-0.9,0.8-1.6,1.8-2,2.8c-0.4,1-0.6,2-0.6,2.9c0,1.8,0.3,3.3,1,4.4
		c0.7,1.1,1.7,1.9,3.1,2.6c1,0.4,2.1,0.8,3.3,1.2c1.2,0.4,2.7,0.7,4.3,1.1c1.4,0.4,2.9,0.7,4.3,1.1c1.4,0.4,2.6,0.8,3.7,1.4
		c1.1,0.6,1.9,1.3,2.6,2.3c0.7,0.9,1,2.1,1,3.6c0,1.4-0.3,2.7-1,3.7c-0.7,1-1.6,1.8-2.6,2.5c-1.1,0.6-2.2,1.1-3.5,1.4
		c-1.3,0.3-2.6,0.4-3.8,0.4c-4,0-7-0.9-9.2-2.7c-2.1-1.8-3.2-4.6-3.2-8.4h-1.3c0,4.3,1.1,7.4,3.5,9.3c2.3,2,5.7,3,10.2,3
		c1.4,0,2.9-0.2,4.4-0.5c1.5-0.3,2.8-0.9,3.9-1.6c1.2-0.7,2.1-1.7,2.8-2.9c0.7-1.2,1.1-2.6,1.1-4.3c0-1.6-0.3-2.9-1-3.9
		c-0.6-1-1.5-1.8-2.5-2.5c-1-0.7-2.2-1.2-3.5-1.5c-1.3-0.4-2.6-0.7-3.9-1.1c-1.6-0.4-3.2-0.8-4.8-1.2c-1.4-0.4-2.7-0.8-3.8-1.2
		c-1.1-0.5-2-1.2-2.7-2.1c-0.7-0.9-1-2.2-1-3.8c0-0.3,0.1-0.9,0.3-1.6c0.2-0.8,0.6-1.6,1.2-2.4c0.7-0.8,1.7-1.5,3-2.2
		c1.4-0.6,3.2-1,5.6-1c1.6,0,3.1,0.2,4.4,0.5c1.3,0.4,2.5,0.9,3.5,1.7s1.7,1.7,2.2,2.9C247.5,140,247.7,141.4,247.7,143.1
		L247.7,143.1z"/>
</g>
</svg>
