<?xml version="1.0" encoding="utf-8"?>
<!-- Generator: Adobe Illustrator 22.0.1, SVG Export Plug-In . SVG Version: 6.00 Build 0)  -->
<svg version="1.1" id="Layer_1" xmlns="http://www.w3.org/2000/svg" xmlns:xlink="http://www.w3.org/1999/xlink" x="0px" y="0px"
	 viewBox="0 0 300 300" style="enable-background:new 0 0 300 300;" xml:space="preserve">
<style type="text/css">
	.st0{fill:#F9A01B;}
	.st1{fill:#F58020;}
	.st2{fill:#FFCB2A;}
</style>
<g>
	<path class="st0" d="M176.8,117.1l-23.7,22.1l-22-44.4l11.4-25.5c2.9-5.1,7.6-5.2,10.4,0L176.8,117.1z"/>
	<path class="st1" d="M153.1,139.2l-88.6,82.4l66.6-126.8L153.1,139.2z"/>
	<path class="st2" d="M202.7,83.4c4.2-4,8.6-2.7,9.7,3.1l23,134l-76.4,45.9c-2.7,1.5-9.8,2.1-9.8,2.1s-6.5-0.8-8.9-2.2l-75.9-44.7
		L202.7,83.4z"/>
	<path class="st0" d="M131.1,94.8L64.5,221.6L94.2,36.3c1.1-5.7,4.4-6.3,7.3-1.2L131.1,94.8z"/>
</g>
</svg>
