<?xml version="1.0" encoding="utf-8"?>
<!-- Generator: Adobe Illustrator 22.0.1, SVG Export Plug-In . SVG Version: 6.00 Build 0)  -->
<svg version="1.1" id="Layer_1" xmlns="http://www.w3.org/2000/svg" xmlns:xlink="http://www.w3.org/1999/xlink" x="0px" y="0px"
	 viewBox="0 0 300 300" style="enable-background:new 0 0 300 300;" xml:space="preserve">
<style type="text/css">
	.st0{fill:#FF9C0B;}
	.st1{fill:#FB5722;}
	.st2{fill:#F2F2F2;}
	.st3{fill:#FF9B07;}
</style>
<g>
	<path class="st0" d="M147,177.4l100-99.6v-5.7c0-8.9-7.2-16.1-16.1-16.1H63.1C54.2,56,47,63.2,47,72.1v117.4l55.5-55.2L147,177.4"
		/>
	<path class="st1" d="M102.5,179.3L47,234.7v5.2c0,8.9,7.2,16.1,16.1,16.1h167.8c8.9,0,16.1-7.2,16.1-16.1V123.7l-100,99.6
		L102.5,179.3"/>
	<g>
		<polyline class="st2" points="47,189.5 102.5,134.3 147,177.4 247,77.8 247,123.7 147,223.2 102.5,179.3 47,234.7 47,189.5 		"/>
	</g>
	<path class="st3" d="M124.8,201.3l0-45.4l-22.2,23.4L124.8,201.3"/>
</g>
</svg>
