<?xml version="1.0" encoding="utf-8"?>
<!-- Generator: Adobe Illustrator 22.0.1, SVG Export Plug-In . SVG Version: 6.00 Build 0)  -->
<svg version="1.1" id="Layer_1" xmlns="http://www.w3.org/2000/svg" xmlns:xlink="http://www.w3.org/1999/xlink" x="0px" y="0px"
	 viewBox="0 0 300 300" style="enable-background:new 0 0 300 300;" xml:space="preserve">
<style type="text/css">
	.st0{fill:url(#SVGID_1_);}
	.st1{fill:#31C5F0;}
	.st2{fill:#2E001E;}
	.st3{fill:#FF2BC2;}
	.st4{fill:url(#SVGID_2_);}
	.st5{fill:#FF7F18;}
</style>
<g>
	
		<radialGradient id="SVGID_1_" cx="-184.0117" cy="-28.6884" r="5.499503e-02" gradientTransform="matrix(2291.6716 0 0 -2218.7549 421816.0938 -63547.0742)" gradientUnits="userSpaceOnUse">
		<stop  offset="0" style="stop-color:#34364E;stop-opacity:0.98"/>
		<stop  offset="1" style="stop-color:#0C0824"/>
	</radialGradient>
	<path class="st0" d="M67.1,69.3h165.8v161.3H67.1V69.3z"/>
	<path class="st1" d="M67.1,69.3h165.8v161.3H67.1V69.3z M59.5,238.2h180.9V61.8H59.5V238.2z M181.5,134.2c-6,0-8,3-8,5.5
		c0,2.7,1.4,4.6,9.3,8.7c11.8,5.7,15.5,11.2,15.5,19.3c0,12.1-9.2,18.5-21.6,18.5c-6.6,0-12.2-1.4-15.5-3.2
		c-0.5-0.2-0.6-0.6-0.6-1.2v-11.1c0-0.8,0.4-1,0.9-0.6c4.7,3.1,10.2,4.4,15.2,4.4c6,0,8.4-2.5,8.4-5.9c0-2.7-1.7-5.1-9.3-9
		c-10.7-5.1-15.2-10.3-15.2-19c0-9.7,7.6-17.8,20.8-17.8c6.5,0,11,1,13.5,2.1c0.6,0.4,0.8,1,0.8,1.5v10.3c0,0.6-0.4,1-1.1,0.8
		C191.3,135.5,186.4,134.2,181.5,134.2L181.5,134.2z M116.7,143.1c1.7,0.2,3.1,0.2,6.1,0.2c8.8,0,17.1-3.1,17.1-15.1
		c0-9.6-6-14.4-16-14.4c-3,0-5.9,0.2-7.2,0.2V143.1z M103.3,103.1c0-0.5,1.1-0.9,1.7-0.9c4.8-0.2,12-0.4,19.4-0.4
		c20.9,0,29,11.5,29,26.1c0,19.1-13.9,27.4-30.9,27.4c-2.9,0-3.8-0.2-5.9-0.2v28.9c0,0.6-0.2,0.9-0.9,0.9h-11.5
		c-0.6,0-0.9-0.2-0.9-0.9L103.3,103.1L103.3,103.1z"/>
</g>
<g>
	<path class="st2" d="M67.1,69.3h165.8v161.3H67.1V69.3z"/>
	<path class="st3" d="M59.5,61.8v176.4h180.9V61.8H59.5z M67.1,69.3h165.8v161.3H67.1V69.3z"/>
	<path class="st3" d="M190.9,135.9c-1.1-0.5-2.6-0.8-4.4-0.8c-9.5,0-15.8,7.3-15.8,19.4c0,13.9,6.5,19.4,14.9,19.4
		c1.8,0,3.8-0.2,5.2-0.8L190.9,135.9L190.9,135.9z M157.2,155.2c0-17.6,11.3-31.3,29.8-31.3c1.6,0,2.4,0,3.9,0.2v-19.6
		c0-0.5,0.4-0.8,0.8-0.8h12.1c0.6,0,0.8,0.2,0.8,0.6v68.9c0,2,0,4.6,0.4,7.4c0,0.5,0,0.6-0.5,0.8c-6.3,3-13,4.4-19.3,4.4
		C168.8,185.8,157.2,175.7,157.2,155.2L157.2,155.2z M131.5,143l21.1,40.9c0.4,0.6,0.2,1.2-0.5,1.2H139c-0.8,0-1.2-0.2-1.6-1
		c-4.8-9.9-9.7-20.3-14.8-31h-0.2c-4.5,10.1-9.5,21.1-14.3,31.1c-0.4,0.6-0.8,0.8-1.4,0.8H94.3c-0.8,0-0.8-0.6-0.5-1.1l20.7-39.7
		l-20-39.5c-0.5-0.6,0-1.1,0.5-1.1h13c0.8,0,1.1,0.2,1.4,0.8c4.7,10,9.6,19.9,14.1,30h0.2c4.4-9.9,9.2-20,13.8-29.8
		c0.4-0.6,0.6-1,1.4-1h12.1c0.6,0,0.8,0.5,0.5,1.1L131.5,143L131.5,143z"/>
</g>
<g>
	
		<radialGradient id="SVGID_2_" cx="-184.0117" cy="-28.6884" r="5.499503e-02" gradientTransform="matrix(2291.6716 0 0 -2218.7549 421816.0938 -63547.0742)" gradientUnits="userSpaceOnUse">
		<stop  offset="0" style="stop-color:#423325;stop-opacity:0.98"/>
		<stop  offset="1" style="stop-color:#1C0A00"/>
	</radialGradient>
	<path class="st4" d="M67.1,69.3h165.8v161.3H67.1V69.3z"/>
	<path class="st5" d="M67.1,69.3h165.8v161.3H67.1V69.3z M59.5,238.2h180.9V61.8H59.5V238.2z M178,124.7c0-0.6,0.2-0.9,0.9-0.9h11.8
		c0.6,0,0.9,0.2,0.9,0.9v59.5c0,0.6-0.2,0.9-0.9,0.9h-11.7c-0.8,0-1-0.4-1-1L178,124.7L178,124.7L178,124.7z M177.2,107.6
		c0-4.8,3.4-7.7,7.7-7.7c4.6,0,7.7,3.1,7.7,7.7c0,5-3.2,7.7-7.8,7.7C180.4,115.3,177.2,112.5,177.2,107.6z M143.3,149.5
		c-2.1-8.4-7.1-26.6-9-35.4h-0.2c-1.6,8.8-5.6,23.7-8.7,35.4H143.3z M122.3,161.7l-6,22.6c-0.2,0.6-0.4,0.8-1.1,0.8h-11.1
		c-0.8,0-0.9-0.2-0.8-1.1l21.4-74.9c0.4-1.4,0.6-2.6,0.8-6.3c0-0.5,0.2-0.8,0.6-0.8H142c0.5,0,0.8,0.2,0.9,0.8l24,81.3
		c0.2,0.6,0,1-0.6,1h-12.5c-0.6,0-1-0.2-1.1-0.7l-6.2-22.7H122.3L122.3,161.7z"/>
</g>
</svg>
