<?xml version="1.0" encoding="utf-8"?>
<!-- Generator: Adobe Illustrator 22.0.1, SVG Export Plug-In . SVG Version: 6.00 Build 0)  -->
<svg version="1.1" id="Layer_1" xmlns="http://www.w3.org/2000/svg" xmlns:xlink="http://www.w3.org/1999/xlink" x="0px" y="0px"
	 viewBox="0 0 300 300" style="enable-background:new 0 0 300 300;" xml:space="preserve">
<style type="text/css">
	.st0{fill:#FFFFFF;}
	.st1{fill:#A6A385;}
	.st2{fill:#499D4A;}
	.st3{fill:#58AA50;}
</style>
<g>
	<path class="st0" d="M155,260.9l-5.9-2c0,0,0.7-30.1-10.1-32.2c-7.2-8.4,1.2-354.2,27.1-1.2c0,0-8.9,4.5-10.5,12.1
		C153.9,245,155,260.9,155,260.9L155,260.9z"/>
	<path class="st1" d="M155,260.9l-5.9-2c0,0,0.7-30.1-10.1-32.2c-7.2-8.4,1.2-354.2,27.1-1.2c0,0-8.9,4.5-10.5,12.1
		C153.9,245,155,260.9,155,260.9L155,260.9z"/>
	<path class="st0" d="M158.2,231.8c0,0,51.7-34,39.6-104.7c-11.7-51.4-39.2-68.2-42.2-74.7c-3.3-4.6-6.5-12.7-6.5-12.7l2.2,143
		C151.3,182.8,146.8,226.4,158.2,231.8"/>
	<path class="st2" d="M158.2,231.8c0,0,51.7-34,39.6-104.7c-11.7-51.4-39.2-68.2-42.2-74.7c-3.3-4.6-6.5-12.7-6.5-12.7l2.2,143
		C151.3,182.8,146.8,226.4,158.2,231.8"/>
	<path class="st0" d="M146.1,233.6c0,0-48.5-33.1-45.6-91.4c2.7-58.3,37-87,43.6-92.1c4.3-4.6,4.5-6.3,4.8-10.9
		c3,6.5,2.4,96.9,2.9,107.5C153,187.7,149.4,225.9,146.1,233.6z"/>
	<path class="st3" d="M146.1,233.6c0,0-48.5-33.1-45.6-91.4c2.7-58.3,37-87,43.6-92.1c4.3-4.6,4.5-6.3,4.8-10.9
		c3,6.5,2.4,96.9,2.9,107.5C153,187.7,149.4,225.9,146.1,233.6z"/>
</g>
</svg>
