<?xml version="1.0" encoding="utf-8"?>
<!-- Generator: Adobe Illustrator 22.0.1, SVG Export Plug-In . SVG Version: 6.00 Build 0)  -->
<svg version="1.1" id="Layer_1" xmlns="http://www.w3.org/2000/svg" xmlns:xlink="http://www.w3.org/1999/xlink" x="0px" y="0px"
	 viewBox="0 0 300 300" style="enable-background:new 0 0 300 300;" xml:space="preserve">
<style type="text/css">
	.st0{fill:url(#SVGID_1_);}
	.st1{fill:#31C5F0;}
</style>
<g>
	
		<radialGradient id="SVGID_1_" cx="-184.0117" cy="-28.6884" r="5.499503e-02" gradientTransform="matrix(2291.6716 0 0 -2218.7549 421816.0938 -63547.0742)" gradientUnits="userSpaceOnUse">
		<stop  offset="0" style="stop-color:#34364E;stop-opacity:0.98"/>
		<stop  offset="1" style="stop-color:#0C0824"/>
	</radialGradient>
	<path class="st0" d="M67.1,69.3h165.8v161.3H67.1V69.3z"/>
	<path class="st1" d="M67.1,69.3h165.8v161.3H67.1V69.3z M59.5,238.2h180.9V61.8H59.5V238.2z M181.5,134.2c-6,0-8,3-8,5.5
		c0,2.7,1.4,4.6,9.3,8.7c11.8,5.7,15.5,11.2,15.5,19.3c0,12.1-9.2,18.5-21.6,18.5c-6.6,0-12.2-1.4-15.5-3.2
		c-0.5-0.2-0.6-0.6-0.6-1.2v-11.1c0-0.8,0.4-1,0.9-0.6c4.7,3.1,10.2,4.4,15.2,4.4c6,0,8.4-2.5,8.4-5.9c0-2.7-1.7-5.1-9.3-9
		c-10.7-5.1-15.2-10.3-15.2-19c0-9.7,7.6-17.8,20.8-17.8c6.5,0,11,1,13.5,2.1c0.6,0.4,0.8,1,0.8,1.5v10.3c0,0.6-0.4,1-1.1,0.8
		C191.3,135.5,186.4,134.2,181.5,134.2L181.5,134.2z M116.7,143.1c1.7,0.2,3.1,0.2,6.1,0.2c8.8,0,17.1-3.1,17.1-15.1
		c0-9.6-6-14.4-16-14.4c-3,0-5.9,0.2-7.2,0.2V143.1z M103.3,103.1c0-0.5,1.1-0.9,1.7-0.9c4.8-0.2,12-0.4,19.4-0.4
		c20.9,0,29,11.5,29,26.1c0,19.1-13.9,27.4-30.9,27.4c-2.9,0-3.8-0.2-5.9-0.2v28.9c0,0.6-0.2,0.9-0.9,0.9h-11.5
		c-0.6,0-0.9-0.2-0.9-0.9L103.3,103.1L103.3,103.1z"/>
</g>
</svg>
