<svg xmlns="http://www.w3.org/2000/svg" viewBox="0 0 300 300" width="300" height="300">
	<style>
		tspan { white-space:pre }
		.shp0 { fill: #000000 } 
		.shp1 { fill: #336791 } 
		.shp2 { fill: #ffffff } 
	</style>
	<g id="Folder 2 copy copy copy">
		<g id="Folder 1 copy copy copy">
			<path id="Layer copy copy copy" class="shp0" d="M255.44,172.45c-1.26,-3.82 -4.57,-6.49 -8.85,-7.12c-2.02,-0.3 -4.33,-0.17 -7.06,0.39c-4.76,0.98 -8.3,1.36 -10.88,1.43c9.73,-16.43 17.65,-35.18 22.21,-52.82c7.37,-28.53 3.43,-41.52 -1.17,-47.4c-12.18,-15.56 -29.94,-23.92 -51.37,-24.17c-11.43,-0.14 -21.47,2.12 -26.71,3.74c-4.87,-0.86 -10.12,-1.34 -15.62,-1.43c-10.31,-0.16 -19.42,2.08 -27.2,6.7c-4.31,-1.46 -11.23,-3.51 -19.21,-4.82c-18.78,-3.08 -33.92,-0.68 -45,7.14c-13.41,9.47 -19.63,25.93 -18.48,48.91c0.37,7.3 4.45,29.5 10.87,50.56c3.69,12.1 7.63,22.15 11.71,29.88c5.78,10.95 11.96,17.4 18.9,19.71c3.89,1.3 10.96,2.2 18.39,-3.99c0.94,1.14 2.2,2.28 3.87,3.33c2.12,1.34 4.71,2.43 7.3,3.08c9.33,2.33 18.06,1.75 25.52,-1.52c0.05,1.33 0.08,2.59 0.11,3.69c0.05,1.77 0.1,3.51 0.16,5.14c0.44,11 1.19,19.55 3.41,25.53c0.12,0.33 0.29,0.83 0.46,1.36c1.11,3.39 2.96,9.06 7.66,13.5c4.87,4.6 10.77,6.01 16.16,6.01c2.71,0 5.29,-0.36 7.56,-0.84c8.08,-1.73 17.25,-4.37 23.88,-13.81c6.27,-8.93 9.32,-22.38 9.87,-43.58c0.07,-0.6 0.14,-1.17 0.2,-1.72l0.13,-1.12l1.48,0.13l0.38,0.03c8.23,0.37 18.28,-1.37 24.46,-4.24c4.88,-2.26 20.52,-10.52 16.84,-21.67" />
		</g>
		<path id="Layer copy copy copy" class="shp1" d="M241.38,174.62c-24.46,5.05 -26.14,-3.24 -26.14,-3.24c25.82,-38.32 36.62,-86.95 27.3,-98.86c-25.41,-32.47 -69.41,-17.11 -70.14,-16.72l-0.24,0.04c-4.83,-1 -10.24,-1.6 -16.32,-1.7c-11.07,-0.18 -19.46,2.9 -25.83,7.73c0,0 -78.48,-32.33 -74.83,40.66c0.78,15.53 22.26,117.49 47.88,86.7c9.36,-11.26 18.41,-20.78 18.41,-20.78c4.49,2.99 9.87,4.51 15.51,3.96l0.44,-0.37c-0.14,1.4 -0.07,2.77 0.18,4.38c-6.6,7.37 -4.66,8.67 -17.85,11.38c-13.35,2.75 -5.51,7.65 -0.39,8.93c6.21,1.55 20.57,3.75 30.27,-9.83l-0.39,1.55c2.59,2.07 4.4,13.47 4.1,23.81c-0.3,10.34 -0.51,17.43 1.53,22.97c2.04,5.54 4.07,18.01 21.41,14.3c14.49,-3.11 22,-11.15 23.05,-24.58c0.74,-9.54 2.42,-8.13 2.52,-16.67l1.35,-4.04c1.55,-12.94 0.25,-17.11 9.18,-15.17l2.17,0.19c6.57,0.3 15.17,-1.06 20.22,-3.4c10.87,-5.04 17.32,-13.47 6.6,-11.25h0" />
		<path id="Layer copy copy copy" class="shp2" d="M134.61,109.49c-2.2,-0.31 -4.2,-0.02 -5.21,0.74c-0.57,0.43 -0.74,0.93 -0.79,1.27c-0.13,0.91 0.51,1.91 0.9,2.43c1.11,1.47 2.72,2.48 4.32,2.7c0.23,0.03 0.46,0.05 0.69,0.05c2.67,0 5.1,-2.08 5.31,-3.61c0.27,-1.92 -2.52,-3.2 -5.23,-3.58M207.63,109.55c-0.21,-1.51 -2.89,-1.94 -5.43,-1.58c-2.54,0.35 -5,1.5 -4.8,3.01c0.16,1.17 2.28,3.18 4.79,3.18c0.21,0 0.43,-0.01 0.64,-0.04c1.67,-0.23 2.9,-1.3 3.49,-1.91c0.89,-0.93 1.4,-1.98 1.31,-2.65" />
		<path id="Layer copy copy copy" class="shp2" d="M249.52,174.05c1.8,5.45 -8.13,11.72 -13.63,14.28c-4.9,2.27 -12.71,3.71 -19.48,3.71c-3.25,0 -6.25,-0.33 -8.58,-1.06c-1.11,10.16 -3.45,29.1 -4.82,37.03c-2.56,14.84 -9.17,21.57 -24.4,24.84c-2.59,0.56 -4.95,0.81 -7.09,0.81c-14.59,0 -19.21,-11.55 -21.11,-16.28c-2.31,-5.77 -3.11,-24.72 -2.95,-43.96c-5.26,4.76 -11.85,7.22 -19.34,7.22c-3.08,0 -6.31,-0.41 -9.66,-1.25c-0.96,-0.24 -9.4,-2.51 -9.29,-7.9c0.1,-4.94 7.15,-6.39 9.8,-6.94c9.32,-1.92 9.93,-2.69 12.82,-6.36c0.17,-0.22 0.35,-0.44 0.52,-0.66c0.17,-0.22 0.35,-0.44 0.53,-0.66c0.18,-0.22 0.35,-0.43 0.53,-0.65c0.18,-0.22 0.36,-0.43 0.54,-0.65c-0.01,-0.11 -0.02,-0.22 -0.03,-0.33c-4.18,-0.11 -8.27,-1.23 -11.99,-3.22c-1.43,1.53 -2.86,3.07 -4.27,4.62c-1.41,1.55 -2.81,3.11 -4.2,4.68c-1.39,1.57 -2.77,3.15 -4.13,4.74c-1.37,1.59 -2.72,3.19 -4.06,4.8c-4.4,5.29 -8.64,6.85 -12.09,6.85c-1.41,0 -2.69,-0.26 -3.79,-0.63c-9.46,-3.16 -18.46,-18.5 -26.73,-45.61c-6.29,-20.6 -10.27,-42.1 -10.62,-49.09c-1.04,-20.78 4.32,-35.49 15.94,-43.72c9.73,-6.9 23.37,-8.99 40.54,-6.23c9.93,1.6 18.05,4.39 21.19,5.56c7.23,-4.93 15.97,-7.35 26.07,-7.19c5.51,0.09 10.57,0.8 15.22,1.95c2.2,-0.97 13.58,-4.41 27.04,-4.26c19.58,0.21 35.76,7.76 46.78,21.84c2.73,3.49 4.06,9.21 3.94,16.99c-0.11,7.09 -1.45,15.79 -3.87,25.16c-5.11,19.77 -14.58,40.97 -26.08,58.5c1.74,1.28 7.04,3.4 21.85,0.34c4.99,-1.03 7.99,-0.12 8.92,2.7zM198.74,54.59c-6.93,-0.15 -13.11,0.72 -17.63,1.66c10.52,4.64 18.22,11.52 23.5,17.67c9.65,11.24 14.39,23.66 14.78,27.8c0.06,0.64 0.01,1.17 -0.1,1.63c0.15,4.33 -0.4,8 -0.95,11.54c-0.44,2.88 -0.9,5.86 -1.01,9.33c-0.11,3.27 0.31,6.76 0.76,10.45c1.08,8.99 2.29,19.14 -3.91,29.39l0.3,0.38c0.06,0.08 0.12,0.15 0.18,0.23c0.06,0.08 0.12,0.15 0.18,0.23c0.06,0.08 0.12,0.15 0.18,0.23c0.06,0.08 0.12,0.15 0.18,0.23c24.02,-37.8 32.32,-81.63 24.79,-91.26c-9.83,-12.56 -23.7,-19.12 -41.25,-19.51zM213.25,105.4c-11.97,-1.49 -16.74,1.27 -18.62,3.96c-6.31,9.02 6.01,31.12 11.28,40.56c1.35,2.42 2.33,4.18 2.78,5.27c0.12,0.28 0.24,0.56 0.36,0.84c0.13,0.28 0.25,0.56 0.39,0.83c0.13,0.27 0.27,0.55 0.41,0.82c0.14,0.27 0.29,0.54 0.44,0.81c3.62,-7.7 2.68,-15.51 1.77,-23.09c-0.45,-3.75 -0.92,-7.64 -0.8,-11.37c0.12,-3.84 0.61,-7 1.08,-10.05c0.44,-2.84 0.85,-5.56 0.9,-8.56zM100.57,187c6.86,-8.25 13.3,-15.27 16.26,-18.44c-0.19,-0.16 -0.37,-0.32 -0.56,-0.49c-0.18,-0.16 -0.37,-0.33 -0.54,-0.5c-0.18,-0.17 -0.36,-0.34 -0.53,-0.51c-0.18,-0.17 -0.35,-0.35 -0.52,-0.53c-6.66,-6.95 -9.69,-16.57 -8.31,-26.41c1.48,-10.58 0.93,-19.93 0.63,-24.95c-0.08,-1.37 -0.14,-2.37 -0.14,-3.07c-0.04,-1.82 -0.45,-31.67 16.85,-49.14c0.15,-0.15 0.31,-0.29 0.46,-0.44c-10.54,-3.44 -36.78,-10.21 -52.73,1.11c-9.81,6.95 -14.31,19.89 -13.38,38.46c0.29,5.87 4.01,26.81 10.36,47.63c7.34,24.06 15.68,39.24 22.85,41.63c1.1,0.37 4.45,1.49 9.3,-4.35zM119.05,162.34c4.22,4.4 9.77,6.84 15.48,6.86c0.66,-2.69 1.71,-5.52 2.85,-8.57l0.45,-1.21c0.58,-1.56 1.26,-3.07 1.98,-4.66c3.48,-7.74 7.82,-17.37 2.82,-40.48c-0.97,-4.46 -3.29,-7.06 -7.1,-7.93c-8.35,-1.91 -20.06,4.36 -22.59,6.6c0.02,0.51 0.06,1.15 0.1,1.88c0.31,5.23 0.89,14.97 -0.68,26.14c-1.12,7.98 1.32,15.77 6.69,21.37zM177.33,246.92c12.94,-2.78 17.54,-7.43 19.7,-19.94c1.63,-9.47 4.85,-36.27 5.3,-41.99c-0.56,-11.41 5.59,-13.69 9.02,-14.68c-0.44,-0.63 -1.02,-1.35 -1.61,-2.09c-1.94,-2.43 -4.6,-5.75 -6.66,-10.73c-0.31,-0.76 -1.31,-2.55 -2.47,-4.63c-6.31,-11.31 -19.43,-34.85 -10.95,-46.98c3.9,-5.58 11.59,-7.81 22.9,-6.66c-1.5,-4.47 -5.27,-12.75 -12.23,-20.98c-8.08,-9.55 -22.39,-21 -44.71,-21.36c-11.33,-0.19 -20.62,3.29 -27.61,10.33c-11.09,11.18 -14.05,28.86 -14.84,38.31c0.52,-0.29 1.07,-0.58 1.67,-0.89c2.81,-1.43 8.45,-3.91 14.61,-4.55c10.27,-1.06 17.05,3.52 19.08,12.91c5.42,25.06 0.43,36.15 -3.22,44.25c-0.67,1.5 -1.31,2.92 -1.82,4.28l-0.45,1.21c-1.08,2.88 -2.07,5.55 -2.64,7.91c2.68,-0.69 4.92,0.24 6.13,0.74c3.06,1.27 5.62,4.33 6.66,7.99c0.04,0.15 0.08,0.29 0.12,0.44c0.04,0.15 0.07,0.29 0.1,0.44c0.03,0.15 0.06,0.3 0.09,0.45c0.03,0.15 0.05,0.3 0.07,0.45c0.09,0.3 0.14,0.63 0.13,0.96c-0.7,25.16 0.29,47.95 2.31,53c3.13,7.83 7.88,14.67 21.3,11.8zM119.93,193.51c8.09,2.02 19.35,2.16 27.07,-8.66c0.92,-1.28 0.64,-2.93 0.39,-3.8c-0.53,-1.84 -1.82,-3.51 -3.16,-4.06c-1.64,-0.68 -2.55,-1.06 -4.53,1.16l0,0c-1.33,1.49 -2.29,2.71 -3.14,3.78c-3.7,4.7 -5.39,6.29 -16.36,8.55c-2.27,0.47 -3.57,0.94 -4.31,1.28c0.88,0.6 2.38,1.32 4.04,1.74zM241.96,177.26l-0.14,0.03c-12.45,2.57 -21.27,2.22 -26.21,-1.05c-0.31,-0.2 -0.59,-0.41 -0.85,-0.62c-0.41,0.14 -0.84,0.27 -1.28,0.39c-2.8,0.79 -5.45,1.53 -5.1,8.64c0.74,0.6 3.87,1.58 10.02,1.29c5.57,-0.26 11.43,-1.48 14.93,-3.11c4.07,-1.89 6.95,-4 8.63,-5.57z" />
		<path id="Layer copy copy copy copy" class="shp2" d="M249.52,174.05c1.8,5.45 -8.13,11.72 -13.63,14.28c-4.9,2.27 -12.71,3.71 -19.48,3.71c-3.25,0 -6.25,-0.33 -8.58,-1.06c-1.11,10.16 -3.45,29.1 -4.82,37.03c-2.56,14.84 -9.17,21.57 -24.4,24.84c-2.59,0.56 -4.95,0.81 -7.09,0.81c-14.59,0 -19.21,-11.55 -21.11,-16.28c-2.31,-5.77 -3.11,-24.72 -2.95,-43.96c-5.26,4.76 -11.85,7.22 -19.34,7.22c-3.08,0 -6.31,-0.41 -9.66,-1.25c-0.96,-0.24 -9.4,-2.51 -9.29,-7.9c0.1,-4.94 7.15,-6.39 9.8,-6.94c9.32,-1.92 9.93,-2.69 12.82,-6.36c0.17,-0.22 0.35,-0.44 0.52,-0.66c0.17,-0.22 0.35,-0.44 0.53,-0.66c0.18,-0.22 0.35,-0.43 0.53,-0.65c0.18,-0.22 0.36,-0.43 0.54,-0.65c-0.01,-0.11 -0.02,-0.22 -0.03,-0.33c-4.18,-0.11 -8.27,-1.23 -11.99,-3.22c-1.43,1.53 -2.86,3.07 -4.27,4.62c-1.41,1.55 -2.81,3.11 -4.2,4.68c-1.39,1.57 -2.77,3.15 -4.13,4.74c-1.37,1.59 -2.72,3.19 -4.06,4.8c-4.4,5.29 -8.64,6.85 -12.09,6.85c-1.41,0 -2.69,-0.26 -3.79,-0.63c-9.46,-3.16 -18.46,-18.5 -26.73,-45.61c-6.29,-20.6 -10.27,-42.1 -10.62,-49.09c-1.04,-20.78 4.32,-35.49 15.94,-43.72c9.73,-6.9 23.37,-8.99 40.54,-6.23c9.93,1.6 18.05,4.39 21.19,5.56c7.23,-4.93 15.97,-7.35 26.07,-7.19c5.51,0.09 10.57,0.8 15.22,1.95c2.2,-0.97 13.58,-4.41 27.04,-4.26c19.58,0.21 35.76,7.76 46.78,21.84c2.73,3.49 4.06,9.21 3.94,16.99c-0.11,7.09 -1.45,15.79 -3.87,25.16c-5.11,19.77 -14.58,40.97 -26.08,58.5c1.74,1.28 7.04,3.4 21.85,0.34c4.99,-1.03 7.99,-0.12 8.92,2.7zM198.74,54.59c-6.93,-0.15 -13.11,0.72 -17.63,1.66c10.52,4.64 18.22,11.52 23.5,17.67c9.65,11.24 14.39,23.66 14.78,27.8c0.06,0.64 0.01,1.17 -0.1,1.63c0.15,4.33 -0.4,8 -0.95,11.54c-0.44,2.88 -0.9,5.86 -1.01,9.33c-0.11,3.27 0.31,6.76 0.76,10.45c1.08,8.99 2.29,19.14 -3.91,29.39l0.3,0.38c0.06,0.08 0.12,0.15 0.18,0.23c0.06,0.08 0.12,0.15 0.18,0.23c0.06,0.08 0.12,0.15 0.18,0.23c0.06,0.08 0.12,0.15 0.18,0.23c24.02,-37.8 32.32,-81.63 24.79,-91.26c-9.83,-12.56 -23.7,-19.12 -41.25,-19.51zM213.25,105.4c-11.97,-1.49 -16.74,1.27 -18.62,3.96c-6.31,9.02 6.01,31.12 11.28,40.56c1.35,2.42 2.33,4.18 2.78,5.27c0.12,0.28 0.24,0.56 0.36,0.84c0.13,0.28 0.25,0.56 0.39,0.83c0.13,0.27 0.27,0.55 0.41,0.82c0.14,0.27 0.29,0.54 0.44,0.81c3.62,-7.7 2.68,-15.51 1.77,-23.09c-0.45,-3.75 -0.92,-7.64 -0.8,-11.37c0.12,-3.84 0.61,-7 1.08,-10.05c0.44,-2.84 0.85,-5.56 0.9,-8.56zM100.57,187c6.86,-8.25 13.3,-15.27 16.26,-18.44c-0.19,-0.16 -0.37,-0.32 -0.56,-0.49c-0.18,-0.16 -0.37,-0.33 -0.54,-0.5c-0.18,-0.17 -0.36,-0.34 -0.53,-0.51c-0.18,-0.17 -0.35,-0.35 -0.52,-0.53c-6.66,-6.95 -9.69,-16.57 -8.31,-26.41c1.48,-10.58 0.93,-19.93 0.63,-24.95c-0.08,-1.37 -0.14,-2.37 -0.14,-3.07c-0.04,-1.82 -0.45,-31.67 16.85,-49.14c0.15,-0.15 0.31,-0.29 0.46,-0.44c-10.54,-3.44 -36.78,-10.21 -52.73,1.11c-9.81,6.95 -14.31,19.89 -13.38,38.46c0.29,5.87 4.01,26.81 10.36,47.63c7.34,24.06 15.68,39.24 22.85,41.63c1.1,0.37 4.45,1.49 9.3,-4.35zM119.05,162.34c4.22,4.4 9.77,6.84 15.48,6.86c0.66,-2.69 1.71,-5.52 2.85,-8.57l0.45,-1.21c0.58,-1.56 1.26,-3.07 1.98,-4.66c3.48,-7.74 7.82,-17.37 2.82,-40.48c-0.97,-4.46 -3.29,-7.06 -7.1,-7.93c-8.35,-1.91 -20.06,4.36 -22.59,6.6c0.02,0.51 0.06,1.15 0.1,1.88c0.31,5.23 0.89,14.97 -0.68,26.14c-1.12,7.98 1.32,15.77 6.69,21.37zM177.33,246.92c12.94,-2.78 17.54,-7.43 19.7,-19.94c1.63,-9.47 4.85,-36.27 5.3,-41.99c-0.56,-11.41 5.59,-13.69 9.02,-14.68c-0.44,-0.63 -1.02,-1.35 -1.61,-2.09c-1.94,-2.43 -4.6,-5.75 -6.66,-10.73c-0.31,-0.76 -1.31,-2.55 -2.47,-4.63c-6.31,-11.31 -19.43,-34.85 -10.95,-46.98c3.9,-5.58 11.59,-7.81 22.9,-6.66c-1.5,-4.47 -5.27,-12.75 -12.23,-20.98c-8.08,-9.55 -22.39,-21 -44.71,-21.36c-11.33,-0.19 -20.62,3.29 -27.61,10.33c-11.09,11.18 -14.05,28.86 -14.84,38.31c0.52,-0.29 1.07,-0.58 1.67,-0.89c2.81,-1.43 8.45,-3.91 14.61,-4.55c10.27,-1.06 17.05,3.52 19.08,12.91c5.42,25.06 0.43,36.15 -3.22,44.25c-0.67,1.5 -1.31,2.92 -1.82,4.28l-0.45,1.21c-1.08,2.88 -2.07,5.55 -2.64,7.91c2.68,-0.69 4.92,0.24 6.13,0.74c3.06,1.27 5.62,4.33 6.66,7.99c0.04,0.15 0.08,0.29 0.12,0.44c0.04,0.15 0.07,0.29 0.1,0.44c0.03,0.15 0.06,0.3 0.09,0.45c0.03,0.15 0.05,0.3 0.07,0.45c0.09,0.3 0.14,0.63 0.13,0.96c-0.7,25.16 0.29,47.95 2.31,53c3.13,7.83 7.88,14.67 21.3,11.8zM119.93,193.51c8.09,2.02 19.35,2.16 27.07,-8.66c0.92,-1.28 0.64,-2.93 0.39,-3.8c-0.53,-1.84 -1.82,-3.51 -3.16,-4.06c-1.64,-0.68 -2.55,-1.06 -4.53,1.16l0,0c-1.33,1.49 -2.29,2.71 -3.14,3.78c-3.7,4.7 -5.39,6.29 -16.36,8.55c-2.27,0.47 -3.57,0.94 -4.31,1.28c0.88,0.6 2.38,1.32 4.04,1.74zM241.96,177.26l-0.14,0.03c-12.45,2.57 -21.27,2.22 -26.21,-1.05c-0.31,-0.2 -0.59,-0.41 -0.85,-0.62c-0.41,0.14 -0.84,0.27 -1.28,0.39c-2.8,0.79 -5.45,1.53 -5.1,8.64c0.74,0.6 3.87,1.58 10.02,1.29c5.57,-0.26 11.43,-1.48 14.93,-3.11c4.07,-1.89 6.95,-4 8.63,-5.57z" />
	</g>
</svg>