<?xml version="1.0" encoding="utf-8"?>
<!-- Generator: Adobe Illustrator 22.0.1, SVG Export Plug-In . SVG Version: 6.00 Build 0)  -->
<svg version="1.1" id="Layer_1" xmlns="http://www.w3.org/2000/svg" xmlns:xlink="http://www.w3.org/1999/xlink" x="0px" y="0px"
	 viewBox="0 0 300 300" style="enable-background:new 0 0 300 300;" xml:space="preserve">
<style type="text/css">
	.st0{fill:#764ABC;}
</style>
<g>
	<path class="st0" d="M191.8,190.8c8-0.8,14.1-7.7,13.8-16c-0.3-8.3-7.2-14.9-15.4-14.9h-0.6c-8.6,0.3-15.2,7.4-14.9,16
		c0.3,4.1,1.9,7.7,4.4,10.2c-9.4,18.5-23.7,32-45.2,43.3c-14.6,7.7-29.8,10.5-45,8.6c-12.4-1.7-22.1-7.2-28.1-16.3
		c-8.8-13.5-9.7-28.1-2.2-42.8c5.2-10.5,13.5-18.2,18.8-22.1c-1.1-3.6-2.8-9.7-3.6-14.1c-40,29-35.9,68.1-23.7,86.6
		c9.1,13.8,27.6,22.3,48,22.3c5.5,0,11-0.6,16.5-1.9C149.9,243,176.6,222,191.8,190.8L191.8,190.8z M240.4,156.6
		c-21-24.5-51.9-38.1-87.2-38.1h-4.4c-2.5-5-7.7-8.3-13.5-8.3h-0.6c-8.5,0.3-15.2,7.4-14.9,16c0.3,8.3,7.2,14.9,15.4,14.9h0.6
		c6.1-0.3,11.3-4.1,13.5-9.4h5c21,0,40.8,6.1,58.7,17.9c13.8,9.1,23.7,21,29.2,35.3c4.7,11.6,4.4,22.9-0.6,32.5
		c-7.7,14.6-20.7,22.6-37.8,22.6c-11,0-21.5-3.3-27-5.8c-3,2.8-8.6,7.2-12.4,9.9c11.9,5.5,24,8.6,35.6,8.6
		c26.5,0,46.1-14.6,53.5-29.2C261.6,207.6,261,180.1,240.4,156.6L240.4,156.6z M100.2,195.5c0.3,8.3,7.2,14.9,15.4,14.9h0.6
		c8.6-0.3,15.2-7.4,14.9-16c-0.3-8.3-7.2-14.9-15.4-14.9h-0.6c-0.6,0-1.4,0-1.9,0.3c-11.3-18.8-16-39.2-14.3-61.2
		c1.1-16.5,6.6-30.9,16.3-42.8c8-10.2,23.4-15.2,33.9-15.4c29.2-0.6,41.6,35.9,42.5,50.5c3.6,0.8,9.7,2.8,13.8,4.1
		C202,70.3,174.4,47.1,148,47.1c-24.8,0-47.7,17.9-56.8,44.4c-12.7,35.3-4.4,69.2,11,96C100.8,189.4,100,192.5,100.2,195.5
		L100.2,195.5z"/>
</g>
</svg>
